<svg width="31" height="30" viewBox="0 0 31 30" fill="none" xmlns="http://www.w3.org/2000/svg">
<g id="IconBuilding">
<g id="Group">
<path id="Vector" d="M27.9 27.5H2.90002M26.65 27.5V16.25M14.155 6.25C14.1775 4.7 14.2925 3.82125 14.8825 3.2325C15.615 2.5 16.7925 2.5 19.15 2.5H21.65C24.0075 2.5 25.185 2.5 25.9175 3.2325C26.65 3.965 26.65 5.1425 26.65 7.5V11.25" stroke="#E51954" stroke-width="1.875" stroke-linecap="round"/>
<path id="Vector_2" d="M19.15 27.5V20M4.15002 27.5V16.25M4.15002 11.25C4.15002 8.8925 4.15002 7.715 4.88252 6.9825C5.61502 6.25 6.79252 6.25 9.15002 6.25H14.15C16.5075 6.25 17.685 6.25 18.4175 6.9825C19.15 7.715 19.15 8.8925 19.15 11.25V15M11.65 27.5V23.75M7.90002 10H15.4M7.90002 13.75H9.15002M15.4 13.75H12.275M7.90002 17.5H15.4" stroke="#E51954" stroke-width="1.875" stroke-linecap="round"/>
</g>
</g>
</svg>
