<svg width="30" height="30" viewBox="0 0 30 30" fill="none" xmlns="http://www.w3.org/2000/svg">
<g id="IconHome" clip-path="url(#clip0_250_116)">
<path id="Vector" d="M28.0917 14.4083L15.5917 1.90834C15.4356 1.75313 15.2243 1.66602 15.0042 1.66602C14.784 1.66602 14.5728 1.75313 14.4167 1.90834L1.91669 14.4083C1.78017 14.5678 1.70883 14.7728 1.71693 14.9826C1.72503 15.1923 1.81197 15.3912 1.96039 15.5396C2.1088 15.6881 2.30775 15.775 2.51748 15.7831C2.72721 15.7912 2.93227 15.7199 3.09169 15.5833L15 3.67501L26.9084 15.5917C27.0678 15.7282 27.2728 15.7995 27.4826 15.7914C27.6923 15.7833 27.8912 15.6964 28.0397 15.548C28.1881 15.3996 28.275 15.2006 28.2831 14.9909C28.2912 14.7812 28.2199 14.5761 28.0834 14.4167L28.0917 14.4083Z" fill="#E51954"/>
<path id="Vector_2" d="M23.3333 26.6665H19.1667V18.3331H10.8333V26.6665H6.66667V14.9998L5 16.6665V26.6665C5 27.1085 5.17559 27.5324 5.48816 27.845C5.80072 28.1575 6.22464 28.3331 6.66667 28.3331H12.5V19.9998H17.5V28.3331H23.3333C23.7754 28.3331 24.1993 28.1575 24.5118 27.845C24.8244 27.5324 25 27.1085 25 26.6665V16.4665L23.3333 14.7998V26.6665Z" fill="#E51954"/>
</g>
<defs>
<clipPath id="clip0_250_116">
<rect width="30" height="30" fill="white"/>
</clipPath>
</defs>
</svg>
