<svg width="31" height="30" viewBox="0 0 31 30" fill="none" xmlns="http://www.w3.org/2000/svg">
<g id="IconSecure">
<path id="Vector" d="M15.6001 28.75C8.65385 27.2062 3.1001 20.6525 3.1001 13.75V6.25L15.6001 1.25L28.1001 6.25V13.75C28.1001 20.655 22.5463 27.2062 15.6001 28.75ZM5.6001 7.5V13.75C5.67153 16.6402 6.68805 19.4273 8.49407 21.6848C10.3001 23.9423 12.7961 25.5459 15.6001 26.25C18.4041 25.5459 20.9001 23.9423 22.7061 21.6848C24.5121 19.4273 25.5287 16.6402 25.6001 13.75V7.5L15.6001 3.75L5.6001 7.5Z" fill="#E51954"/>
<path id="Vector_2" d="M15.6001 13.75C17.326 13.75 18.7251 12.3509 18.7251 10.625C18.7251 8.89911 17.326 7.5 15.6001 7.5C13.8742 7.5 12.4751 8.89911 12.4751 10.625C12.4751 12.3509 13.8742 13.75 15.6001 13.75Z" fill="#E51954"/>
<path id="Vector_3" d="M9.3501 18.75C9.96621 19.8728 10.8696 20.8116 11.9678 21.4705C13.066 22.1295 14.3195 22.4847 15.6001 22.5C16.8807 22.4847 18.1342 22.1295 19.2324 21.4705C20.3306 20.8116 21.234 19.8728 21.8501 18.75C21.8188 16.38 17.6726 15 15.6001 15C13.5163 15 9.38135 16.38 9.3501 18.75Z" fill="#E51954"/>
</g>
</svg>
