<svg width="28" height="20" viewBox="0 0 28 20" fill="none" xmlns="http://www.w3.org/2000/svg">
<path id="Vector" d="M15.2273 5.25C15.2273 6.50978 14.7101 7.71796 13.7894 8.60876C12.8688 9.49955 11.6202 10 10.3182 10C9.01621 10 7.76756 9.49955 6.84693 8.60876C5.9263 7.71796 5.40909 6.50978 5.40909 5.25C5.40909 3.99022 5.9263 2.78204 6.84693 1.89124C7.76756 1.00044 9.01621 0.5 10.3182 0.5C11.6202 0.5 12.8688 1.00044 13.7894 1.89124C14.7101 2.78204 15.2273 3.99022 15.2273 5.25ZM20.1364 17.125V19.5H0.5V17.125C0.5 14.5006 4.89364 12.375 10.3182 12.375C15.7427 12.375 20.1364 14.5006 20.1364 17.125ZM24.4318 12.9688V14.75H22.5909V12.9688H24.4318ZM21.9773 7.03125H20.1364V6.4375C20.1364 5.49267 20.5243 4.58653 21.2147 3.91843C21.9052 3.25033 22.8417 2.875 23.8182 2.875C24.7947 2.875 25.7311 3.25033 26.4216 3.91843C27.1121 4.58653 27.5 5.49267 27.5 6.4375C27.5 7.58938 26.8864 8.67 25.9168 9.29937L25.5486 9.525C24.8491 10 24.4318 10.7244 24.4318 11.5437V11.7812H22.5909V11.5437C22.5909 10.1306 23.3273 8.8125 24.5423 8.04063L24.8982 7.815C25.3768 7.50625 25.6591 6.99563 25.6591 6.4375C25.6591 5.96508 25.4651 5.51201 25.1199 5.17797C24.7747 4.84392 24.3064 4.65625 23.8182 4.65625C23.3299 4.65625 22.8617 4.84392 22.5165 5.17797C22.1712 5.51201 21.9773 5.96508 21.9773 6.4375V7.03125Z" fill="#264094"/>
</svg>
