<svg width="30" height="30" viewBox="0 0 30 30" fill="none" xmlns="http://www.w3.org/2000/svg">
<g id="IconPeople">
<path id="Vector" d="M10.1785 5.35693C9.54538 5.35693 8.91842 5.48164 8.33346 5.72394C7.74849 5.96624 7.21698 6.32139 6.76927 6.7691C6.32156 7.21681 5.96642 7.74832 5.72412 8.33328C5.48182 8.91824 5.35711 9.5452 5.35711 10.1784C5.35711 10.8115 5.48182 11.4385 5.72412 12.0234C5.96642 12.6084 6.32156 13.1399 6.76927 13.5876C7.21698 14.0353 7.74849 14.3905 8.33346 14.6328C8.91842 14.8751 9.54538 14.9998 10.1785 14.9998C11.4573 14.9998 12.6836 14.4918 13.5878 13.5876C14.492 12.6834 15 11.4571 15 10.1784C15 8.89964 14.492 7.67329 13.5878 6.7691C12.6836 5.8649 11.4573 5.35693 10.1785 5.35693ZM6.96425 10.1784C6.96425 9.75626 7.04739 9.33828 7.20892 8.94831C7.37046 8.55833 7.60722 8.20399 7.90569 7.90552C8.20417 7.60704 8.55851 7.37028 8.94848 7.20875C9.33846 7.04722 9.75643 6.96408 10.1785 6.96408C10.6006 6.96408 11.0186 7.04722 11.4086 7.20875C11.7986 7.37028 12.1529 7.60704 12.4514 7.90552C12.7499 8.20399 12.9866 8.55833 13.1481 8.94831C13.3097 9.33828 13.3928 9.75626 13.3928 10.1784C13.3928 11.0308 13.0542 11.8484 12.4514 12.4512C11.8486 13.054 11.031 13.3926 10.1785 13.3926C9.32605 13.3926 8.50849 13.054 7.90569 12.4512C7.3029 11.8484 6.96425 11.0308 6.96425 10.1784ZM21.4285 7.49979C20.434 7.49979 19.4801 7.89488 18.7769 8.59814C18.0736 9.3014 17.6785 10.2552 17.6785 11.2498C17.6785 12.2444 18.0736 13.1982 18.7769 13.9014C19.4801 14.6047 20.434 14.9998 21.4285 14.9998C22.4231 14.9998 23.3769 14.6047 24.0802 13.9014C24.7834 13.1982 25.1785 12.2444 25.1785 11.2498C25.1785 10.2552 24.7834 9.3014 24.0802 8.59814C23.3769 7.89488 22.4231 7.49979 21.4285 7.49979ZM19.2857 11.2498C19.2857 10.6815 19.5114 10.1364 19.9133 9.73456C20.3152 9.3327 20.8602 9.10693 21.4285 9.10693C21.9969 9.10693 22.5419 9.3327 22.9438 9.73456C23.3456 10.1364 23.5714 10.6815 23.5714 11.2498C23.5714 11.8181 23.3456 12.3632 22.9438 12.765C22.5419 13.1669 21.9969 13.3926 21.4285 13.3926C20.8602 13.3926 20.3152 13.1669 19.9133 12.765C19.5114 12.3632 19.2857 11.8181 19.2857 11.2498ZM2.14282 19.5534C2.14282 18.914 2.39681 18.3008 2.8489 17.8487C3.301 17.3966 3.91418 17.1426 4.55354 17.1426H15.8035C16.4429 17.1426 17.0561 17.3966 17.5082 17.8487C17.9603 18.3008 18.2143 18.914 18.2143 19.5534V20.1223C18.2129 20.209 18.2068 20.2955 18.196 20.3816C18.1719 20.6026 18.1325 20.8217 18.0782 21.0373C17.901 21.7409 17.5852 22.402 17.1493 22.9819C16.0628 24.4316 13.9907 25.7141 10.1785 25.7141C6.36639 25.7141 4.29425 24.4316 3.20782 22.9819C2.77224 22.4019 2.45679 21.7408 2.27997 21.0373C2.21001 20.7572 2.16519 20.4714 2.14604 20.1834C2.1447 20.163 2.14363 20.1427 2.14282 20.1223V19.5534ZM3.74997 20.0837V20.103L3.75961 20.2101C3.77032 20.3109 3.79175 20.4619 3.83889 20.6473C3.96381 21.1429 4.18597 21.6087 4.49246 22.0176C5.21461 22.9787 6.75854 24.1069 10.1785 24.1069C13.5985 24.1069 15.1425 22.9787 15.8635 22.0176C16.2385 21.5184 16.425 21.0191 16.5171 20.6473C16.5621 20.4687 16.5919 20.2866 16.606 20.103L16.6071 20.0837V19.5534C16.6071 19.3402 16.5224 19.1358 16.3717 18.9852C16.221 18.8345 16.0167 18.7498 15.8035 18.7498H4.55354C4.34042 18.7498 4.13602 18.8345 3.98533 18.9852C3.83463 19.1358 3.74997 19.3402 3.74997 19.5534V20.0837ZM18.3214 23.1641C19.1496 23.418 20.1717 23.5712 21.4264 23.5712C24.3942 23.5712 26.0528 22.7184 26.9539 21.6898C27.3142 21.2828 27.5811 20.8019 27.736 20.2809C27.7972 20.0705 27.8364 19.8543 27.8528 19.6359L27.855 19.5855V19.5534C27.855 18.914 27.601 18.3008 27.1489 17.8487C26.6968 17.3966 26.0836 17.1426 25.4443 17.1426H18.315C18.7371 17.583 19.0457 18.1348 19.1914 18.7498H25.4453C25.6566 18.7498 25.8594 18.833 26.0098 18.9814C26.1602 19.1297 26.2461 19.3314 26.2489 19.5426C26.2394 19.6399 26.2207 19.736 26.1932 19.8298C26.1035 20.1266 25.9499 20.4002 25.7432 20.6312C25.2385 21.2098 24.0857 21.9641 21.4264 21.9641C20.4182 21.9641 19.6264 21.8559 19.0039 21.6887C18.8388 22.207 18.6095 22.7027 18.3214 23.1641Z" fill="#E51954"/>
</g>
</svg>
