<svg width="31" height="30" viewBox="0 0 31 30" fill="none" xmlns="http://www.w3.org/2000/svg">
<g id="IconDoc">
<g id="Group">
<path id="Vector" d="M11.425 18.75H20.175M11.425 22.5H15.8M25.175 2.5H7.67505C7.34353 2.5 7.02559 2.6317 6.79117 2.86612C6.55675 3.10054 6.42505 3.41848 6.42505 3.75V26.25C6.42505 26.5815 6.55675 26.8995 6.79117 27.1339C7.02559 27.3683 7.34353 27.5 7.67505 27.5H25.175C25.5066 27.5 25.8245 27.3683 26.0589 27.1339C26.2934 26.8995 26.425 26.5815 26.425 26.25V3.75C26.425 3.41848 26.2934 3.10054 26.0589 2.86612C25.8245 2.6317 25.5066 2.5 25.175 2.5Z" stroke="#E51954" stroke-width="2.5" stroke-linecap="round" stroke-linejoin="round"/>
<path id="Vector_2" d="M11.425 7.5H20.175V13.75H11.425V7.5Z" stroke="#E51954" stroke-width="2.5" stroke-linecap="round" stroke-linejoin="round"/>
</g>
</g>
</svg>
