<svg width="31" height="31" viewBox="0 0 31 31" fill="black" xmlns="http://www.w3.org/2000/svg">
<path d="M15.6001 29.25C8.65385 27.7062 3.1001 21.1525 3.1001 14.25V6.75L15.6001 1.75L28.1001 6.75V14.25C28.1001 21.155 22.5463 27.7062 15.6001 29.25ZM5.6001 8V14.25C5.67153 17.1402 6.68805 19.9273 8.49407 22.1848C10.3001 24.4423 12.7961 26.0459 15.6001 26.75C18.4041 26.0459 20.9001 24.4423 22.7061 22.1848C24.5121 19.9273 25.5287 17.1402 25.6001 14.25V8L15.6001 4.25L5.6001 8Z" fill="black"/>
<path d="M15.6001 14.25C17.326 14.25 18.7251 12.8509 18.7251 11.125C18.7251 9.39911 17.326 8 15.6001 8C13.8742 8 12.4751 9.39911 12.4751 11.125C12.4751 12.8509 13.8742 14.25 15.6001 14.25Z" fill="black"/>
<path d="M9.3501 19.25C9.96621 20.3728 10.8696 21.3116 11.9678 21.9705C13.066 22.6295 14.3195 22.9847 15.6001 23C16.8807 22.9847 18.1342 22.6295 19.2324 21.9705C20.3306 21.3116 21.234 20.3728 21.8501 19.25C21.8188 16.88 17.6726 15.5 15.6001 15.5C13.5163 15.5 9.38135 16.88 9.3501 19.25Z" fill="black"/>
</svg>
