<svg width="31" height="31" viewBox="0 0 31 31" fill="none" xmlns="http://www.w3.org/2000/svg">
<path d="M11.425 19.25H20.175M11.425 23H15.8M25.175 3H7.67505C7.34353 3 7.02559 3.1317 6.79117 3.36612C6.55675 3.60054 6.42505 3.91848 6.42505 4.25V26.75C6.42505 27.0815 6.55675 27.3995 6.79117 27.6339C7.02559 27.8683 7.34353 28 7.67505 28H25.175C25.5066 28 25.8245 27.8683 26.0589 27.6339C26.2934 27.3995 26.425 27.0815 26.425 26.75V4.25C26.425 3.91848 26.2934 3.60054 26.0589 3.36612C25.8245 3.1317 25.5066 3 25.175 3Z" stroke="#353535" stroke-width="2.5" stroke-linecap="round" stroke-linejoin="round"/>
<path d="M11.425 8H20.175V14.25H11.425V8Z" stroke="#353535" stroke-width="2.5" stroke-linecap="round" stroke-linejoin="round"/>
</svg>
