<svg width="30" height="31" viewBox="0 0 30 31" fill="none" xmlns="http://www.w3.org/2000/svg">
<path d="M10.1785 5.85718C9.54538 5.85718 8.91842 5.98189 8.33346 6.22419C7.74849 6.46649 7.21698 6.82163 6.76927 7.26934C6.32156 7.71705 5.96642 8.24856 5.72412 8.83353C5.48182 9.41849 5.35711 10.0454 5.35711 10.6786C5.35711 11.3118 5.48182 11.9387 5.72412 12.5237C5.96642 13.1086 6.32156 13.6402 6.76927 14.0879C7.21698 14.5356 7.74849 14.8907 8.33346 15.133C8.91842 15.3753 9.54538 15.5 10.1785 15.5C11.4573 15.5 12.6836 14.9921 13.5878 14.0879C14.492 13.1837 15 11.9573 15 10.6786C15 9.39988 14.492 8.17353 13.5878 7.26934C12.6836 6.36515 11.4573 5.85718 10.1785 5.85718ZM6.96425 10.6786C6.96425 10.2565 7.04739 9.83853 7.20892 9.44855C7.37046 9.05858 7.60722 8.70424 7.90569 8.40576C8.20417 8.10729 8.55851 7.87053 8.94848 7.70899C9.33846 7.54746 9.75643 7.46432 10.1785 7.46432C10.6006 7.46432 11.0186 7.54746 11.4086 7.70899C11.7986 7.87053 12.1529 8.10729 12.4514 8.40576C12.7499 8.70424 12.9866 9.05858 13.1481 9.44855C13.3097 9.83853 13.3928 10.2565 13.3928 10.6786C13.3928 11.5311 13.0542 12.3487 12.4514 12.9514C11.8486 13.5542 11.031 13.8929 10.1785 13.8929C9.32605 13.8929 8.50849 13.5542 7.90569 12.9514C7.3029 12.3487 6.96425 11.5311 6.96425 10.6786ZM21.4285 8.00003C20.434 8.00003 19.4801 8.39512 18.7769 9.09838C18.0736 9.80165 17.6785 10.7555 17.6785 11.75C17.6785 12.7446 18.0736 13.6984 18.7769 14.4017C19.4801 15.1049 20.434 15.5 21.4285 15.5C22.4231 15.5 23.3769 15.1049 24.0802 14.4017C24.7834 13.6984 25.1785 12.7446 25.1785 11.75C25.1785 10.7555 24.7834 9.80165 24.0802 9.09838C23.3769 8.39512 22.4231 8.00003 21.4285 8.00003ZM19.2857 11.75C19.2857 11.1817 19.5114 10.6367 19.9133 10.2348C20.3152 9.83294 20.8602 9.60718 21.4285 9.60718C21.9969 9.60718 22.5419 9.83294 22.9438 10.2348C23.3456 10.6367 23.5714 11.1817 23.5714 11.75C23.5714 12.3184 23.3456 12.8634 22.9438 13.2653C22.5419 13.6671 21.9969 13.8929 21.4285 13.8929C20.8602 13.8929 20.3152 13.6671 19.9133 13.2653C19.5114 12.8634 19.2857 12.3184 19.2857 11.75ZM2.14282 20.0536C2.14282 19.4142 2.39681 18.8011 2.8489 18.349C3.301 17.8969 3.91418 17.6429 4.55354 17.6429H15.8035C16.4429 17.6429 17.0561 17.8969 17.5082 18.349C17.9603 18.8011 18.2143 19.4142 18.2143 20.0536V20.6225C18.2129 20.7092 18.2068 20.7958 18.196 20.8818C18.1719 21.1028 18.1325 21.3219 18.0782 21.5375C17.901 22.2411 17.5852 22.9022 17.1493 23.4822C16.0628 24.9318 13.9907 26.2143 10.1785 26.2143C6.36639 26.2143 4.29425 24.9318 3.20782 23.4822C2.77224 22.9022 2.45679 22.241 2.27997 21.5375C2.21001 21.2574 2.16519 20.9717 2.14604 20.6836C2.1447 20.6633 2.14363 20.6429 2.14282 20.6225V20.0536ZM3.74997 20.584V20.6032L3.75961 20.7104C3.77032 20.8111 3.79175 20.9622 3.83889 21.1475C3.96381 21.6431 4.18597 22.1089 4.49246 22.5179C5.21461 23.479 6.75854 24.6072 10.1785 24.6072C13.5985 24.6072 15.1425 23.479 15.8635 22.5179C16.2385 22.0186 16.425 21.5193 16.5171 21.1475C16.5621 20.969 16.5919 20.7869 16.606 20.6032L16.6071 20.584V20.0536C16.6071 19.8405 16.5224 19.6361 16.3717 19.4854C16.221 19.3347 16.0167 19.25 15.8035 19.25H4.55354C4.34042 19.25 4.13602 19.3347 3.98533 19.4854C3.83463 19.6361 3.74997 19.8405 3.74997 20.0536V20.584ZM18.3214 23.6643C19.1496 23.9182 20.1717 24.0715 21.4264 24.0715C24.3942 24.0715 26.0528 23.2186 26.9539 22.19C27.3142 21.783 27.5811 21.3021 27.736 20.7811C27.7972 20.5707 27.8364 20.3546 27.8528 20.1361L27.855 20.0857V20.0536C27.855 19.4142 27.601 18.8011 27.1489 18.349C26.6968 17.8969 26.0836 17.6429 25.4443 17.6429H18.315C18.7371 18.0832 19.0457 18.635 19.1914 19.25H25.4453C25.6566 19.25 25.8594 19.3332 26.0098 19.4816C26.1602 19.63 26.2461 19.8316 26.2489 20.0429C26.2394 20.1401 26.2207 20.2363 26.1932 20.33C26.1035 20.6269 25.9499 20.9004 25.7432 21.1315C25.2385 21.71 24.0857 22.4643 21.4264 22.4643C20.4182 22.4643 19.6264 22.3561 19.0039 22.189C18.8388 22.7073 18.6095 23.2029 18.3214 23.6643Z" fill="#353535"/>
</svg>
