<svg width="31" height="31" viewBox="0 0 31 31" fill="none" xmlns="http://www.w3.org/2000/svg">
<path d="M27.9 28H2.90002M26.65 28V16.75M14.155 6.75C14.1775 5.2 14.2925 4.32125 14.8825 3.7325C15.615 3 16.7925 3 19.15 3H21.65C24.0075 3 25.185 3 25.9175 3.7325C26.65 4.465 26.65 5.6425 26.65 8V11.75" stroke="#353535" stroke-width="1.875" stroke-linecap="round"/>
<path d="M19.15 28V20.5M4.15002 28V16.75M4.15002 11.75C4.15002 9.3925 4.15002 8.215 4.88252 7.4825C5.61502 6.75 6.79252 6.75 9.15002 6.75H14.15C16.5075 6.75 17.685 6.75 18.4175 7.4825C19.15 8.215 19.15 9.3925 19.15 11.75V15.5M11.65 28V24.25M7.90002 10.5H15.4M7.90002 14.25H9.15002M15.4 14.25H12.275M7.90002 18H15.4" stroke="#353535" stroke-width="1.875" stroke-linecap="round"/>
</svg>
