<svg width="30" height="31" viewBox="0 0 30 31" fill="none" xmlns="http://www.w3.org/2000/svg">
<path d="M26.25 18V24.25C26.25 24.913 25.9866 25.5489 25.5178 26.0178C25.0489 26.4866 24.413 26.75 23.75 26.75H6.25C5.58696 26.75 4.95107 26.4866 4.48223 26.0178C4.01339 25.5489 3.75 24.913 3.75 24.25V6.75C3.75 6.08696 4.01339 5.45107 4.48223 4.98223C4.95107 4.51339 5.58696 4.25 6.25 4.25H12.5V6.75H6.25V24.25H23.75V18H26.25Z" fill="#264094"/>
<path d="M26.25 9.25H21.25V4.25H18.75V9.25H13.75V11.75H18.75V16.75H21.25V11.75H26.25V9.25Z" fill="#264094"/>
</svg>
