<svg width="180" height="97" viewBox="0 0 180 97" fill="none" xmlns="http://www.w3.org/2000/svg">
<mask id="path-1-inside-1_89_1385" fill="white">
<path d="M0 0.5H180V96.5H0V0.5Z"/>
</mask>
<path d="M0 0.5H180V96.5H0V0.5Z" fill="white" fill-opacity="0.1475"/>
<path d="M108.75 29.6667V40.0833C108.75 41.1884 108.311 42.2482 107.53 43.0296C106.748 43.811 105.688 44.25 104.583 44.25H75.4167C74.3116 44.25 73.2518 43.811 72.4704 43.0296C71.689 42.2482 71.25 41.1884 71.25 40.0833V10.9167C71.25 9.8116 71.689 8.75179 72.4704 7.97039C73.2518 7.18899 74.3116 6.75 75.4167 6.75H85.8333V10.9167H75.4167V40.0833H104.583V29.6667H108.75Z" fill="#264094"/>
<path d="M108.75 15.0833H100.417V6.75H96.25V15.0833H87.9166V19.25H96.25V27.5833H100.417V19.25H108.75V15.0833Z" fill="#264094"/>
<path d="M45.1813 72.3555H43.1593C43.1223 72.0939 43.0469 71.8615 42.9331 71.6584C42.8192 71.4522 42.673 71.2768 42.4945 71.1321C42.316 70.9875 42.1098 70.8767 41.8759 70.7997C41.6451 70.7228 41.3942 70.6843 41.1234 70.6843C40.6341 70.6843 40.2078 70.8059 39.8446 71.049C39.4815 71.2891 39.1999 71.6399 38.9998 72.1016C38.7998 72.5601 38.6998 73.1172 38.6998 73.7727C38.6998 74.4467 38.7998 75.013 38.9998 75.4716C39.2029 75.9302 39.4861 76.2764 39.8493 76.5103C40.2124 76.7442 40.6325 76.8612 41.1096 76.8612C41.3773 76.8612 41.6251 76.8258 41.8528 76.755C42.0836 76.6842 42.2883 76.5811 42.4668 76.4457C42.6453 76.3072 42.793 76.1394 42.91 75.9425C43.03 75.7455 43.1131 75.5208 43.1593 75.2685L45.1813 75.2777C45.129 75.7116 44.9982 76.1302 44.7889 76.5334C44.5827 76.9335 44.3042 77.292 43.9533 77.609C43.6055 77.9229 43.19 78.1722 42.7069 78.3569C42.2267 78.5385 41.6835 78.6293 41.0772 78.6293C40.234 78.6293 39.4799 78.4384 38.8152 78.0568C38.1535 77.6752 37.6303 77.1228 37.2456 76.3995C36.8639 75.6763 36.6731 74.8007 36.6731 73.7727C36.6731 72.7417 36.867 71.8646 37.2548 71.1413C37.6426 70.4181 38.1689 69.8672 38.8336 69.4886C39.4984 69.107 40.2463 68.9162 41.0772 68.9162C41.6251 68.9162 42.1329 68.9931 42.6007 69.147C43.0716 69.3009 43.4886 69.5256 43.8517 69.821C44.2149 70.1134 44.5104 70.4719 44.7381 70.8967C44.9689 71.3214 45.1167 71.8076 45.1813 72.3555ZM48.2147 78.5V69.0455H51.9448C52.6588 69.0455 53.2682 69.1732 53.7729 69.4286C54.2808 69.681 54.667 70.0395 54.9317 70.5043C55.1994 70.9659 55.3333 71.5091 55.3333 72.1339C55.3333 72.7617 55.1979 73.3018 54.9271 73.7543C54.6562 74.2036 54.2638 74.5483 53.7499 74.7884C53.239 75.0284 52.6204 75.1484 51.894 75.1484H49.3965V73.5419H51.5709C51.9525 73.5419 52.2695 73.4896 52.5219 73.3849C52.7742 73.2803 52.962 73.1233 53.0851 72.9141C53.2113 72.7048 53.2744 72.4447 53.2744 72.1339C53.2744 71.82 53.2113 71.5553 53.0851 71.3398C52.962 71.1244 52.7727 70.9613 52.5173 70.8505C52.2649 70.7366 51.9464 70.6797 51.5616 70.6797H50.2136V78.5H48.2147ZM53.3205 74.1974L55.6703 78.5H53.4636L51.1646 74.1974H53.3205ZM58.346 78.5V69.0455H64.7167V70.6935H60.3449V72.9464H64.3889V74.5945H60.3449V76.8519H64.7352V78.5H58.346ZM69.5355 78.5H67.3935L70.6573 69.0455H73.2333L76.4926 78.5H74.3505L71.9823 71.206H71.9084L69.5355 78.5ZM69.4017 74.7837H74.4613V76.3441H69.4017V74.7837ZM79.2305 78.5V69.0455H82.9606C83.6747 69.0455 84.284 69.1732 84.7888 69.4286C85.2966 69.681 85.6828 70.0395 85.9475 70.5043C86.2153 70.9659 86.3491 71.5091 86.3491 72.1339C86.3491 72.7617 86.2137 73.3018 85.9429 73.7543C85.672 74.2036 85.2796 74.5483 84.7657 74.7884C84.2548 75.0284 83.6362 75.1484 82.9099 75.1484H80.4123V73.5419H82.5867C82.9683 73.5419 83.2853 73.4896 83.5377 73.3849C83.7901 73.2803 83.9778 73.1233 84.1009 72.9141C84.2271 72.7048 84.2902 72.4447 84.2902 72.1339C84.2902 71.82 84.2271 71.5553 84.1009 71.3398C83.9778 71.1244 83.7885 70.9613 83.5331 70.8505C83.2807 70.7366 82.9622 70.6797 82.5775 70.6797H81.2295V78.5H79.2305ZM84.3363 74.1974L86.6861 78.5H84.4795L82.1805 74.1974H84.3363ZM97.3221 78.5H93.9706V69.0455H97.3498C98.3008 69.0455 99.1195 69.2347 99.8058 69.6133C100.492 69.9888 101.02 70.5289 101.389 71.2337C101.762 71.9384 101.948 72.7817 101.948 73.7635C101.948 74.7483 101.762 75.5947 101.389 76.3026C101.02 77.0104 100.489 77.5536 99.7966 77.9322C99.1072 78.3107 98.2823 78.5 97.3221 78.5ZM95.9695 76.7873H97.239C97.8299 76.7873 98.327 76.6826 98.7301 76.4734C99.1364 76.261 99.4411 75.9332 99.6442 75.4901C99.8504 75.0438 99.9535 74.4683 99.9535 73.7635C99.9535 73.0649 99.8504 72.494 99.6442 72.0508C99.4411 71.6076 99.1379 71.2814 98.7348 71.0721C98.3316 70.8628 97.8346 70.7582 97.2436 70.7582H95.9695V76.7873ZM106.125 78.5H103.983L107.247 69.0455H109.823L113.082 78.5H110.94L108.572 71.206H108.498L106.125 78.5ZM105.991 74.7837H111.051V76.3441H105.991V74.7837ZM114.305 70.6935V69.0455H122.07V70.6935H119.175V78.5H117.199V70.6935H114.305ZM133.205 73.7727C133.205 74.8037 133.009 75.6809 132.619 76.4041C132.231 77.1274 131.701 77.6798 131.031 78.0614C130.363 78.44 129.612 78.6293 128.778 78.6293C127.937 78.6293 127.183 78.4384 126.516 78.0568C125.848 77.6752 125.32 77.1228 124.932 76.3995C124.544 75.6763 124.35 74.8007 124.35 73.7727C124.35 72.7417 124.544 71.8646 124.932 71.1413C125.32 70.4181 125.848 69.8672 126.516 69.4886C127.183 69.107 127.937 68.9162 128.778 68.9162C129.612 68.9162 130.363 69.107 131.031 69.4886C131.701 69.8672 132.231 70.4181 132.619 71.1413C133.009 71.8646 133.205 72.7417 133.205 73.7727ZM131.178 73.7727C131.178 73.1049 131.078 72.5417 130.878 72.0831C130.681 71.6245 130.403 71.2768 130.043 71.0398C129.682 70.8028 129.261 70.6843 128.778 70.6843C128.294 70.6843 127.873 70.8028 127.513 71.0398C127.153 71.2768 126.873 71.6245 126.673 72.0831C126.476 72.5417 126.377 73.1049 126.377 73.7727C126.377 74.4406 126.476 75.0038 126.673 75.4624C126.873 75.9209 127.153 76.2687 127.513 76.5057C127.873 76.7427 128.294 76.8612 128.778 76.8612C129.261 76.8612 129.682 76.7427 130.043 76.5057C130.403 76.2687 130.681 75.9209 130.878 75.4624C131.078 75.0038 131.178 74.4406 131.178 73.7727ZM141.415 71.7646C141.378 71.3922 141.219 71.1029 140.939 70.8967C140.659 70.6905 140.279 70.5874 139.799 70.5874C139.473 70.5874 139.197 70.6335 138.972 70.7259C138.748 70.8151 138.575 70.9397 138.455 71.0998C138.338 71.2598 138.28 71.4414 138.28 71.6445C138.274 71.8138 138.309 71.9615 138.386 72.0877C138.466 72.2139 138.575 72.3232 138.714 72.4155C138.852 72.5047 139.012 72.5832 139.194 72.6509C139.376 72.7156 139.569 72.771 139.776 72.8171L140.625 73.0202C141.037 73.1126 141.416 73.2357 141.761 73.3896C142.105 73.5434 142.404 73.7327 142.656 73.9574C142.909 74.1821 143.104 74.4467 143.243 74.7514C143.384 75.0561 143.457 75.4054 143.46 75.7994C143.457 76.378 143.309 76.8796 143.016 77.3043C142.727 77.726 142.309 78.0537 141.761 78.2876C141.216 78.5185 140.559 78.6339 139.79 78.6339C139.026 78.6339 138.361 78.5169 137.795 78.283C137.232 78.0491 136.792 77.7029 136.475 77.2443C136.161 76.7827 135.996 76.2118 135.981 75.5316H137.915C137.937 75.8486 138.028 76.1133 138.188 76.3256C138.351 76.5349 138.568 76.6934 138.839 76.8011C139.112 76.9058 139.422 76.9581 139.766 76.9581C140.105 76.9581 140.399 76.9089 140.648 76.8104C140.901 76.7119 141.096 76.5749 141.234 76.3995C141.373 76.2241 141.442 76.0225 141.442 75.7947C141.442 75.5824 141.379 75.4039 141.253 75.2592C141.13 75.1146 140.948 74.9915 140.708 74.8899C140.471 74.7884 140.18 74.696 139.836 74.6129L138.806 74.3544C138.009 74.1605 137.38 73.8574 136.918 73.445C136.456 73.0326 136.227 72.477 136.23 71.7784C136.227 71.206 136.379 70.7058 136.687 70.2781C136.998 69.8503 137.424 69.5163 137.966 69.2763C138.508 69.0362 139.123 68.9162 139.813 68.9162C140.514 68.9162 141.127 69.0362 141.65 69.2763C142.176 69.5163 142.586 69.8503 142.878 70.2781C143.17 70.7058 143.321 71.2013 143.33 71.7646H141.415Z" fill="black"/>
<path d="M180 93.5H0V99.5H180V93.5Z" fill="#E61A55" mask="url(#path-1-inside-1_89_1385)"/>
</svg>
