<svg width="227" height="65" viewBox="0 0 227 65" fill="none" xmlns="http://www.w3.org/2000/svg">
<path d="M13.05 39.7917H10.2167V29.5833H13.05V39.7917ZM18.7167 39.7917H15.8834V25.2083H18.7167V39.7917ZM24.3834 39.7917H21.55V33.9583H24.3834V39.7917ZM27.2167 42.7083H7.38338V22.2917H27.2167V42.8542M27.2167 19.375H7.38338C5.82505 19.375 4.55005 20.6875 4.55005 22.2917V42.7083C4.55005 44.3125 5.82505 45.625 7.38338 45.625H27.2167C28.775 45.625 30.05 44.3125 30.05 42.7083V22.2917C30.05 20.6875 28.775 19.375 27.2167 19.375Z" fill="#353535"/>
<path d="M46.4733 29.1293C45.864 29.1293 45.3208 29.0246 44.8437 28.8153C44.3698 28.6061 43.9928 28.3152 43.7127 27.9428C43.4357 27.5674 43.2849 27.1319 43.2603 26.6364H44.4236C44.4482 26.9411 44.5529 27.2042 44.7375 27.4258C44.9222 27.6443 45.1638 27.8136 45.4623 27.9336C45.7609 28.0536 46.0917 28.1136 46.4549 28.1136C46.8611 28.1136 47.2212 28.0429 47.5351 27.9013C47.8491 27.7597 48.0953 27.5627 48.2738 27.3104C48.4523 27.058 48.5415 26.7656 48.5415 26.4332C48.5415 26.0855 48.4554 25.7792 48.283 25.5146C48.1107 25.2468 47.8583 25.0375 47.5259 24.8867C47.1935 24.7359 46.7873 24.6605 46.3072 24.6605H45.55V23.6449H46.3072C46.6826 23.6449 47.0119 23.5772 47.2951 23.4418C47.5813 23.3063 47.8044 23.1155 47.9645 22.8693C48.1276 22.6231 48.2091 22.3338 48.2091 22.0014C48.2091 21.6813 48.1384 21.4028 47.9968 21.1658C47.8552 20.9289 47.6552 20.7442 47.3966 20.6119C47.1412 20.4795 46.8396 20.4134 46.4918 20.4134C46.1656 20.4134 45.8578 20.4734 45.5685 20.5934C45.2823 20.7103 45.0484 20.8812 44.8668 21.1058C44.6852 21.3274 44.5867 21.5952 44.5714 21.9091H43.4634C43.4819 21.4136 43.6311 20.9796 43.9112 20.6072C44.1913 20.2318 44.5575 19.9394 45.0099 19.7301C45.4654 19.5208 45.9655 19.4162 46.5103 19.4162C47.095 19.4162 47.5967 19.5347 48.0152 19.7717C48.4338 20.0056 48.7554 20.3149 48.9801 20.6996C49.2048 21.0843 49.3171 21.4998 49.3171 21.946C49.3171 22.4785 49.1771 22.9324 48.897 23.3079C48.62 23.6834 48.243 23.9434 47.766 24.0881V24.1619C48.363 24.2604 48.8293 24.5143 49.1648 24.9237C49.5002 25.3299 49.6679 25.8331 49.6679 26.4332C49.6679 26.9472 49.5279 27.4089 49.2478 27.8182C48.9709 28.2244 48.5923 28.5445 48.1122 28.7784C47.6321 29.0123 47.0858 29.1293 46.4733 29.1293ZM56.2399 29.1293C55.5443 29.1293 54.9519 28.94 54.4625 28.5614C53.9732 28.1798 53.5993 27.6274 53.3407 26.9041C53.0822 26.1778 52.953 25.3007 52.953 24.2727C52.953 23.2509 53.0822 22.3784 53.3407 21.6552C53.6023 20.9289 53.9778 20.3749 54.4672 19.9933C54.9596 19.6085 55.5505 19.4162 56.2399 19.4162C56.9293 19.4162 57.5187 19.6085 58.008 19.9933C58.5004 20.3749 58.8759 20.9289 59.1344 21.6552C59.396 22.3784 59.5268 23.2509 59.5268 24.2727C59.5268 25.3007 59.3976 26.1778 59.139 26.9041C58.8805 27.6274 58.5066 28.1798 58.0172 28.5614C57.5279 28.94 56.9354 29.1293 56.2399 29.1293ZM56.2399 28.1136C56.9293 28.1136 57.4648 27.7812 57.8464 27.1165C58.2281 26.4517 58.4189 25.5038 58.4189 24.2727C58.4189 23.4541 58.3312 22.757 58.1557 22.1815C57.9834 21.6059 57.7341 21.1674 57.4079 20.8658C57.0847 20.5642 56.6954 20.4134 56.2399 20.4134C55.5567 20.4134 55.0227 20.7504 54.638 21.4244C54.2533 22.0953 54.0609 23.0447 54.0609 24.2727C54.0609 25.0914 54.1471 25.7869 54.3194 26.3594C54.4918 26.9318 54.7395 27.3673 55.0627 27.6658C55.3889 27.9644 55.7813 28.1136 56.2399 28.1136ZM65.9649 29.1293C65.2693 29.1293 64.6769 28.94 64.1875 28.5614C63.6982 28.1798 63.3243 27.6274 63.0657 26.9041C62.8072 26.1778 62.678 25.3007 62.678 24.2727C62.678 23.2509 62.8072 22.3784 63.0657 21.6552C63.3273 20.9289 63.7028 20.3749 64.1922 19.9933C64.6846 19.6085 65.2755 19.4162 65.9649 19.4162C66.6543 19.4162 67.2437 19.6085 67.733 19.9933C68.2254 20.3749 68.6009 20.9289 68.8594 21.6552C69.121 22.3784 69.2518 23.2509 69.2518 24.2727C69.2518 25.3007 69.1226 26.1778 68.864 26.9041C68.6055 27.6274 68.2316 28.1798 67.7422 28.5614C67.2529 28.94 66.6604 29.1293 65.9649 29.1293ZM65.9649 28.1136C66.6543 28.1136 67.1898 27.7812 67.5714 27.1165C67.9531 26.4517 68.1439 25.5038 68.1439 24.2727C68.1439 23.4541 68.0562 22.757 67.8807 22.1815C67.7084 21.6059 67.4591 21.1674 67.1329 20.8658C66.8097 20.5642 66.4204 20.4134 65.9649 20.4134C65.2817 20.4134 64.7477 20.7504 64.363 21.4244C63.9783 22.0953 63.7859 23.0447 63.7859 24.2727C63.7859 25.0914 63.8721 25.7869 64.0444 26.3594C64.2168 26.9318 64.4645 27.3673 64.7877 27.6658C65.1139 27.9644 65.5063 28.1136 65.9649 28.1136ZM75.6899 29.1293C74.9943 29.1293 74.4019 28.94 73.9125 28.5614C73.4232 28.1798 73.0493 27.6274 72.7907 26.9041C72.5322 26.1778 72.403 25.3007 72.403 24.2727C72.403 23.2509 72.5322 22.3784 72.7907 21.6552C73.0523 20.9289 73.4278 20.3749 73.9172 19.9933C74.4096 19.6085 75.0005 19.4162 75.6899 19.4162C76.3793 19.4162 76.9687 19.6085 77.458 19.9933C77.9504 20.3749 78.3259 20.9289 78.5844 21.6552C78.846 22.3784 78.9768 23.2509 78.9768 24.2727C78.9768 25.3007 78.8476 26.1778 78.589 26.9041C78.3305 27.6274 77.9566 28.1798 77.4672 28.5614C76.9779 28.94 76.3854 29.1293 75.6899 29.1293ZM75.6899 28.1136C76.3793 28.1136 76.9148 27.7812 77.2964 27.1165C77.6781 26.4517 77.8689 25.5038 77.8689 24.2727C77.8689 23.4541 77.7812 22.757 77.6057 22.1815C77.4334 21.6059 77.1841 21.1674 76.8579 20.8658C76.5347 20.5642 76.1454 20.4134 75.6899 20.4134C75.0067 20.4134 74.4727 20.7504 74.088 21.4244C73.7033 22.0953 73.5109 23.0447 73.5109 24.2727C73.5109 25.0914 73.5971 25.7869 73.7694 26.3594C73.9418 26.9318 74.1895 27.3673 74.5127 27.6658C74.8389 27.9644 75.2313 28.1136 75.6899 28.1136ZM82.8135 29.0739C82.5858 29.0739 82.3903 28.9923 82.2272 28.8292C82.0641 28.6661 81.9825 28.4706 81.9825 28.2429C81.9825 28.0152 82.0641 27.8197 82.2272 27.6566C82.3903 27.4935 82.5858 27.4119 82.8135 27.4119C83.0413 27.4119 83.2367 27.4935 83.3998 27.6566C83.5629 27.8197 83.6445 28.0152 83.6445 28.2429C83.6445 28.3937 83.606 28.5322 83.5291 28.6584C83.4552 28.7846 83.3552 28.8861 83.229 28.9631C83.1059 29.0369 82.9674 29.0739 82.8135 29.0739ZM92.6035 29V19.5455H98.2726V20.5611H93.7484V23.7557H97.8478V24.7713H93.7484V29H92.6035ZM104.046 29.1477C103.406 29.1477 102.844 28.9954 102.361 28.6907C101.881 28.386 101.505 27.9598 101.234 27.4119C100.967 26.8641 100.833 26.224 100.833 25.4915C100.833 24.7528 100.967 24.1081 101.234 23.5572C101.505 23.0063 101.881 22.5785 102.361 22.2738C102.844 21.9691 103.406 21.8168 104.046 21.8168C104.686 21.8168 105.246 21.9691 105.726 22.2738C106.209 22.5785 106.585 23.0063 106.853 23.5572C107.124 24.1081 107.259 24.7528 107.259 25.4915C107.259 26.224 107.124 26.8641 106.853 27.4119C106.585 27.9598 106.209 28.386 105.726 28.6907C105.246 28.9954 104.686 29.1477 104.046 29.1477ZM104.046 28.169C104.532 28.169 104.932 28.0444 105.246 27.7951C105.56 27.5458 105.792 27.218 105.943 26.8118C106.094 26.4055 106.169 25.9654 106.169 25.4915C106.169 25.0175 106.094 24.5759 105.943 24.1665C105.792 23.7572 105.56 23.4264 105.246 23.174C104.932 22.9216 104.532 22.7955 104.046 22.7955C103.56 22.7955 103.159 22.9216 102.846 23.174C102.532 23.4264 102.299 23.7572 102.148 24.1665C101.998 24.5759 101.922 25.0175 101.922 25.4915C101.922 25.9654 101.998 26.4055 102.148 26.8118C102.299 27.218 102.532 27.5458 102.846 27.7951C103.159 28.0444 103.56 28.169 104.046 28.169ZM110.522 29V21.9091H111.575V22.9801H111.648C111.778 22.6293 112.012 22.3446 112.35 22.1261C112.689 21.9076 113.07 21.7983 113.495 21.7983C113.575 21.7983 113.675 21.7998 113.795 21.8029C113.915 21.806 114.006 21.8106 114.067 21.8168V22.9247C114.031 22.9155 113.946 22.9016 113.814 22.8832C113.684 22.8616 113.547 22.8509 113.403 22.8509C113.058 22.8509 112.75 22.9232 112.479 23.0678C112.212 23.2094 111.999 23.4064 111.842 23.6587C111.688 23.908 111.612 24.1927 111.612 24.5128V29H110.522ZM116.959 29V21.9091H118.011V23.017H118.104C118.252 22.6385 118.49 22.3446 118.819 22.1353C119.149 21.9229 119.544 21.8168 120.006 21.8168C120.474 21.8168 120.863 21.9229 121.174 22.1353C121.488 22.3446 121.732 22.6385 121.908 23.017H121.982C122.163 22.6508 122.436 22.36 122.799 22.1445C123.162 21.926 123.597 21.8168 124.105 21.8168C124.739 21.8168 125.258 22.0153 125.661 22.4123C126.064 22.8062 126.266 23.4202 126.266 24.2543V29H125.176V24.2543C125.176 23.7311 125.033 23.3571 124.747 23.1325C124.461 22.9078 124.124 22.7955 123.736 22.7955C123.237 22.7955 122.851 22.9463 122.577 23.2479C122.303 23.5464 122.166 23.925 122.166 24.3835V29H121.058V24.1435C121.058 23.7403 120.928 23.4156 120.666 23.1694C120.404 22.9201 120.067 22.7955 119.655 22.7955C119.372 22.7955 119.107 22.8709 118.861 23.0217C118.618 23.1725 118.421 23.3817 118.27 23.6495C118.122 23.9142 118.048 24.2204 118.048 24.5682V29H116.959ZM131.944 29.1662C131.495 29.1662 131.087 29.0816 130.721 28.9123C130.355 28.7399 130.064 28.4922 129.849 28.169C129.633 27.8428 129.525 27.4489 129.525 26.9872C129.525 26.581 129.605 26.2517 129.765 25.9993C129.925 25.7438 130.139 25.5438 130.407 25.3991C130.675 25.2545 130.97 25.1468 131.293 25.076C131.62 25.0021 131.947 24.9437 132.277 24.9006C132.708 24.8452 133.057 24.8036 133.325 24.7759C133.596 24.7451 133.793 24.6944 133.916 24.6236C134.042 24.5528 134.105 24.4297 134.105 24.2543V24.2173C134.105 23.7618 133.98 23.4079 133.731 23.1555C133.485 22.9032 133.111 22.777 132.609 22.777C132.089 22.777 131.681 22.8909 131.386 23.1186C131.09 23.3464 130.883 23.5895 130.763 23.848L129.728 23.4787C129.913 23.0478 130.159 22.7124 130.467 22.4723C130.778 22.2292 131.117 22.0599 131.483 21.9645C131.852 21.866 132.215 21.8168 132.572 21.8168C132.8 21.8168 133.062 21.8445 133.357 21.8999C133.656 21.9522 133.943 22.0614 134.22 22.2276C134.5 22.3938 134.733 22.6446 134.917 22.9801C135.102 23.3156 135.194 23.7649 135.194 24.3281V29H134.105V28.0398H134.05C133.976 28.1937 133.853 28.3583 133.68 28.5337C133.508 28.7092 133.279 28.8584 132.992 28.9815C132.706 29.1046 132.357 29.1662 131.944 29.1662ZM132.111 28.1875C132.541 28.1875 132.905 28.1029 133.2 27.9336C133.499 27.7643 133.723 27.5458 133.874 27.2781C134.028 27.0103 134.105 26.7287 134.105 26.4332V25.4361C134.059 25.4915 133.957 25.5423 133.8 25.5884C133.646 25.6315 133.468 25.67 133.265 25.7038C133.065 25.7346 132.869 25.7623 132.678 25.7869C132.491 25.8085 132.338 25.8269 132.221 25.8423C131.938 25.8793 131.674 25.9393 131.427 26.0224C131.184 26.1024 130.987 26.224 130.836 26.3871C130.689 26.5471 130.615 26.7656 130.615 27.0426C130.615 27.4212 130.755 27.7074 131.035 27.9013C131.318 28.0921 131.677 28.1875 132.111 28.1875ZM141.664 29.1477C140.999 29.1477 140.426 28.9908 139.946 28.6768C139.466 28.3629 139.097 27.9305 138.838 27.3796C138.58 26.8287 138.451 26.1993 138.451 25.4915C138.451 24.7713 138.583 24.1358 138.848 23.5849C139.115 23.0309 139.488 22.5985 139.965 22.2876C140.445 21.9737 141.005 21.8168 141.645 21.8168C142.144 21.8168 142.593 21.9091 142.993 22.0938C143.393 22.2784 143.721 22.5369 143.976 22.8693C144.232 23.2017 144.39 23.5895 144.452 24.0327H143.362C143.279 23.7095 143.095 23.4233 142.809 23.174C142.525 22.9216 142.144 22.7955 141.664 22.7955C141.239 22.7955 140.867 22.9062 140.546 23.1278C140.229 23.3464 139.982 23.6557 139.803 24.0558C139.628 24.4528 139.54 24.919 139.54 25.4545C139.54 26.0024 139.626 26.4794 139.799 26.8857C139.974 27.2919 140.22 27.6074 140.537 27.832C140.857 28.0567 141.233 28.169 141.664 28.169C141.947 28.169 142.204 28.1198 142.435 28.0213C142.665 27.9228 142.861 27.7812 143.021 27.5966C143.181 27.4119 143.295 27.1903 143.362 26.9318H144.452C144.39 27.3504 144.238 27.7274 143.995 28.0629C143.755 28.3952 143.436 28.6599 143.039 28.8569C142.645 29.0508 142.187 29.1477 141.664 29.1477ZM147.645 29V21.9091H148.734V29H147.645ZM148.199 20.7273C147.986 20.7273 147.803 20.6549 147.649 20.5103C147.498 20.3656 147.423 20.1918 147.423 19.9886C147.423 19.7855 147.498 19.6116 147.649 19.467C147.803 19.3223 147.986 19.25 148.199 19.25C148.411 19.25 148.593 19.3223 148.743 19.467C148.897 19.6116 148.974 19.7855 148.974 19.9886C148.974 20.1918 148.897 20.3656 148.743 20.5103C148.593 20.6549 148.411 20.7273 148.199 20.7273ZM155.21 29.1477C154.57 29.1477 154.008 28.9954 153.525 28.6907C153.045 28.386 152.67 27.9598 152.399 27.4119C152.131 26.8641 151.997 26.224 151.997 25.4915C151.997 24.7528 152.131 24.1081 152.399 23.5572C152.67 23.0063 153.045 22.5785 153.525 22.2738C154.008 21.9691 154.57 21.8168 155.21 21.8168C155.85 21.8168 156.411 21.9691 156.891 22.2738C157.374 22.5785 157.749 23.0063 158.017 23.5572C158.288 24.1081 158.423 24.7528 158.423 25.4915C158.423 26.224 158.288 26.8641 158.017 27.4119C157.749 27.9598 157.374 28.386 156.891 28.6907C156.411 28.9954 155.85 29.1477 155.21 29.1477ZM155.21 28.169C155.697 28.169 156.097 28.0444 156.411 27.7951C156.725 27.5458 156.957 27.218 157.108 26.8118C157.258 26.4055 157.334 25.9654 157.334 25.4915C157.334 25.0175 157.258 24.5759 157.108 24.1665C156.957 23.7572 156.725 23.4264 156.411 23.174C156.097 22.9216 155.697 22.7955 155.21 22.7955C154.724 22.7955 154.324 22.9216 154.01 23.174C153.696 23.4264 153.464 23.7572 153.313 24.1665C153.162 24.5759 153.087 25.0175 153.087 25.4915C153.087 25.9654 153.162 26.4055 153.313 26.8118C153.464 27.218 153.696 27.5458 154.01 27.7951C154.324 28.0444 154.724 28.169 155.21 28.169ZM154.712 20.9489L155.838 18.8068H157.112L155.672 20.9489H154.712ZM162.776 24.7344V29H161.686V21.9091H162.739V23.017H162.831C162.998 22.657 163.25 22.3677 163.588 22.1491C163.927 21.9276 164.364 21.8168 164.9 21.8168C165.38 21.8168 165.8 21.9152 166.16 22.1122C166.52 22.3061 166.8 22.6016 167 22.9986C167.2 23.3925 167.3 23.8911 167.3 24.4943V29H166.211V24.5682C166.211 24.0111 166.066 23.5772 165.777 23.2663C165.487 22.9524 165.09 22.7955 164.586 22.7955C164.238 22.7955 163.927 22.8709 163.653 23.0217C163.382 23.1725 163.168 23.3925 163.011 23.6818C162.854 23.9711 162.776 24.322 162.776 24.7344ZM174.233 19.1023L171.186 30.4219H170.189L173.236 19.1023H174.233ZM44.5898 35.5455V45H43.4449V35.5455H44.5898ZM49.4271 40.7344V45H48.3376V37.9091H49.3902V39.017H49.4825C49.6487 38.657 49.9011 38.3677 50.2396 38.1491C50.5782 37.9276 51.0152 37.8168 51.5507 37.8168C52.0308 37.8168 52.4509 37.9152 52.811 38.1122C53.1711 38.3061 53.4512 38.6016 53.6512 38.9986C53.8513 39.3925 53.9513 39.8911 53.9513 40.4943V45H52.8618V40.5682C52.8618 40.0111 52.7171 39.5772 52.4278 39.2663C52.1385 38.9524 51.7415 38.7955 51.2368 38.7955C50.889 38.7955 50.5782 38.8709 50.3043 39.0217C50.0334 39.1725 49.8195 39.3925 49.6626 39.6818C49.5056 39.9711 49.4271 40.322 49.4271 40.7344ZM62.5649 39.4972L61.5862 39.7741C61.5246 39.611 61.4338 39.4525 61.3138 39.2987C61.1968 39.1417 61.0368 39.0124 60.8337 38.9109C60.6306 38.8093 60.3705 38.7585 60.0535 38.7585C59.6195 38.7585 59.2579 38.8585 58.9686 39.0586C58.6824 39.2556 58.5393 39.5064 58.5393 39.8111C58.5393 40.0819 58.6378 40.2958 58.8347 40.4528C59.0317 40.6097 59.3395 40.7405 59.758 40.8452L60.8106 41.1037C61.4446 41.2576 61.917 41.493 62.2279 41.81C62.5387 42.1239 62.6941 42.5286 62.6941 43.0241C62.6941 43.4304 62.5772 43.7936 62.3433 44.1136C62.1124 44.4337 61.7893 44.6861 61.3738 44.8707C60.9583 45.0554 60.4751 45.1477 59.9242 45.1477C59.201 45.1477 58.6024 44.9908 58.1284 44.6768C57.6545 44.3629 57.3544 43.9044 57.2282 43.3011L58.2623 43.0426C58.3608 43.4242 58.547 43.7105 58.8209 43.9013C59.0979 44.0921 59.4595 44.1875 59.9058 44.1875C60.4136 44.1875 60.8168 44.0798 61.1153 43.8643C61.4169 43.6458 61.5677 43.3842 61.5677 43.0795C61.5677 42.8333 61.4815 42.6271 61.3092 42.4609C61.1368 42.2917 60.8721 42.1655 60.5151 42.0824L59.3333 41.8054C58.6839 41.6515 58.2069 41.413 57.9022 41.0898C57.6006 40.7636 57.4498 40.3558 57.4498 39.8665C57.4498 39.4664 57.5621 39.1125 57.7868 38.8047C58.0145 38.4969 58.3239 38.2553 58.7147 38.0799C59.1087 37.9045 59.5549 37.8168 60.0535 37.8168C60.7552 37.8168 61.3061 37.9706 61.7062 38.2784C62.1094 38.5862 62.3956 38.9924 62.5649 39.4972ZM69.0179 37.9091V38.8324H65.3432V37.9091H69.0179ZM66.4142 36.2102H67.5037V42.9688C67.5037 43.2765 67.5483 43.5073 67.6376 43.6612C67.7299 43.812 67.8469 43.9136 67.9885 43.9659C68.1331 44.0152 68.2854 44.0398 68.4455 44.0398C68.5655 44.0398 68.664 44.0336 68.7409 44.0213C68.8179 44.0059 68.8794 43.9936 68.9256 43.9844L69.1472 44.9631C69.0733 44.9908 68.9702 45.0185 68.8379 45.0462C68.7055 45.0769 68.5378 45.0923 68.3347 45.0923C68.0269 45.0923 67.7253 45.0262 67.4299 44.8938C67.1375 44.7615 66.8943 44.5599 66.7005 44.2891C66.5096 44.0182 66.4142 43.6766 66.4142 43.2642V36.2102ZM72.2568 45V37.9091H73.3093V38.9801H73.3832C73.5125 38.6293 73.7464 38.3446 74.0849 38.1261C74.4234 37.9076 74.8051 37.7983 75.2298 37.7983C75.3098 37.7983 75.4098 37.7998 75.5299 37.8029C75.6499 37.806 75.7407 37.8106 75.8022 37.8168V38.9247C75.7653 38.9155 75.6807 38.9016 75.5483 38.8832C75.4191 38.8616 75.2821 38.8509 75.1375 38.8509C74.7928 38.8509 74.485 38.9232 74.2142 39.0678C73.9464 39.2094 73.7341 39.4064 73.5771 39.6587C73.4232 39.908 73.3463 40.1927 73.3463 40.5128V45H72.2568ZM83.1624 42.1009V37.9091H84.2519V45H83.1624V43.7997H83.0886C82.9224 44.1598 82.6639 44.466 82.313 44.7184C81.9622 44.9677 81.519 45.0923 80.9835 45.0923C80.5403 45.0923 80.1463 44.9954 79.8016 44.8015C79.4569 44.6045 79.1861 44.3091 78.9891 43.9151C78.7922 43.5181 78.6937 43.018 78.6937 42.4148V37.9091H79.7832V42.3409C79.7832 42.858 79.9278 43.2704 80.2171 43.5781C80.5095 43.8859 80.8819 44.0398 81.3343 44.0398C81.6052 44.0398 81.8806 43.9705 82.1607 43.832C82.4438 43.6935 82.6808 43.4812 82.8716 43.195C83.0655 42.9087 83.1624 42.544 83.1624 42.1009ZM90.7281 45.1477C90.0633 45.1477 89.4909 44.9908 89.0108 44.6768C88.5306 44.3629 88.1613 43.9305 87.9028 43.3796C87.6443 42.8287 87.515 42.1993 87.515 41.4915C87.515 40.7713 87.6474 40.1358 87.912 39.5849C88.1798 39.0309 88.5522 38.5985 89.0292 38.2876C89.5093 37.9737 90.0695 37.8168 90.7096 37.8168C91.2082 37.8168 91.6575 37.9091 92.0576 38.0938C92.4577 38.2784 92.7855 38.5369 93.0409 38.8693C93.2964 39.2017 93.4549 39.5895 93.5164 40.0327H92.4269C92.3439 39.7095 92.1592 39.4233 91.873 39.174C91.5898 38.9216 91.2082 38.7955 90.7281 38.7955C90.3034 38.7955 89.931 38.9062 89.6109 39.1278C89.2939 39.3464 89.0461 39.6557 88.8676 40.0558C88.6922 40.4528 88.6045 40.919 88.6045 41.4545C88.6045 42.0024 88.6907 42.4794 88.863 42.8857C89.0385 43.2919 89.2847 43.6074 89.6017 43.832C89.9217 44.0567 90.2972 44.169 90.7281 44.169C91.0112 44.169 91.2682 44.1198 91.499 44.0213C91.7299 43.9228 91.9253 43.7812 92.0853 43.5966C92.2454 43.4119 92.3592 43.1903 92.4269 42.9318H93.5164C93.4549 43.3504 93.3025 43.7274 93.0594 44.0629C92.8193 44.3952 92.5008 44.6599 92.1038 44.8569C91.7099 45.0508 91.2513 45.1477 90.7281 45.1477ZM99.5898 45.1477C98.925 45.1477 98.3526 44.9908 97.8725 44.6768C97.3924 44.3629 97.023 43.9305 96.7645 43.3796C96.506 42.8287 96.3767 42.1993 96.3767 41.4915C96.3767 40.7713 96.5091 40.1358 96.7738 39.5849C97.0415 39.0309 97.4139 38.5985 97.8909 38.2876C98.3711 37.9737 98.9312 37.8168 99.5713 37.8168C100.07 37.8168 100.519 37.9091 100.919 38.0938C101.319 38.2784 101.647 38.5369 101.903 38.8693C102.158 39.2017 102.317 39.5895 102.378 40.0327H101.289C101.206 39.7095 101.021 39.4233 100.735 39.174C100.452 38.9216 100.07 38.7955 99.5898 38.7955C99.1651 38.7955 98.7927 38.9062 98.4726 39.1278C98.1556 39.3464 97.9079 39.6557 97.7294 40.0558C97.5539 40.4528 97.4662 40.919 97.4662 41.4545C97.4662 42.0024 97.5524 42.4794 97.7247 42.8857C97.9002 43.2919 98.1464 43.6074 98.4634 43.832C98.7835 44.0567 99.1589 44.169 99.5898 44.169C99.8729 44.169 100.13 44.1198 100.361 44.0213C100.592 43.9228 100.787 43.7812 100.947 43.5966C101.107 43.4119 101.221 43.1903 101.289 42.9318H102.378C102.317 43.3504 102.164 43.7274 101.921 44.0629C101.681 44.3952 101.363 44.6599 100.966 44.8569C100.572 45.0508 100.113 45.1477 99.5898 45.1477ZM105.571 45V37.9091H106.66V45H105.571ZM106.125 36.7273C105.912 36.7273 105.729 36.6549 105.575 36.5103C105.425 36.3656 105.349 36.1918 105.349 35.9886C105.349 35.7855 105.425 35.6116 105.575 35.467C105.729 35.3223 105.912 35.25 106.125 35.25C106.337 35.25 106.519 35.3223 106.67 35.467C106.823 35.6116 106.9 35.7855 106.9 35.9886C106.9 36.1918 106.823 36.3656 106.67 36.5103C106.519 36.6549 106.337 36.7273 106.125 36.7273ZM113.136 45.1477C112.496 45.1477 111.935 44.9954 111.451 44.6907C110.971 44.386 110.596 43.9598 110.325 43.4119C110.057 42.8641 109.923 42.224 109.923 41.4915C109.923 40.7528 110.057 40.1081 110.325 39.5572C110.596 39.0063 110.971 38.5785 111.451 38.2738C111.935 37.9691 112.496 37.8168 113.136 37.8168C113.777 37.8168 114.337 37.9691 114.817 38.2738C115.3 38.5785 115.676 39.0063 115.943 39.5572C116.214 40.1081 116.35 40.7528 116.35 41.4915C116.35 42.224 116.214 42.8641 115.943 43.4119C115.676 43.9598 115.3 44.386 114.817 44.6907C114.337 44.9954 113.777 45.1477 113.136 45.1477ZM113.136 44.169C113.623 44.169 114.023 44.0444 114.337 43.7951C114.651 43.5458 114.883 43.218 115.034 42.8118C115.185 42.4055 115.26 41.9654 115.26 41.4915C115.26 41.0175 115.185 40.5759 115.034 40.1665C114.883 39.7572 114.651 39.4264 114.337 39.174C114.023 38.9216 113.623 38.7955 113.136 38.7955C112.65 38.7955 112.25 38.9216 111.936 39.174C111.622 39.4264 111.39 39.7572 111.239 40.1665C111.088 40.5759 111.013 41.0175 111.013 41.4915C111.013 41.9654 111.088 42.4055 111.239 42.8118C111.39 43.218 111.622 43.5458 111.936 43.7951C112.25 44.0444 112.65 44.169 113.136 44.169ZM112.638 36.9489L113.764 34.8068H115.038L113.598 36.9489H112.638ZM120.702 40.7344V45H119.613V37.9091H120.665V39.017H120.758C120.924 38.657 121.176 38.3677 121.515 38.1491C121.853 37.9276 122.29 37.8168 122.826 37.8168C123.306 37.8168 123.726 37.9152 124.086 38.1122C124.446 38.3061 124.726 38.6016 124.926 38.9986C125.126 39.3925 125.226 39.8911 125.226 40.4943V45H124.137V40.5682C124.137 40.0111 123.992 39.5772 123.703 39.2663C123.414 38.9524 123.017 38.7955 122.512 38.7955C122.164 38.7955 121.853 38.8709 121.579 39.0217C121.308 39.1725 121.095 39.3925 120.938 39.6818C120.781 39.9711 120.702 40.322 120.702 40.7344ZM132.159 35.1023L129.113 46.4219H128.115L131.162 35.1023H132.159ZM135.199 45V35.5455H140.905V36.5611H136.344V39.7557H140.609V40.7713H136.344V43.9844H140.978V45H135.199ZM150.219 37.9091L147.597 45H146.489L143.866 37.9091H145.048L147.006 43.5597H147.08L149.037 37.9091H150.219ZM155.128 45.1662C154.678 45.1662 154.27 45.0816 153.904 44.9123C153.538 44.7399 153.247 44.4922 153.032 44.169C152.816 43.8428 152.709 43.4489 152.709 42.9872C152.709 42.581 152.789 42.2517 152.949 41.9993C153.109 41.7438 153.323 41.5438 153.59 41.3991C153.858 41.2545 154.154 41.1468 154.477 41.076C154.803 41.0021 155.131 40.9437 155.46 40.9006C155.891 40.8452 156.24 40.8036 156.508 40.7759C156.779 40.7451 156.976 40.6944 157.099 40.6236C157.225 40.5528 157.288 40.4297 157.288 40.2543V40.2173C157.288 39.7618 157.163 39.4079 156.914 39.1555C156.668 38.9032 156.294 38.777 155.792 38.777C155.272 38.777 154.864 38.8909 154.569 39.1186C154.274 39.3464 154.066 39.5895 153.946 39.848L152.912 39.4787C153.096 39.0478 153.343 38.7124 153.65 38.4723C153.961 38.2292 154.3 38.0599 154.666 37.9645C155.035 37.866 155.398 37.8168 155.755 37.8168C155.983 37.8168 156.245 37.8445 156.54 37.8999C156.839 37.9522 157.127 38.0614 157.404 38.2276C157.684 38.3938 157.916 38.6446 158.101 38.9801C158.285 39.3156 158.378 39.7649 158.378 40.3281V45H157.288V44.0398H157.233C157.159 44.1937 157.036 44.3583 156.863 44.5337C156.691 44.7092 156.462 44.8584 156.176 44.9815C155.889 45.1046 155.54 45.1662 155.128 45.1662ZM155.294 44.1875C155.725 44.1875 156.088 44.1029 156.383 43.9336C156.682 43.7643 156.906 43.5458 157.057 43.2781C157.211 43.0103 157.288 42.7287 157.288 42.4332V41.4361C157.242 41.4915 157.14 41.5423 156.983 41.5884C156.83 41.6315 156.651 41.67 156.448 41.7038C156.248 41.7346 156.052 41.7623 155.862 41.7869C155.674 41.8085 155.522 41.8269 155.405 41.8423C155.121 41.8793 154.857 41.9393 154.611 42.0224C154.367 42.1024 154.17 42.224 154.02 42.3871C153.872 42.5471 153.798 42.7656 153.798 43.0426C153.798 43.4212 153.938 43.7074 154.218 43.9013C154.501 44.0921 154.86 44.1875 155.294 44.1875ZM163.056 35.5455V45H161.966V35.5455H163.056ZM171.12 42.1009V37.9091H172.209V45H171.12V43.7997H171.046C170.88 44.1598 170.621 44.466 170.27 44.7184C169.92 44.9677 169.476 45.0923 168.941 45.0923C168.498 45.0923 168.104 44.9954 167.759 44.8015C167.414 44.6045 167.144 44.3091 166.947 43.9151C166.75 43.5181 166.651 43.018 166.651 42.4148V37.9091H167.741V42.3409C167.741 42.858 167.885 43.2704 168.175 43.5781C168.467 43.8859 168.839 44.0398 169.292 44.0398C169.563 44.0398 169.838 43.9705 170.118 43.832C170.401 43.6935 170.638 43.4812 170.829 43.195C171.023 42.9087 171.12 42.544 171.12 42.1009ZM177.891 45.1662C177.442 45.1662 177.034 45.0816 176.668 44.9123C176.302 44.7399 176.011 44.4922 175.796 44.169C175.58 43.8428 175.472 43.4489 175.472 42.9872C175.472 42.581 175.552 42.2517 175.712 41.9993C175.873 41.7438 176.086 41.5438 176.354 41.3991C176.622 41.2545 176.917 41.1468 177.241 41.076C177.567 41.0021 177.895 40.9437 178.224 40.9006C178.655 40.8452 179.004 40.8036 179.272 40.7759C179.543 40.7451 179.74 40.6944 179.863 40.6236C179.989 40.5528 180.052 40.4297 180.052 40.2543V40.2173C180.052 39.7618 179.927 39.4079 179.678 39.1555C179.432 38.9032 179.058 38.777 178.556 38.777C178.036 38.777 177.628 38.8909 177.333 39.1186C177.037 39.3464 176.83 39.5895 176.71 39.848L175.676 39.4787C175.86 39.0478 176.106 38.7124 176.414 38.4723C176.725 38.2292 177.064 38.0599 177.43 37.9645C177.799 37.866 178.162 37.8168 178.519 37.8168C178.747 37.8168 179.009 37.8445 179.304 37.8999C179.603 37.9522 179.89 38.0614 180.167 38.2276C180.447 38.3938 180.68 38.6446 180.864 38.9801C181.049 39.3156 181.141 39.7649 181.141 40.3281V45H180.052V44.0398H179.997C179.923 44.1937 179.8 44.3583 179.627 44.5337C179.455 44.7092 179.226 44.8584 178.939 44.9815C178.653 45.1046 178.304 45.1662 177.891 45.1662ZM178.058 44.1875C178.489 44.1875 178.852 44.1029 179.147 43.9336C179.446 43.7643 179.67 43.5458 179.821 43.2781C179.975 43.0103 180.052 42.7287 180.052 42.4332V41.4361C180.006 41.4915 179.904 41.5423 179.747 41.5884C179.593 41.6315 179.415 41.67 179.212 41.7038C179.012 41.7346 178.816 41.7623 178.625 41.7869C178.438 41.8085 178.285 41.8269 178.168 41.8423C177.885 41.8793 177.621 41.9393 177.374 42.0224C177.131 42.1024 176.934 42.224 176.784 42.3871C176.636 42.5471 176.562 42.7656 176.562 43.0426C176.562 43.4212 176.702 43.7074 176.982 43.9013C177.265 44.0921 177.624 44.1875 178.058 44.1875ZM187.611 45.1477C186.946 45.1477 186.373 44.9908 185.893 44.6768C185.413 44.3629 185.044 43.9305 184.785 43.3796C184.527 42.8287 184.398 42.1993 184.398 41.4915C184.398 40.7713 184.53 40.1358 184.795 39.5849C185.062 39.0309 185.435 38.5985 185.912 38.2876C186.392 37.9737 186.952 37.8168 187.592 37.8168C188.091 37.8168 188.54 37.9091 188.94 38.0938C189.34 38.2784 189.668 38.5369 189.924 38.8693C190.179 39.2017 190.338 39.5895 190.399 40.0327H189.31C189.226 39.7095 189.042 39.4233 188.756 39.174C188.472 38.9216 188.091 38.7955 187.611 38.7955C187.186 38.7955 186.814 38.9062 186.494 39.1278C186.177 39.3464 185.929 39.6557 185.75 40.0558C185.575 40.4528 185.487 40.919 185.487 41.4545C185.487 42.0024 185.573 42.4794 185.746 42.8857C185.921 43.2919 186.167 43.6074 186.484 43.832C186.804 44.0567 187.18 44.169 187.611 44.169C187.894 44.169 188.151 44.1198 188.382 44.0213C188.612 43.9228 188.808 43.7812 188.968 43.5966C189.128 43.4119 189.242 43.1903 189.31 42.9318H190.399C190.338 43.3504 190.185 43.7274 189.942 44.0629C189.702 44.3952 189.383 44.6599 188.986 44.8569C188.592 45.0508 188.134 45.1477 187.611 45.1477ZM193.592 45V37.9091H194.681V45H193.592ZM194.146 36.7273C193.933 36.7273 193.75 36.6549 193.596 36.5103C193.446 36.3656 193.37 36.1918 193.37 35.9886C193.37 35.7855 193.446 35.6116 193.596 35.467C193.75 35.3223 193.933 35.25 194.146 35.25C194.358 35.25 194.54 35.3223 194.69 35.467C194.844 35.6116 194.921 35.7855 194.921 35.9886C194.921 36.1918 194.844 36.3656 194.69 36.5103C194.54 36.6549 194.358 36.7273 194.146 36.7273ZM201.157 45.1477C200.517 45.1477 199.956 44.9954 199.472 44.6907C198.992 44.386 198.617 43.9598 198.346 43.4119C198.078 42.8641 197.944 42.224 197.944 41.4915C197.944 40.7528 198.078 40.1081 198.346 39.5572C198.617 39.0063 198.992 38.5785 199.472 38.2738C199.956 37.9691 200.517 37.8168 201.157 37.8168C201.798 37.8168 202.358 37.9691 202.838 38.2738C203.321 38.5785 203.696 39.0063 203.964 39.5572C204.235 40.1081 204.37 40.7528 204.37 41.4915C204.37 42.224 204.235 42.8641 203.964 43.4119C203.696 43.9598 203.321 44.386 202.838 44.6907C202.358 44.9954 201.798 45.1477 201.157 45.1477ZM201.157 44.169C201.644 44.169 202.044 44.0444 202.358 43.7951C202.672 43.5458 202.904 43.218 203.055 42.8118C203.206 42.4055 203.281 41.9654 203.281 41.4915C203.281 41.0175 203.206 40.5759 203.055 40.1665C202.904 39.7572 202.672 39.4264 202.358 39.174C202.044 38.9216 201.644 38.7955 201.157 38.7955C200.671 38.7955 200.271 38.9216 199.957 39.174C199.643 39.4264 199.411 39.7572 199.26 40.1665C199.109 40.5759 199.034 41.0175 199.034 41.4915C199.034 41.9654 199.109 42.4055 199.26 42.8118C199.411 43.218 199.643 43.5458 199.957 43.7951C200.271 44.0444 200.671 44.169 201.157 44.169ZM200.659 36.9489L201.785 34.8068H203.059L201.619 36.9489H200.659ZM208.723 40.7344V45H207.634V37.9091H208.686V39.017H208.778C208.945 38.657 209.197 38.3677 209.536 38.1491C209.874 37.9276 210.311 37.8168 210.847 37.8168C211.327 37.8168 211.747 37.9152 212.107 38.1122C212.467 38.3061 212.747 38.6016 212.947 38.9986C213.147 39.3925 213.247 39.8911 213.247 40.4943V45H212.158V40.5682C212.158 40.0111 212.013 39.5772 211.724 39.2663C211.434 38.9524 211.037 38.7955 210.533 38.7955C210.185 38.7955 209.874 38.8709 209.6 39.0217C209.329 39.1725 209.115 39.3925 208.958 39.6818C208.802 39.9711 208.723 40.322 208.723 40.7344Z" fill="black"/>
</svg>
