<svg width="142" height="62" viewBox="0 0 142 62" fill="none" xmlns="http://www.w3.org/2000/svg">
<path d="M25.825 35.75H34.575M25.825 39.5H30.2M39.575 19.5H22.075C21.7434 19.5 21.4255 19.6317 21.1911 19.8661C20.9566 20.1005 20.825 20.4185 20.825 20.75V43.25C20.825 43.5815 20.9566 43.8995 21.1911 44.1339C21.4255 44.3683 21.7434 44.5 22.075 44.5H39.575C39.9065 44.5 40.2244 44.3683 40.4588 44.1339C40.6933 43.8995 40.825 43.5815 40.825 43.25V20.75C40.825 20.4185 40.6933 20.1005 40.4588 19.8661C40.2244 19.6317 39.9065 19.5 39.575 19.5Z" stroke="#353535" stroke-width="2.5" stroke-linecap="round" stroke-linejoin="round"/>
<path d="M25.825 24.5H34.575V30.75H25.825V24.5Z" stroke="#353535" stroke-width="2.5" stroke-linecap="round" stroke-linejoin="round"/>
<path d="M54.1786 28V27.169L57.2994 23.7528C57.6656 23.3527 57.9672 23.005 58.2042 22.7095C58.4412 22.411 58.6166 22.1309 58.7305 21.8693C58.8474 21.6046 58.9059 21.3277 58.9059 21.0384C58.9059 20.706 58.8259 20.4182 58.6659 20.1751C58.5089 19.9319 58.2935 19.7442 58.0196 19.6119C57.7456 19.4795 57.4379 19.4134 57.0963 19.4134C56.7331 19.4134 56.4161 19.4888 56.1453 19.6396C55.8775 19.7873 55.6698 19.995 55.522 20.2628C55.3774 20.5305 55.3051 20.8445 55.3051 21.2045H54.2156C54.2156 20.6506 54.3433 20.1643 54.5987 19.7457C54.8542 19.3272 55.202 19.0009 55.6421 18.767C56.0852 18.5331 56.5823 18.4162 57.1332 18.4162C57.6872 18.4162 58.1781 18.5331 58.6058 18.767C59.0336 19.0009 59.3691 19.3164 59.6122 19.7134C59.8554 20.1104 59.9769 20.5521 59.9769 21.0384C59.9769 21.3861 59.9138 21.7262 59.7877 22.0586C59.6646 22.3879 59.4491 22.7557 59.1414 23.1619C58.8367 23.5651 58.4135 24.0575 57.8718 24.6392L55.7482 26.9105V26.9844H60.1431V28H54.1786ZM66.7335 28.1293C66.038 28.1293 65.4455 27.94 64.9562 27.5614C64.4669 27.1798 64.0929 26.6274 63.8344 25.9041C63.5759 25.1778 63.4466 24.3007 63.4466 23.2727C63.4466 22.2509 63.5759 21.3784 63.8344 20.6552C64.096 19.9289 64.4715 19.3749 64.9608 18.9933C65.4532 18.6085 66.0442 18.4162 66.7335 18.4162C67.4229 18.4162 68.0123 18.6085 68.5017 18.9933C68.9941 19.3749 69.3696 19.9289 69.6281 20.6552C69.8897 21.3784 70.0205 22.2509 70.0205 23.2727C70.0205 24.3007 69.8912 25.1778 69.6327 25.9041C69.3742 26.6274 69.0002 27.1798 68.5109 27.5614C68.0215 27.94 67.4291 28.1293 66.7335 28.1293ZM66.7335 27.1136C67.4229 27.1136 67.9585 26.7812 68.3401 26.1165C68.7217 25.4517 68.9125 24.5038 68.9125 23.2727C68.9125 22.4541 68.8248 21.757 68.6494 21.1815C68.477 20.6059 68.2277 20.1674 67.9015 19.8658C67.5784 19.5642 67.189 19.4134 66.7335 19.4134C66.0503 19.4134 65.5163 19.7504 65.1316 20.4244C64.7469 21.0953 64.5546 22.0447 64.5546 23.2727C64.5546 24.0914 64.6407 24.7869 64.8131 25.3594C64.9854 25.9318 65.2332 26.3673 65.5563 26.6658C65.8826 26.9644 66.275 27.1136 66.7335 27.1136ZM76.4585 28.1293C75.763 28.1293 75.1705 27.94 74.6812 27.5614C74.1919 27.1798 73.8179 26.6274 73.5594 25.9041C73.3009 25.1778 73.1716 24.3007 73.1716 23.2727C73.1716 22.2509 73.3009 21.3784 73.5594 20.6552C73.821 19.9289 74.1965 19.3749 74.6858 18.9933C75.1782 18.6085 75.7692 18.4162 76.4585 18.4162C77.1479 18.4162 77.7373 18.6085 78.2267 18.9933C78.7191 19.3749 79.0946 19.9289 79.3531 20.6552C79.6147 21.3784 79.7455 22.2509 79.7455 23.2727C79.7455 24.3007 79.6162 25.1778 79.3577 25.9041C79.0992 26.6274 78.7252 27.1798 78.2359 27.5614C77.7465 27.94 77.1541 28.1293 76.4585 28.1293ZM76.4585 27.1136C77.1479 27.1136 77.6835 26.7812 78.0651 26.1165C78.4467 25.4517 78.6375 24.5038 78.6375 23.2727C78.6375 22.4541 78.5498 21.757 78.3744 21.1815C78.202 20.6059 77.9527 20.1674 77.6265 19.8658C77.3034 19.5642 76.914 19.4134 76.4585 19.4134C75.7753 19.4134 75.2413 19.7504 74.8566 20.4244C74.4719 21.0953 74.2796 22.0447 74.2796 23.2727C74.2796 24.0914 74.3657 24.7869 74.5381 25.3594C74.7104 25.9318 74.9582 26.3673 75.2813 26.6658C75.6076 26.9644 76 27.1136 76.4585 27.1136ZM86.1835 28.1293C85.488 28.1293 84.8955 27.94 84.4062 27.5614C83.9169 27.1798 83.5429 26.6274 83.2844 25.9041C83.0259 25.1778 82.8966 24.3007 82.8966 23.2727C82.8966 22.2509 83.0259 21.3784 83.2844 20.6552C83.546 19.9289 83.9215 19.3749 84.4108 18.9933C84.9032 18.6085 85.4942 18.4162 86.1835 18.4162C86.8729 18.4162 87.4623 18.6085 87.9517 18.9933C88.4441 19.3749 88.8196 19.9289 89.0781 20.6552C89.3397 21.3784 89.4705 22.2509 89.4705 23.2727C89.4705 24.3007 89.3412 25.1778 89.0827 25.9041C88.8242 26.6274 88.4502 27.1798 87.9609 27.5614C87.4715 27.94 86.8791 28.1293 86.1835 28.1293ZM86.1835 27.1136C86.8729 27.1136 87.4084 26.7812 87.7901 26.1165C88.1717 25.4517 88.3625 24.5038 88.3625 23.2727C88.3625 22.4541 88.2748 21.757 88.0994 21.1815C87.927 20.6059 87.6777 20.1674 87.3515 19.8658C87.0284 19.5642 86.639 19.4134 86.1835 19.4134C85.5003 19.4134 84.9663 19.7504 84.5816 20.4244C84.1969 21.0953 84.0046 22.0447 84.0046 23.2727C84.0046 24.0914 84.0907 24.7869 84.2631 25.3594C84.4354 25.9318 84.6832 26.3673 85.0063 26.6658C85.3326 26.9644 85.725 27.1136 86.1835 27.1136ZM93.3072 28.0739C93.0794 28.0739 92.884 27.9923 92.7209 27.8292C92.5578 27.6661 92.4762 27.4706 92.4762 27.2429C92.4762 27.0152 92.5578 26.8197 92.7209 26.6566C92.884 26.4935 93.0794 26.4119 93.3072 26.4119C93.5349 26.4119 93.7303 26.4935 93.8935 26.6566C94.0566 26.8197 94.1381 27.0152 94.1381 27.2429C94.1381 27.3937 94.0997 27.5322 94.0227 27.6584C93.9489 27.7846 93.8488 27.8861 93.7226 27.9631C93.5995 28.0369 93.461 28.0739 93.3072 28.0739ZM61.9528 37.5H60.8079C60.7402 37.1707 60.6217 36.8814 60.4524 36.6321C60.2862 36.3828 60.0831 36.1735 59.8431 36.0043C59.6061 35.8319 59.3429 35.7027 59.0536 35.6165C58.7643 35.5303 58.4627 35.4872 58.1488 35.4872C57.5764 35.4872 57.0578 35.6319 56.5931 35.9212C56.1314 36.2105 55.7636 36.6367 55.4897 37.1999C55.2189 37.7631 55.0835 38.4541 55.0835 39.2727C55.0835 40.0914 55.2189 40.7823 55.4897 41.3455C55.7636 41.9087 56.1314 42.335 56.5931 42.6243C57.0578 42.9136 57.5764 43.0582 58.1488 43.0582C58.4627 43.0582 58.7643 43.0152 59.0536 42.929C59.3429 42.8428 59.6061 42.7151 59.8431 42.5458C60.0831 42.3735 60.2862 42.1626 60.4524 41.9134C60.6217 41.661 60.7402 41.3717 60.8079 41.0455H61.9528C61.8666 41.5286 61.7097 41.9611 61.4819 42.3427C61.2542 42.7243 60.971 43.049 60.6325 43.3168C60.2939 43.5814 59.9138 43.783 59.4922 43.9215C59.0736 44.06 58.6259 44.1293 58.1488 44.1293C57.3425 44.1293 56.6254 43.9323 55.9975 43.5384C55.3697 43.1444 54.8757 42.5843 54.5156 41.858C54.1556 41.1316 53.9755 40.2699 53.9755 39.2727C53.9755 38.2756 54.1556 37.4138 54.5156 36.6875C54.8757 35.9612 55.3697 35.401 55.9975 35.0071C56.6254 34.6132 57.3425 34.4162 58.1488 34.4162C58.6259 34.4162 59.0736 34.4854 59.4922 34.6239C59.9138 34.7624 60.2939 34.9656 60.6325 35.2333C60.971 35.498 61.2542 35.8211 61.4819 36.2028C61.7097 36.5813 61.8666 37.0137 61.9528 37.5ZM69.7239 41.1009V36.9091H70.8134V44H69.7239V42.7997H69.65C69.4838 43.1598 69.2253 43.466 68.8744 43.7184C68.5236 43.9677 68.0804 44.0923 67.5449 44.0923C67.1017 44.0923 66.7078 43.9954 66.3631 43.8015C66.0184 43.6045 65.7475 43.3091 65.5506 42.9151C65.3536 42.5181 65.2551 42.018 65.2551 41.4148V36.9091H66.3446V41.3409C66.3446 41.858 66.4893 42.2704 66.7786 42.5781C67.0709 42.8859 67.4433 43.0398 67.8957 43.0398C68.1666 43.0398 68.442 42.9705 68.7221 42.832C69.0052 42.6935 69.2422 42.4812 69.433 42.195C69.6269 41.9087 69.7239 41.544 69.7239 41.1009ZM74.4088 44V36.9091H75.4614V37.9801H75.5353C75.6645 37.6293 75.8984 37.3446 76.237 37.1261C76.5755 36.9076 76.9571 36.7983 77.3818 36.7983C77.4619 36.7983 77.5619 36.7998 77.6819 36.8029C77.8019 36.806 77.8927 36.8106 77.9543 36.8168V37.9247C77.9174 37.9155 77.8327 37.9016 77.7004 37.8832C77.5711 37.8616 77.4342 37.8509 77.2895 37.8509C76.9448 37.8509 76.637 37.9232 76.3662 38.0678C76.0985 38.2094 75.8861 38.4064 75.7291 38.6587C75.5753 38.908 75.4983 39.1927 75.4983 39.5128V44H74.4088ZM80.8457 44V36.9091H81.8983V37.9801H81.9722C82.1014 37.6293 82.3353 37.3446 82.6739 37.1261C83.0124 36.9076 83.394 36.7983 83.8188 36.7983C83.8988 36.7983 83.9988 36.7998 84.1188 36.8029C84.2389 36.806 84.3296 36.8106 84.3912 36.8168V37.9247C84.3543 37.9155 84.2696 37.9016 84.1373 37.8832C84.008 37.8616 83.8711 37.8509 83.7264 37.8509C83.3817 37.8509 83.074 37.9232 82.8031 38.0678C82.5354 38.2094 82.323 38.4064 82.1661 38.6587C82.0122 38.908 81.9352 39.1927 81.9352 39.5128V44H80.8457ZM87.2827 44V36.9091H88.3721V44H87.2827ZM87.3381 35.9489L88.4645 33.8068H89.7386L88.2983 35.9489H87.3381ZM94.8483 44.1477C94.1835 44.1477 93.6111 43.9908 93.131 43.6768C92.6509 43.3629 92.2815 42.9305 92.023 42.3796C91.7645 41.8287 91.6352 41.1993 91.6352 40.4915C91.6352 39.7713 91.7676 39.1358 92.0322 38.5849C92.3 38.0309 92.6724 37.5985 93.1494 37.2876C93.6296 36.9737 94.1897 36.8168 94.8298 36.8168C95.3284 36.8168 95.7778 36.9091 96.1778 37.0938C96.5779 37.2784 96.9057 37.5369 97.1612 37.8693C97.4166 38.2017 97.5751 38.5895 97.6367 39.0327H96.5472C96.4641 38.7095 96.2794 38.4233 95.9932 38.174C95.71 37.9216 95.3284 37.7955 94.8483 37.7955C94.4236 37.7955 94.0512 37.9062 93.7311 38.1278C93.4141 38.3464 93.1664 38.6557 92.9879 39.0558C92.8124 39.4528 92.7247 39.919 92.7247 40.4545C92.7247 41.0024 92.8109 41.4794 92.9832 41.8857C93.1587 42.2919 93.4049 42.6074 93.7219 42.832C94.042 43.0567 94.4174 43.169 94.8483 43.169C95.1314 43.169 95.3884 43.1198 95.6193 43.0213C95.8501 42.9228 96.0455 42.7812 96.2055 42.5966C96.3656 42.4119 96.4795 42.1903 96.5472 41.9318H97.6367C97.5751 42.3504 97.4228 42.7274 97.1796 43.0629C96.9396 43.3952 96.621 43.6599 96.224 43.8569C95.8301 44.0508 95.3715 44.1477 94.8483 44.1477ZM105.298 41.1009V36.9091H106.388V44H105.298V42.7997H105.224C105.058 43.1598 104.8 43.466 104.449 43.7184C104.098 43.9677 103.655 44.0923 103.119 44.0923C102.676 44.0923 102.282 43.9954 101.937 43.8015C101.593 43.6045 101.322 43.3091 101.125 42.9151C100.928 42.5181 100.829 42.018 100.829 41.4148V36.9091H101.919V41.3409C101.919 41.858 102.063 42.2704 102.353 42.5781C102.645 42.8859 103.018 43.0398 103.47 43.0398C103.741 43.0398 104.016 42.9705 104.296 42.832C104.579 42.6935 104.816 42.4812 105.007 42.195C105.201 41.9087 105.298 41.544 105.298 41.1009ZM111.073 34.5455V44H109.983V34.5455H111.073ZM117.549 44.1477C116.909 44.1477 116.347 43.9954 115.864 43.6907C115.384 43.386 115.008 42.9598 114.737 42.4119C114.469 41.8641 114.336 41.224 114.336 40.4915C114.336 39.7528 114.469 39.1081 114.737 38.5572C115.008 38.0063 115.384 37.5785 115.864 37.2738C116.347 36.9691 116.909 36.8168 117.549 36.8168C118.189 36.8168 118.749 36.9691 119.229 37.2738C119.712 37.5785 120.088 38.0063 120.356 38.5572C120.626 39.1081 120.762 39.7528 120.762 40.4915C120.762 41.224 120.626 41.8641 120.356 42.4119C120.088 42.9598 119.712 43.386 119.229 43.6907C118.749 43.9954 118.189 44.1477 117.549 44.1477ZM117.549 43.169C118.035 43.169 118.435 43.0444 118.749 42.7951C119.063 42.5458 119.295 42.218 119.446 41.8118C119.597 41.4055 119.672 40.9654 119.672 40.4915C119.672 40.0175 119.597 39.5759 119.446 39.1665C119.295 38.7572 119.063 38.4264 118.749 38.174C118.435 37.9216 118.035 37.7955 117.549 37.7955C117.062 37.7955 116.662 37.9216 116.348 38.174C116.034 38.4264 115.802 38.7572 115.651 39.1665C115.501 39.5759 115.425 40.0175 115.425 40.4915C115.425 40.9654 115.501 41.4055 115.651 41.8118C115.802 42.218 116.034 42.5458 116.348 42.7951C116.662 43.0444 117.062 43.169 117.549 43.169Z" fill="black"/>
</svg>
