<svg width="174" height="78" viewBox="0 0 174 78" fill="none" xmlns="http://www.w3.org/2000/svg">
<path d="M25.1785 38.3569C24.5454 38.3569 23.9184 38.4816 23.3335 38.7239C22.7485 38.9662 22.217 39.3214 21.7693 39.7691C21.3216 40.2168 20.9664 40.7483 20.7241 41.3333C20.4818 41.9182 20.3571 42.5452 20.3571 43.1784C20.3571 43.8115 20.4818 44.4385 20.7241 45.0234C20.9664 45.6084 21.3216 46.1399 21.7693 46.5876C22.217 47.0353 22.7485 47.3905 23.3335 47.6328C23.9184 47.8751 24.5454 47.9998 25.1785 47.9998C26.4573 47.9998 27.6836 47.4918 28.5878 46.5876C29.492 45.6834 30 44.4571 30 43.1784C30 41.8996 29.492 40.6733 28.5878 39.7691C27.6836 38.8649 26.4573 38.3569 25.1785 38.3569ZM21.9643 43.1784C21.9643 42.7563 22.0474 42.3383 22.2089 41.9483C22.3705 41.5583 22.6072 41.204 22.9057 40.9055C23.2042 40.607 23.5585 40.3703 23.9485 40.2087C24.3385 40.0472 24.7564 39.9641 25.1785 39.9641C25.6006 39.9641 26.0186 40.0472 26.4086 40.2087C26.7986 40.3703 27.1529 40.607 27.4514 40.9055C27.7499 41.204 27.9866 41.5583 28.1481 41.9483C28.3097 42.3383 28.3928 42.7563 28.3928 43.1784C28.3928 44.0308 28.0542 44.8484 27.4514 45.4512C26.8486 46.054 26.031 46.3926 25.1785 46.3926C24.3261 46.3926 23.5085 46.054 22.9057 45.4512C22.3029 44.8484 21.9643 44.0308 21.9643 43.1784ZM36.4285 40.4998C35.434 40.4998 34.4801 40.8949 33.7769 41.5981C33.0736 42.3014 32.6785 43.2552 32.6785 44.2498C32.6785 45.2444 33.0736 46.1982 33.7769 46.9014C34.4801 47.6047 35.434 47.9998 36.4285 47.9998C37.4231 47.9998 38.3769 47.6047 39.0802 46.9014C39.7834 46.1982 40.1785 45.2444 40.1785 44.2498C40.1785 43.2552 39.7834 42.3014 39.0802 41.5981C38.3769 40.8949 37.4231 40.4998 36.4285 40.4998ZM34.2857 44.2498C34.2857 43.6815 34.5114 43.1364 34.9133 42.7346C35.3152 42.3327 35.8602 42.1069 36.4285 42.1069C36.9969 42.1069 37.5419 42.3327 37.9438 42.7346C38.3456 43.1364 38.5714 43.6815 38.5714 44.2498C38.5714 44.8181 38.3456 45.3632 37.9438 45.765C37.5419 46.1669 36.9969 46.3926 36.4285 46.3926C35.8602 46.3926 35.3152 46.1669 34.9133 45.765C34.5114 45.3632 34.2857 44.8181 34.2857 44.2498ZM17.1428 52.5534C17.1428 51.914 17.3968 51.3008 17.8489 50.8487C18.301 50.3966 18.9142 50.1426 19.5535 50.1426H30.8035C31.4429 50.1426 32.0561 50.3966 32.5082 50.8487C32.9603 51.3008 33.2143 51.914 33.2143 52.5534V53.1223C33.2129 53.209 33.2068 53.2955 33.196 53.3816C33.1719 53.6026 33.1325 53.8217 33.0782 54.0373C32.901 54.7409 32.5852 55.402 32.1493 55.9819C31.0628 57.4316 28.9907 58.7141 25.1785 58.7141C21.3664 58.7141 19.2943 57.4316 18.2078 55.9819C17.7722 55.4019 17.4568 54.7408 17.28 54.0373C17.21 53.7572 17.1652 53.4714 17.146 53.1834C17.1447 53.163 17.1436 53.1427 17.1428 53.1223V52.5534ZM18.75 53.0837V53.103L18.7596 53.2101C18.7703 53.3109 18.7918 53.4619 18.8389 53.6473C18.9638 54.1429 19.186 54.6087 19.4925 55.0176C20.2146 55.9787 21.7585 57.1069 25.1785 57.1069C28.5985 57.1069 30.1425 55.9787 30.8635 55.0176C31.2385 54.5184 31.425 54.0191 31.5171 53.6473C31.5621 53.4687 31.5919 53.2866 31.606 53.103L31.6071 53.0837V52.5534C31.6071 52.3402 31.5224 52.1358 31.3717 51.9852C31.221 51.8345 31.0167 51.7498 30.8035 51.7498H19.5535C19.3404 51.7498 19.136 51.8345 18.9853 51.9852C18.8346 52.1358 18.75 52.3402 18.75 52.5534V53.0837ZM33.3214 56.1641C34.1496 56.418 35.1717 56.5712 36.4264 56.5712C39.3942 56.5712 41.0528 55.7184 41.9539 54.6898C42.3142 54.2828 42.5811 53.8019 42.736 53.2809C42.7972 53.0705 42.8364 52.8543 42.8528 52.6359L42.855 52.5855V52.5534C42.855 51.914 42.601 51.3008 42.1489 50.8487C41.6968 50.3966 41.0836 50.1426 40.4443 50.1426H33.315C33.7371 50.583 34.0457 51.1348 34.1914 51.7498H40.4453C40.6566 51.7498 40.8594 51.833 41.0098 51.9814C41.1602 52.1297 41.2461 52.3314 41.2489 52.5426C41.2394 52.6399 41.2207 52.736 41.1932 52.8298C41.1035 53.1266 40.9499 53.4002 40.7432 53.6312C40.2385 54.2098 39.0857 54.9641 36.4264 54.9641C35.4182 54.9641 34.6264 54.8559 34.0039 54.6887C33.8388 55.207 33.6095 55.7027 33.3214 56.1641Z" fill="#353535"/>
<path d="M54.1449 28V18.5455H59.8509V19.5611H55.2898V22.7557H59.5554V23.7713H55.2898V26.9844H59.9247V28H54.1449ZM68.3894 22.4972L67.4107 22.7741C67.3492 22.611 67.2584 22.4525 67.1384 22.2987C67.0214 22.1417 66.8614 22.0124 66.6582 21.9109C66.4551 21.8093 66.1951 21.7585 65.8781 21.7585C65.4441 21.7585 65.0825 21.8585 64.7932 22.0586C64.507 22.2556 64.3638 22.5064 64.3638 22.8111C64.3638 23.0819 64.4623 23.2958 64.6593 23.4528C64.8563 23.6097 65.164 23.7405 65.5826 23.8452L66.6352 24.1037C67.2692 24.2576 67.7416 24.493 68.0524 24.81C68.3633 25.1239 68.5187 25.5286 68.5187 26.0241C68.5187 26.4304 68.4017 26.7936 68.1678 27.1136C67.937 27.4337 67.6138 27.6861 67.1984 27.8707C66.7829 28.0554 66.2997 28.1477 65.7488 28.1477C65.0255 28.1477 64.4269 27.9908 63.953 27.6768C63.479 27.3629 63.179 26.9044 63.0528 26.3011L64.0869 26.0426C64.1853 26.4242 64.3715 26.7105 64.6455 26.9013C64.9224 27.0921 65.2841 27.1875 65.7303 27.1875C66.2381 27.1875 66.6413 27.0798 66.9398 26.8643C67.2415 26.6458 67.3923 26.3842 67.3923 26.0795C67.3923 25.8333 67.3061 25.6271 67.1337 25.4609C66.9614 25.2917 66.6967 25.1655 66.3397 25.0824L65.1579 24.8054C64.5085 24.6515 64.0315 24.413 63.7268 24.0898C63.4252 23.7636 63.2744 23.3558 63.2744 22.8665C63.2744 22.4664 63.3867 22.1125 63.6114 21.8047C63.8391 21.4969 64.1484 21.2553 64.5393 21.0799C64.9332 20.9045 65.3795 20.8168 65.8781 20.8168C66.5798 20.8168 67.1307 20.9706 67.5308 21.2784C67.9339 21.5862 68.2201 21.9924 68.3894 22.4972ZM74.6394 28.1477C73.9746 28.1477 73.4021 27.9908 72.922 27.6768C72.4419 27.3629 72.0726 26.9305 71.8141 26.3796C71.5556 25.8287 71.4263 25.1993 71.4263 24.4915C71.4263 23.7713 71.5586 23.1358 71.8233 22.5849C72.0911 22.0309 72.4635 21.5985 72.9405 21.2876C73.4206 20.9737 73.9807 20.8168 74.6209 20.8168C75.1195 20.8168 75.5688 20.9091 75.9689 21.0938C76.369 21.2784 76.6968 21.5369 76.9522 21.8693C77.2077 22.2017 77.3662 22.5895 77.4277 23.0327H76.3382C76.2551 22.7095 76.0705 22.4233 75.7843 22.174C75.5011 21.9216 75.1195 21.7955 74.6394 21.7955C74.2146 21.7955 73.8423 21.9062 73.5222 22.1278C73.2052 22.3464 72.9574 22.6557 72.7789 23.0558C72.6035 23.4528 72.5158 23.919 72.5158 24.4545C72.5158 25.0024 72.602 25.4794 72.7743 25.8857C72.9497 26.2919 73.1959 26.6074 73.5129 26.832C73.833 27.0567 74.2085 27.169 74.6394 27.169C74.9225 27.169 75.1795 27.1198 75.4103 27.0213C75.6411 26.9228 75.8366 26.7812 75.9966 26.5966C76.1566 26.4119 76.2705 26.1903 76.3382 25.9318H77.4277C77.3662 26.3504 77.2138 26.7274 76.9707 27.0629C76.7306 27.3952 76.4121 27.6599 76.0151 27.8569C75.6211 28.0508 75.1626 28.1477 74.6394 28.1477ZM85.0892 25.1009V20.9091H86.1786V28H85.0892V26.7997H85.0153C84.8491 27.1598 84.5906 27.466 84.2397 27.7184C83.8889 27.9677 83.4457 28.0923 82.9102 28.0923C82.467 28.0923 82.0731 27.9954 81.7284 27.8015C81.3837 27.6045 81.1128 27.3091 80.9159 26.9151C80.7189 26.5181 80.6204 26.018 80.6204 25.4148V20.9091H81.7099V25.3409C81.7099 25.858 81.8545 26.2704 82.1438 26.5781C82.4362 26.8859 82.8086 27.0398 83.261 27.0398C83.5319 27.0398 83.8073 26.9705 84.0874 26.832C84.3705 26.6935 84.6075 26.4812 84.7983 26.195C84.9922 25.9087 85.0892 25.544 85.0892 25.1009ZM92.7471 28.1477C92.0639 28.1477 91.4745 27.9969 90.979 27.6953C90.4866 27.3906 90.1065 26.9659 89.8387 26.4212C89.5741 25.8733 89.4417 25.2363 89.4417 24.5099C89.4417 23.7836 89.5741 23.1435 89.8387 22.5895C90.1065 22.0324 90.4789 21.5985 90.9559 21.2876C91.436 20.9737 91.9962 20.8168 92.6363 20.8168C93.0056 20.8168 93.3703 20.8783 93.7304 21.0014C94.0905 21.1245 94.4183 21.3246 94.7137 21.6016C95.0092 21.8755 95.2446 22.2386 95.4201 22.6911C95.5955 23.1435 95.6832 23.7005 95.6832 24.3622V24.8239H90.2173V23.8821H94.5753C94.5753 23.482 94.4952 23.125 94.3352 22.8111C94.1782 22.4972 93.9536 22.2494 93.6612 22.0678C93.3719 21.8862 93.0303 21.7955 92.6363 21.7955C92.2024 21.7955 91.8269 21.9032 91.5099 22.1186C91.196 22.331 90.9544 22.608 90.7851 22.9496C90.6159 23.2912 90.5312 23.6574 90.5312 24.0483V24.6761C90.5312 25.2116 90.6235 25.6656 90.8082 26.038C90.9959 26.4073 91.256 26.6889 91.5884 26.8828C91.9208 27.0736 92.307 27.169 92.7471 27.169C93.0333 27.169 93.2919 27.129 93.5227 27.049C93.7566 26.9659 93.9582 26.8428 94.1275 26.6797C94.2967 26.5135 94.4275 26.3073 94.5199 26.0611L95.5724 26.3565C95.4616 26.7135 95.2754 27.0275 95.0138 27.2983C94.7522 27.5661 94.4291 27.7753 94.0444 27.9261C93.6596 28.0739 93.2272 28.1477 92.7471 28.1477ZM100.03 18.5455V28H98.9405V18.5455H100.03ZM105.712 28.1662C105.263 28.1662 104.855 28.0816 104.489 27.9123C104.123 27.7399 103.832 27.4922 103.616 27.169C103.401 26.8428 103.293 26.4489 103.293 25.9872C103.293 25.581 103.373 25.2517 103.533 24.9993C103.693 24.7438 103.907 24.5438 104.175 24.3991C104.443 24.2545 104.738 24.1468 105.061 24.076C105.387 24.0021 105.715 23.9437 106.045 23.9006C106.475 23.8452 106.825 23.8036 107.092 23.7759C107.363 23.7451 107.56 23.6944 107.683 23.6236C107.81 23.5528 107.873 23.4297 107.873 23.2543V23.2173C107.873 22.7618 107.748 22.4079 107.499 22.1555C107.252 21.9032 106.879 21.777 106.377 21.777C105.857 21.777 105.449 21.8909 105.154 22.1186C104.858 22.3464 104.65 22.5895 104.53 22.848L103.496 22.4787C103.681 22.0478 103.927 21.7124 104.235 21.4723C104.546 21.2292 104.884 21.0599 105.25 20.9645C105.62 20.866 105.983 20.8168 106.34 20.8168C106.568 20.8168 106.829 20.8445 107.125 20.8999C107.423 20.9522 107.711 21.0614 107.988 21.2276C108.268 21.3938 108.5 21.6446 108.685 21.9801C108.87 22.3156 108.962 22.7649 108.962 23.3281V28H107.873V27.0398H107.817C107.743 27.1937 107.62 27.3583 107.448 27.5337C107.276 27.7092 107.046 27.8584 106.76 27.9815C106.474 28.1046 106.125 28.1662 105.712 28.1662ZM105.878 27.1875C106.309 27.1875 106.672 27.1029 106.968 26.9336C107.266 26.7643 107.491 26.5458 107.642 26.2781C107.796 26.0103 107.873 25.7287 107.873 25.4332V24.4361C107.826 24.4915 107.725 24.5423 107.568 24.5884C107.414 24.6315 107.236 24.67 107.032 24.7038C106.832 24.7346 106.637 24.7623 106.446 24.7869C106.258 24.8085 106.106 24.8269 105.989 24.8423C105.706 24.8793 105.441 24.9393 105.195 25.0224C104.952 25.1024 104.755 25.224 104.604 25.3871C104.456 25.5471 104.383 25.7656 104.383 26.0426C104.383 26.4212 104.523 26.7074 104.803 26.9013C105.086 27.0921 105.444 27.1875 105.878 27.1875ZM61.7528 37.5H60.608C60.5402 37.1707 60.4218 36.8814 60.2525 36.6321C60.0863 36.3828 59.8832 36.1735 59.6431 36.0043C59.4061 35.8319 59.143 35.7027 58.8537 35.6165C58.5644 35.5303 58.2628 35.4872 57.9489 35.4872C57.3764 35.4872 56.8578 35.6319 56.3931 35.9212C55.9315 36.2105 55.5637 36.6367 55.2898 37.1999C55.0189 37.7631 54.8835 38.4541 54.8835 39.2727C54.8835 40.0914 55.0189 40.7823 55.2898 41.3455C55.5637 41.9087 55.9315 42.335 56.3931 42.6243C56.8578 42.9136 57.3764 43.0582 57.9489 43.0582C58.2628 43.0582 58.5644 43.0152 58.8537 42.929C59.143 42.8428 59.4061 42.7151 59.6431 42.5458C59.8832 42.3735 60.0863 42.1626 60.2525 41.9134C60.4218 41.661 60.5402 41.3717 60.608 41.0455H61.7528C61.6667 41.5286 61.5097 41.9611 61.282 42.3427C61.0542 42.7243 60.7711 43.049 60.4325 43.3168C60.094 43.5814 59.7139 43.783 59.2923 43.9215C58.8737 44.06 58.4259 44.1293 57.9489 44.1293C57.1425 44.1293 56.4254 43.9323 55.7976 43.5384C55.1697 43.1444 54.6758 42.5843 54.3157 41.858C53.9556 41.1316 53.7756 40.2699 53.7756 39.2727C53.7756 38.2756 53.9556 37.4138 54.3157 36.6875C54.6758 35.9612 55.1697 35.401 55.7976 35.0071C56.4254 34.6132 57.1425 34.4162 57.9489 34.4162C58.4259 34.4162 58.8737 34.4854 59.2923 34.6239C59.7139 34.7624 60.094 34.9656 60.4325 35.2333C60.7711 35.498 61.0542 35.8211 61.282 36.2028C61.5097 36.5813 61.6667 37.0137 61.7528 37.5ZM67.9358 44.1477C67.2957 44.1477 66.734 43.9954 66.2508 43.6907C65.7707 43.386 65.3952 42.9598 65.1244 42.4119C64.8567 41.8641 64.7228 41.224 64.7228 40.4915C64.7228 39.7528 64.8567 39.1081 65.1244 38.5572C65.3952 38.0063 65.7707 37.5785 66.2508 37.2738C66.734 36.9691 67.2957 36.8168 67.9358 36.8168C68.576 36.8168 69.1361 36.9691 69.6162 37.2738C70.0994 37.5785 70.4749 38.0063 70.7427 38.5572C71.0135 39.1081 71.1489 39.7528 71.1489 40.4915C71.1489 41.224 71.0135 41.8641 70.7427 42.4119C70.4749 42.9598 70.0994 43.386 69.6162 43.6907C69.1361 43.9954 68.576 44.1477 67.9358 44.1477ZM67.9358 43.169C68.4221 43.169 68.8222 43.0444 69.1361 42.7951C69.4501 42.5458 69.6824 42.218 69.8332 41.8118C69.984 41.4055 70.0594 40.9654 70.0594 40.4915C70.0594 40.0175 69.984 39.5759 69.8332 39.1665C69.6824 38.7572 69.4501 38.4264 69.1361 38.174C68.8222 37.9216 68.4221 37.7955 67.9358 37.7955C67.4496 37.7955 67.0495 37.9216 66.7356 38.174C66.4216 38.4264 66.1893 38.7572 66.0385 39.1665C65.8877 39.5759 65.8123 40.0175 65.8123 40.4915C65.8123 40.9654 65.8877 41.4055 66.0385 41.8118C66.1893 42.218 66.4216 42.5458 66.7356 42.7951C67.0495 43.0444 67.4496 43.169 67.9358 43.169ZM74.412 44V36.9091H75.4646V38.017H75.5569C75.7046 37.6385 75.9431 37.3446 76.2724 37.1353C76.6018 36.9229 76.9972 36.8168 77.4589 36.8168C77.9267 36.8168 78.316 36.9229 78.6268 37.1353C78.9408 37.3446 79.1854 37.6385 79.3609 38.017H79.4347C79.6163 37.6508 79.8887 37.36 80.2518 37.1445C80.615 36.926 81.0505 36.8168 81.5583 36.8168C82.1923 36.8168 82.7109 37.0153 83.1141 37.4123C83.5172 37.8062 83.7188 38.4202 83.7188 39.2543V44H82.6293V39.2543C82.6293 38.7311 82.4862 38.3571 82.2 38.1325C81.9138 37.9078 81.5768 37.7955 81.189 37.7955C80.6904 37.7955 80.3042 37.9463 80.0303 38.2479C79.7563 38.5464 79.6194 38.925 79.6194 39.3835V44H78.5114V39.1435C78.5114 38.7403 78.3806 38.4156 78.119 38.1694C77.8574 37.9201 77.5204 37.7955 77.108 37.7955C76.8249 37.7955 76.5602 37.8709 76.314 38.0217C76.0709 38.1725 75.8739 38.3817 75.7231 38.6495C75.5754 38.9142 75.5015 39.2204 75.5015 39.5682V44H74.412ZM91.7796 41.1009V36.9091H92.8691V44H91.7796V42.7997H91.7057C91.5395 43.1598 91.281 43.466 90.9301 43.7184C90.5793 43.9677 90.1361 44.0923 89.6006 44.0923C89.1574 44.0923 88.7635 43.9954 88.4188 43.8015C88.0741 43.6045 87.8033 43.3091 87.6063 42.9151C87.4093 42.5181 87.3108 42.018 87.3108 41.4148V36.9091H88.4003V41.3409C88.4003 41.858 88.545 42.2704 88.8343 42.5781C89.1266 42.8859 89.499 43.0398 89.9515 43.0398C90.2223 43.0398 90.4977 42.9705 90.7778 42.832C91.0609 42.6935 91.2979 42.4812 91.4887 42.195C91.6826 41.9087 91.7796 41.544 91.7796 41.1009ZM97.554 39.7344V44H96.4645V36.9091H97.5171V38.017H97.6094C97.7756 37.657 98.028 37.3677 98.3665 37.1491C98.7051 36.9276 99.1421 36.8168 99.6776 36.8168C100.158 36.8168 100.578 36.9152 100.938 37.1122C101.298 37.3061 101.578 37.6016 101.778 37.9986C101.978 38.3925 102.078 38.8911 102.078 39.4943V44H100.989V39.5682C100.989 39.0111 100.844 38.5772 100.555 38.2663C100.265 37.9524 99.8684 37.7955 99.3637 37.7955C99.0159 37.7955 98.7051 37.8709 98.4312 38.0217C98.1603 38.1725 97.9464 38.3925 97.7895 38.6818C97.6325 38.9711 97.554 39.322 97.554 39.7344ZM105.669 44V36.9091H106.759V44H105.669ZM106.223 35.7273C106.011 35.7273 105.828 35.6549 105.674 35.5103C105.523 35.3656 105.447 35.1918 105.447 34.9886C105.447 34.7855 105.523 34.6116 105.674 34.467C105.828 34.3223 106.011 34.25 106.223 34.25C106.435 34.25 106.617 34.3223 106.768 34.467C106.922 34.6116 106.999 34.7855 106.999 34.9886C106.999 35.1918 106.922 35.3656 106.768 35.5103C106.617 35.6549 106.435 35.7273 106.223 35.7273ZM113.032 44.1477C112.441 44.1477 111.919 43.9985 111.467 43.6999C111.014 43.3983 110.66 42.9736 110.405 42.4258C110.149 41.8749 110.022 41.224 110.022 40.473C110.022 39.7282 110.149 39.0819 110.405 38.5341C110.66 37.9863 111.016 37.5631 111.471 37.2646C111.927 36.966 112.453 36.8168 113.05 36.8168C113.512 36.8168 113.876 36.8937 114.144 37.0476C114.415 37.1984 114.621 37.3707 114.763 37.5646C114.907 37.7554 115.02 37.9124 115.1 38.0355H115.192V34.5455H116.282V44H115.229V42.9105H115.1C115.02 43.0398 114.906 43.2029 114.758 43.3999C114.61 43.5937 114.4 43.7676 114.126 43.9215C113.852 44.0723 113.487 44.1477 113.032 44.1477ZM113.179 43.169C113.616 43.169 113.986 43.0552 114.287 42.8274C114.589 42.5966 114.818 42.2781 114.975 41.8718C115.132 41.4625 115.211 40.9901 115.211 40.4545C115.211 39.9252 115.134 39.462 114.98 39.065C114.826 38.6649 114.598 38.354 114.296 38.1325C113.995 37.9078 113.622 37.7955 113.179 37.7955C112.718 37.7955 112.333 37.9139 112.025 38.1509C111.72 38.3848 111.491 38.7034 111.337 39.1065C111.186 39.5066 111.111 39.956 111.111 40.4545C111.111 40.9593 111.188 41.4179 111.342 41.8303C111.499 42.2396 111.73 42.5658 112.034 42.8089C112.342 43.049 112.724 43.169 113.179 43.169ZM122.115 44.1662C121.666 44.1662 121.258 44.0816 120.891 43.9123C120.525 43.7399 120.234 43.4922 120.019 43.169C119.804 42.8428 119.696 42.4489 119.696 41.9872C119.696 41.581 119.776 41.2517 119.936 40.9993C120.096 40.7438 120.31 40.5438 120.578 40.3991C120.845 40.2545 121.141 40.1468 121.464 40.076C121.79 40.0021 122.118 39.9437 122.447 39.9006C122.878 39.8452 123.227 39.8036 123.495 39.7759C123.766 39.7451 123.963 39.6944 124.086 39.6236C124.212 39.5528 124.275 39.4297 124.275 39.2543V39.2173C124.275 38.7618 124.151 38.4079 123.901 38.1555C123.655 37.9032 123.281 37.777 122.78 37.777C122.26 37.777 121.852 37.8909 121.556 38.1186C121.261 38.3464 121.053 38.5895 120.933 38.848L119.899 38.4787C120.084 38.0478 120.33 37.7124 120.638 37.4723C120.948 37.2292 121.287 37.0599 121.653 36.9645C122.023 36.866 122.386 36.8168 122.743 36.8168C122.97 36.8168 123.232 36.8445 123.528 36.8999C123.826 36.9522 124.114 37.0614 124.391 37.2276C124.671 37.3938 124.903 37.6446 125.088 37.9801C125.273 38.3156 125.365 38.7649 125.365 39.3281V44H124.275V43.0398H124.22C124.146 43.1937 124.023 43.3583 123.851 43.5337C123.678 43.7092 123.449 43.8584 123.163 43.9815C122.877 44.1046 122.527 44.1662 122.115 44.1662ZM122.281 43.1875C122.712 43.1875 123.075 43.1029 123.371 42.9336C123.669 42.7643 123.894 42.5458 124.045 42.2781C124.198 42.0103 124.275 41.7287 124.275 41.4332V40.4361C124.229 40.4915 124.128 40.5423 123.971 40.5884C123.817 40.6315 123.638 40.67 123.435 40.7038C123.235 40.7346 123.04 40.7623 122.849 40.7869C122.661 40.8085 122.509 40.8269 122.392 40.8423C122.109 40.8793 121.844 40.9393 121.598 41.0224C121.355 41.1024 121.158 41.224 121.007 41.3871C120.859 41.5471 120.785 41.7656 120.785 42.0426C120.785 42.4212 120.925 42.7074 121.205 42.9013C121.489 43.0921 121.847 43.1875 122.281 43.1875ZM131.631 44.1477C131.04 44.1477 130.518 43.9985 130.066 43.6999C129.614 43.3983 129.26 42.9736 129.004 42.4258C128.749 41.8749 128.621 41.224 128.621 40.473C128.621 39.7282 128.749 39.0819 129.004 38.5341C129.26 37.9863 129.615 37.5631 130.071 37.2646C130.526 36.966 131.052 36.8168 131.649 36.8168C132.111 36.8168 132.476 36.8937 132.744 37.0476C133.014 37.1984 133.221 37.3707 133.362 37.5646C133.507 37.7554 133.619 37.9124 133.699 38.0355H133.791V34.5455H134.881V44H133.828V42.9105H133.699C133.619 43.0398 133.505 43.2029 133.358 43.3999C133.21 43.5937 132.999 43.7676 132.725 43.9215C132.451 44.0723 132.086 44.1477 131.631 44.1477ZM131.779 43.169C132.216 43.169 132.585 43.0552 132.887 42.8274C133.188 42.5966 133.418 42.2781 133.575 41.8718C133.731 41.4625 133.81 40.9901 133.81 40.4545C133.81 39.9252 133.733 39.462 133.579 39.065C133.425 38.6649 133.197 38.354 132.896 38.1325C132.594 37.9078 132.222 37.7955 131.779 37.7955C131.317 37.7955 130.932 37.9139 130.625 38.1509C130.32 38.3848 130.091 38.7034 129.937 39.1065C129.786 39.5066 129.711 39.956 129.711 40.4545C129.711 40.9593 129.787 41.4179 129.941 41.8303C130.098 42.2396 130.329 42.5658 130.634 42.8089C130.942 43.049 131.323 43.169 131.779 43.169ZM144.586 46.6591C144.401 46.6591 144.236 46.6437 144.092 46.6129C143.947 46.5852 143.847 46.5575 143.792 46.5298L144.069 45.5696C144.333 45.6373 144.567 45.6619 144.77 45.6435C144.973 45.625 145.153 45.5342 145.31 45.3711C145.47 45.2111 145.617 44.951 145.749 44.5909L145.952 44.0369L143.33 36.9091H144.512L146.469 42.5597H146.543L148.5 36.9091H149.682L146.672 45.0341C146.537 45.4003 146.369 45.7035 146.169 45.9435C145.969 46.1867 145.737 46.3667 145.472 46.4837C145.21 46.6006 144.915 46.6591 144.586 46.6591ZM54.1449 60V50.5455H57.3395C58.0812 50.5455 58.6875 50.6793 59.1584 50.9471C59.6323 51.2118 59.9832 51.5703 60.2109 52.0227C60.4387 52.4751 60.5526 52.9799 60.5526 53.5369C60.5526 54.094 60.4387 54.6003 60.2109 55.0558C59.9863 55.5112 59.6385 55.8744 59.1676 56.1452C58.6967 56.413 58.0935 56.5469 57.358 56.5469H55.0682V55.5312H57.321C57.8288 55.5312 58.2366 55.4435 58.5444 55.2681C58.8522 55.0927 59.0753 54.8557 59.2138 54.5572C59.3554 54.2556 59.4261 53.9155 59.4261 53.5369C59.4261 53.1584 59.3554 52.8198 59.2138 52.5213C59.0753 52.2228 58.8506 51.9889 58.5398 51.8196C58.2289 51.6473 57.8165 51.5611 57.3026 51.5611H55.2898V60H54.1449ZM66.746 60.1477C66.0627 60.1477 65.4733 59.9969 64.9778 59.6953C64.4854 59.3906 64.1053 58.9659 63.8376 58.4212C63.5729 57.8733 63.4406 57.2363 63.4406 56.5099C63.4406 55.7836 63.5729 55.1435 63.8376 54.5895C64.1053 54.0324 64.4777 53.5985 64.9548 53.2876C65.4349 52.9737 65.995 52.8168 66.6352 52.8168C67.0045 52.8168 67.3692 52.8783 67.7293 53.0014C68.0893 53.1245 68.4171 53.3246 68.7126 53.6016C69.008 53.8755 69.2435 54.2386 69.4189 54.6911C69.5943 55.1435 69.682 55.7005 69.682 56.3622V56.8239H64.2161V55.8821H68.5741C68.5741 55.482 68.4941 55.125 68.334 54.8111C68.1771 54.4972 67.9524 54.2494 67.66 54.0678C67.3707 53.8862 67.0291 53.7955 66.6352 53.7955C66.2012 53.7955 65.8257 53.9032 65.5087 54.1186C65.1948 54.331 64.9532 54.608 64.7839 54.9496C64.6147 55.2912 64.53 55.6574 64.53 56.0483V56.6761C64.53 57.2116 64.6224 57.6656 64.807 58.038C64.9948 58.4073 65.2548 58.6889 65.5872 58.8828C65.9196 59.0736 66.3058 59.169 66.746 59.169C67.0322 59.169 67.2907 59.129 67.5215 59.049C67.7554 58.9659 67.957 58.8428 68.1263 58.6797C68.2955 58.5135 68.4263 58.3073 68.5187 58.0611L69.5712 58.3565C69.4604 58.7135 69.2742 59.0275 69.0126 59.2983C68.751 59.5661 68.4279 59.7753 68.0432 59.9261C67.6585 60.0739 67.2261 60.1477 66.746 60.1477ZM72.9393 60V52.9091H73.9919V53.9801H74.0658C74.195 53.6293 74.4289 53.3446 74.7675 53.1261C75.106 52.9076 75.4876 52.7983 75.9124 52.7983C75.9924 52.7983 76.0924 52.7998 76.2124 52.8029C76.3325 52.806 76.4232 52.8106 76.4848 52.8168V53.9247C76.4479 53.9155 76.3632 53.9016 76.2309 53.8832C76.1016 53.8616 75.9647 53.8509 75.82 53.8509C75.4753 53.8509 75.1676 53.9232 74.8967 54.0678C74.629 54.2094 74.4166 54.4064 74.2597 54.6587C74.1058 54.908 74.0288 55.1927 74.0288 55.5128V60H72.9393ZM82.9044 52.9091V53.8324H79.2297V52.9091H82.9044ZM80.3007 51.2102H81.3902V57.9688C81.3902 58.2765 81.4348 58.5073 81.5241 58.6612C81.6164 58.812 81.7334 58.9136 81.8749 58.9659C82.0196 59.0152 82.1719 59.0398 82.332 59.0398C82.452 59.0398 82.5505 59.0336 82.6274 59.0213C82.7044 59.0059 82.7659 58.9936 82.8121 58.9844L83.0337 59.9631C82.9598 59.9908 82.8567 60.0185 82.7244 60.0462C82.592 60.0769 82.4243 60.0923 82.2212 60.0923C81.9134 60.0923 81.6118 60.0262 81.3163 59.8938C81.024 59.7615 80.7808 59.5599 80.5869 59.2891C80.3961 59.0182 80.3007 58.6766 80.3007 58.2642V51.2102ZM89.0401 60.1477C88.3569 60.1477 87.7675 59.9969 87.272 59.6953C86.7796 59.3906 86.3995 58.9659 86.1317 58.4212C85.867 57.8733 85.7347 57.2363 85.7347 56.5099C85.7347 55.7836 85.867 55.1435 86.1317 54.5895C86.3995 54.0324 86.7719 53.5985 87.2489 53.2876C87.729 52.9737 88.2891 52.8168 88.9293 52.8168C89.2986 52.8168 89.6633 52.8783 90.0234 53.0014C90.3835 53.1245 90.7113 53.3246 91.0067 53.6016C91.3022 53.8755 91.5376 54.2386 91.713 54.6911C91.8885 55.1435 91.9762 55.7005 91.9762 56.3622V56.8239H86.5103V55.8821H90.8682C90.8682 55.482 90.7882 55.125 90.6282 54.8111C90.4712 54.4972 90.2465 54.2494 89.9542 54.0678C89.6649 53.8862 89.3232 53.7955 88.9293 53.7955C88.4953 53.7955 88.1199 53.9032 87.8029 54.1186C87.489 54.331 87.2474 54.608 87.0781 54.9496C86.9088 55.2912 86.8242 55.6574 86.8242 56.0483V56.6761C86.8242 57.2116 86.9165 57.6656 87.1012 58.038C87.2889 58.4073 87.549 58.6889 87.8814 58.8828C88.2137 59.0736 88.6 59.169 89.0401 59.169C89.3263 59.169 89.5848 59.129 89.8157 59.049C90.0496 58.9659 90.2511 58.8428 90.4204 58.6797C90.5897 58.5135 90.7205 58.3073 90.8128 58.0611L91.8654 58.3565C91.7546 58.7135 91.5684 59.0275 91.3068 59.2983C91.0452 59.5661 90.722 59.7753 90.3373 59.9261C89.9526 60.0739 89.5202 60.1477 89.0401 60.1477ZM96.323 55.7344V60H95.2335V52.9091H96.286V54.017H96.3784C96.5446 53.657 96.7969 53.3677 97.1355 53.1491C97.474 52.9276 97.911 52.8168 98.4466 52.8168C98.9267 52.8168 99.3468 52.9152 99.7069 53.1122C100.067 53.3061 100.347 53.6016 100.547 53.9986C100.747 54.3925 100.847 54.8911 100.847 55.4943V60H99.7576V55.5682C99.7576 55.0111 99.613 54.5772 99.3237 54.2663C99.0344 53.9524 98.6374 53.7955 98.1326 53.7955C97.7849 53.7955 97.474 53.8709 97.2001 54.0217C96.9293 54.1725 96.7154 54.3925 96.5584 54.6818C96.4015 54.9711 96.323 55.322 96.323 55.7344ZM107.411 60.1477C106.728 60.1477 106.138 59.9969 105.643 59.6953C105.15 59.3906 104.77 58.9659 104.503 58.4212C104.238 57.8733 104.106 57.2363 104.106 56.5099C104.106 55.7836 104.238 55.1435 104.503 54.5895C104.77 54.0324 105.143 53.5985 105.62 53.2876C106.1 52.9737 106.66 52.8168 107.3 52.8168C107.67 52.8168 108.034 52.8783 108.394 53.0014C108.754 53.1245 109.082 53.3246 109.378 53.6016C109.673 53.8755 109.909 54.2386 110.084 54.6911C110.259 55.1435 110.347 55.7005 110.347 56.3622V56.8239H104.881V55.8821H109.239C109.239 55.482 109.159 55.125 108.999 54.8111C108.842 54.4972 108.617 54.2494 108.325 54.0678C108.036 53.8862 107.694 53.7955 107.3 53.7955C106.866 53.7955 106.491 53.9032 106.174 54.1186C105.86 54.331 105.618 54.608 105.449 54.9496C105.28 55.2912 105.195 55.6574 105.195 56.0483V56.6761C105.195 57.2116 105.287 57.6656 105.472 58.038C105.66 58.4073 105.92 58.6889 106.252 58.8828C106.585 59.0736 106.971 59.169 107.411 59.169C107.697 59.169 107.956 59.129 108.187 59.049C108.42 58.9659 108.622 58.8428 108.791 58.6797C108.961 58.5135 109.091 58.3073 109.184 58.0611L110.236 58.3565C110.125 58.7135 109.939 59.0275 109.678 59.2983C109.416 59.5661 109.093 59.7753 108.708 59.9261C108.324 60.0739 107.891 60.1477 107.411 60.1477ZM114.694 55.7344V60H113.604V52.9091H114.657V54.017H114.749C114.915 53.657 115.168 53.3677 115.506 53.1491C115.845 52.9276 116.282 52.8168 116.817 52.8168C117.298 52.8168 117.718 52.9152 118.078 53.1122C118.438 53.3061 118.718 53.6016 118.918 53.9986C119.118 54.3925 119.218 54.8911 119.218 55.4943V60H118.129V55.5682C118.129 55.0111 117.984 54.5772 117.695 54.2663C117.405 53.9524 117.008 53.7955 116.504 53.7955C116.156 53.7955 115.845 53.8709 115.571 54.0217C115.3 54.1725 115.086 54.3925 114.929 54.6818C114.772 54.9711 114.694 55.322 114.694 55.7344ZM125.69 60.1477C125.025 60.1477 124.452 59.9908 123.972 59.6768C123.492 59.3629 123.123 58.9305 122.864 58.3796C122.606 57.8287 122.476 57.1993 122.476 56.4915C122.476 55.7713 122.609 55.1358 122.874 54.5849C123.141 54.0309 123.514 53.5985 123.991 53.2876C124.471 52.9737 125.031 52.8168 125.671 52.8168C126.17 52.8168 126.619 52.9091 127.019 53.0938C127.419 53.2784 127.747 53.5369 128.002 53.8693C128.258 54.2017 128.416 54.5895 128.478 55.0327H127.388C127.305 54.7095 127.121 54.4233 126.834 54.174C126.551 53.9216 126.17 53.7955 125.69 53.7955C125.265 53.7955 124.892 53.9062 124.572 54.1278C124.255 54.3464 124.008 54.6557 123.829 55.0558C123.654 55.4528 123.566 55.919 123.566 56.4545C123.566 57.0024 123.652 57.4794 123.825 57.8857C124 58.2919 124.246 58.6074 124.563 58.832C124.883 59.0567 125.259 59.169 125.69 59.169C125.973 59.169 126.23 59.1198 126.461 59.0213C126.691 58.9228 126.887 58.7812 127.047 58.5966C127.207 58.4119 127.321 58.1903 127.388 57.9318H128.478C128.416 58.3504 128.264 58.7274 128.021 59.0629C127.781 59.3952 127.462 59.6599 127.065 59.8569C126.671 60.0508 126.213 60.1477 125.69 60.1477ZM131.671 60V52.9091H132.76V60H131.671ZM132.225 51.7273C132.012 51.7273 131.829 51.6549 131.675 51.5103C131.524 51.3656 131.449 51.1918 131.449 50.9886C131.449 50.7855 131.524 50.6116 131.675 50.467C131.829 50.3223 132.012 50.25 132.225 50.25C132.437 50.25 132.619 50.3223 132.769 50.467C132.923 50.6116 133 50.7855 133 50.9886C133 51.1918 132.923 51.3656 132.769 51.5103C132.619 51.6549 132.437 51.7273 132.225 51.7273ZM138.442 60.1662C137.993 60.1662 137.585 60.0816 137.219 59.9123C136.853 59.7399 136.562 59.4922 136.346 59.169C136.131 58.8428 136.023 58.4489 136.023 57.9872C136.023 57.581 136.103 57.2517 136.263 56.9993C136.423 56.7438 136.637 56.5438 136.905 56.3991C137.173 56.2545 137.468 56.1468 137.791 56.076C138.118 56.0021 138.445 55.9437 138.775 55.9006C139.205 55.8452 139.555 55.8036 139.823 55.7759C140.093 55.7451 140.29 55.6944 140.413 55.6236C140.54 55.5528 140.603 55.4297 140.603 55.2543V55.2173C140.603 54.7618 140.478 54.4079 140.229 54.1555C139.983 53.9032 139.609 53.777 139.107 53.777C138.587 53.777 138.179 53.8909 137.884 54.1186C137.588 54.3464 137.38 54.5895 137.26 54.848L136.226 54.4787C136.411 54.0478 136.657 53.7124 136.965 53.4723C137.276 53.2292 137.614 53.0599 137.981 52.9645C138.35 52.866 138.713 52.8168 139.07 52.8168C139.298 52.8168 139.559 52.8445 139.855 52.8999C140.153 52.9522 140.441 53.0614 140.718 53.2276C140.998 53.3938 141.231 53.6446 141.415 53.9801C141.6 54.3156 141.692 54.7649 141.692 55.3281V60H140.603V59.0398H140.547C140.473 59.1937 140.35 59.3583 140.178 59.5337C140.006 59.7092 139.776 59.8584 139.49 59.9815C139.204 60.1046 138.855 60.1662 138.442 60.1662ZM138.608 59.1875C139.039 59.1875 139.402 59.1029 139.698 58.9336C139.996 58.7643 140.221 58.5458 140.372 58.2781C140.526 58.0103 140.603 57.7287 140.603 57.4332V56.4361C140.557 56.4915 140.455 56.5423 140.298 56.5884C140.144 56.6315 139.966 56.67 139.763 56.7038C139.562 56.7346 139.367 56.7623 139.176 56.7869C138.988 56.8085 138.836 56.8269 138.719 56.8423C138.436 56.8793 138.171 56.9393 137.925 57.0224C137.682 57.1024 137.485 57.224 137.334 57.3871C137.187 57.5471 137.113 57.7656 137.113 58.0426C137.113 58.4212 137.253 58.7074 137.533 58.9013C137.816 59.0921 138.174 59.1875 138.608 59.1875Z" fill="black"/>
</svg>
