<svg width="183" height="60" viewBox="0 0 183 60" fill="none" xmlns="http://www.w3.org/2000/svg">
<path d="M43.1 42.5H18.1M41.85 42.5V31.25M29.355 21.25C29.3775 19.7 29.4925 18.8212 30.0825 18.2325C30.815 17.5 31.9925 17.5 34.35 17.5H36.85C39.2075 17.5 40.385 17.5 41.1175 18.2325C41.85 18.965 41.85 20.1425 41.85 22.5V26.25" stroke="#353535" stroke-width="1.875" stroke-linecap="round"/>
<path d="M34.35 42.5V35M19.35 42.5V31.25M19.35 26.25C19.35 23.8925 19.35 22.715 20.0825 21.9825C20.815 21.25 21.9925 21.25 24.35 21.25H29.35C31.7075 21.25 32.885 21.25 33.6175 21.9825C34.35 22.715 34.35 23.8925 34.35 26.25V30M26.85 42.5V38.75M23.1 25H30.6M23.1 28.75H24.35M30.6 28.75H27.475M23.1 32.5H30.6" stroke="#353535" stroke-width="1.875" stroke-linecap="round"/>
<path d="M55.8897 32.5455V42H54.7449V32.5455H55.8897ZM60.7271 37.7344V42H59.6376V34.9091H60.6901V36.017H60.7825C60.9486 35.657 61.201 35.3677 61.5396 35.1491C61.8781 34.9276 62.3151 34.8168 62.8506 34.8168C63.3307 34.8168 63.7508 34.9152 64.1109 35.1122C64.471 35.3061 64.7511 35.6016 64.9511 35.9986C65.1512 36.3925 65.2512 36.8911 65.2512 37.4943V42H64.1617V37.5682C64.1617 37.0111 64.0171 36.5772 63.7278 36.2663C63.4385 35.9524 63.0414 35.7955 62.5367 35.7955C62.1889 35.7955 61.8781 35.8709 61.6042 36.0217C61.3334 36.1725 61.1195 36.3925 60.9625 36.6818C60.8055 36.9711 60.7271 37.322 60.7271 37.7344ZM71.9997 34.9091V35.8324H68.1773V34.9091H71.9997ZM69.3222 42V33.9304C69.3222 33.5241 69.4176 33.1856 69.6084 32.9148C69.7992 32.6439 70.047 32.4408 70.3516 32.3054C70.6563 32.17 70.9779 32.1023 71.3165 32.1023C71.5842 32.1023 71.8028 32.1238 71.972 32.1669C72.1413 32.21 72.2675 32.25 72.3506 32.2869L72.0367 33.2287C71.9813 33.2102 71.9043 33.1871 71.8058 33.1594C71.7104 33.1317 71.5842 33.1179 71.4273 33.1179C71.0672 33.1179 70.8071 33.2087 70.6471 33.3903C70.4901 33.5719 70.4117 33.8381 70.4117 34.1889V42H69.3222ZM75.1266 42V34.9091H76.1792V35.9801H76.253C76.3823 35.6293 76.6162 35.3446 76.9548 35.1261C77.2933 34.9076 77.6749 34.7983 78.0996 34.7983C78.1797 34.7983 78.2797 34.7998 78.3997 34.8029C78.5197 34.806 78.6105 34.8106 78.6721 34.8168V35.9247C78.6351 35.9155 78.5505 35.9016 78.4182 35.8832C78.2889 35.8616 78.152 35.8509 78.0073 35.8509C77.6626 35.8509 77.3548 35.9232 77.084 36.0678C76.8163 36.2094 76.6039 36.4064 76.4469 36.6587C76.2931 36.908 76.2161 37.1927 76.2161 37.5128V42H75.1266ZM83.6502 42.1662C83.2009 42.1662 82.7931 42.0816 82.4268 41.9123C82.0606 41.7399 81.7697 41.4922 81.5543 41.169C81.3389 40.8428 81.2312 40.4489 81.2312 39.9872C81.2312 39.581 81.3112 39.2517 81.4712 38.9993C81.6312 38.7438 81.8451 38.5438 82.1129 38.3991C82.3807 38.2545 82.6761 38.1468 82.9993 38.076C83.3255 38.0021 83.6533 37.9437 83.9826 37.9006C84.4134 37.8452 84.7628 37.8036 85.0305 37.7759C85.3013 37.7451 85.4983 37.6944 85.6214 37.6236C85.7476 37.5528 85.8107 37.4297 85.8107 37.2543V37.2173C85.8107 36.7618 85.6861 36.4079 85.4368 36.1555C85.1906 35.9032 84.8166 35.777 84.315 35.777C83.7948 35.777 83.387 35.8909 83.0916 36.1186C82.7961 36.3464 82.5884 36.5895 82.4684 36.848L81.4343 36.4787C81.6189 36.0478 81.8652 35.7124 82.1729 35.4723C82.4838 35.2292 82.8223 35.0599 83.1885 34.9645C83.5579 34.866 83.921 34.8168 84.278 34.8168C84.5058 34.8168 84.7674 34.8445 85.0628 34.8999C85.3614 34.9522 85.6491 35.0614 85.9261 35.2276C86.2062 35.3938 86.4385 35.6446 86.6232 35.9801C86.8079 36.3156 86.9002 36.7649 86.9002 37.3281V42H85.8107V41.0398H85.7553C85.6814 41.1937 85.5583 41.3583 85.386 41.5337C85.2136 41.7092 84.9844 41.8584 84.6981 41.9815C84.4119 42.1046 84.0626 42.1662 83.6502 42.1662ZM83.8164 41.1875C84.2473 41.1875 84.6104 41.1029 84.9059 40.9336C85.2044 40.7643 85.4291 40.5458 85.5799 40.2781C85.7338 40.0103 85.8107 39.7287 85.8107 39.4332V38.4361C85.7645 38.4915 85.663 38.5423 85.506 38.5884C85.3521 38.6315 85.1736 38.67 84.9705 38.7038C84.7705 38.7346 84.575 38.7623 84.3842 38.7869C84.1965 38.8085 84.0441 38.8269 83.9272 38.8423C83.644 38.8793 83.3794 38.9393 83.1331 39.0224C82.89 39.1024 82.693 39.224 82.5422 39.3871C82.3945 39.5471 82.3206 39.7656 82.3206 40.0426C82.3206 40.4212 82.4607 40.7074 82.7407 40.9013C83.0239 41.0921 83.3824 41.1875 83.8164 41.1875ZM93.4617 42.1477C92.7785 42.1477 92.1891 41.9969 91.6936 41.6953C91.2012 41.3906 90.8211 40.9659 90.5534 40.4212C90.2887 39.8733 90.1563 39.2363 90.1563 38.5099C90.1563 37.7836 90.2887 37.1435 90.5534 36.5895C90.8211 36.0324 91.1935 35.5985 91.6706 35.2876C92.1507 34.9737 92.7108 34.8168 93.351 34.8168C93.7203 34.8168 94.085 34.8783 94.4451 35.0014C94.8051 35.1245 95.1329 35.3246 95.4284 35.6016C95.7238 35.8755 95.9593 36.2386 96.1347 36.6911C96.3101 37.1435 96.3978 37.7005 96.3978 38.3622V38.8239H90.9319V37.8821H95.2899C95.2899 37.482 95.2099 37.125 95.0498 36.8111C94.8929 36.4972 94.6682 36.2494 94.3758 36.0678C94.0865 35.8862 93.7449 35.7955 93.351 35.7955C92.917 35.7955 92.5415 35.9032 92.2245 36.1186C91.9106 36.331 91.669 36.608 91.4997 36.9496C91.3305 37.2912 91.2458 37.6574 91.2458 38.0483V38.6761C91.2458 39.2116 91.3382 39.6656 91.5228 40.038C91.7106 40.4073 91.9706 40.6889 92.303 40.8828C92.6354 41.0736 93.0216 41.169 93.4617 41.169C93.748 41.169 94.0065 41.129 94.2373 41.049C94.4712 40.9659 94.6728 40.8428 94.8421 40.6797C95.0113 40.5135 95.1421 40.3073 95.2345 40.0611L96.287 40.3565C96.1762 40.7135 95.99 41.0275 95.7284 41.2983C95.4668 41.5661 95.1437 41.7753 94.759 41.9261C94.3743 42.0739 93.9419 42.1477 93.4617 42.1477ZM104.678 36.4972L103.699 36.7741C103.638 36.611 103.547 36.4525 103.427 36.2987C103.31 36.1417 103.15 36.0124 102.947 35.9109C102.744 35.8093 102.484 35.7585 102.167 35.7585C101.733 35.7585 101.371 35.8585 101.082 36.0586C100.795 36.2556 100.652 36.5064 100.652 36.8111C100.652 37.0819 100.751 37.2958 100.948 37.4528C101.145 37.6097 101.452 37.7405 101.871 37.8452L102.924 38.1037C103.558 38.2576 104.03 38.493 104.341 38.81C104.652 39.1239 104.807 39.5286 104.807 40.0241C104.807 40.4304 104.69 40.7936 104.456 41.1136C104.225 41.4337 103.902 41.6861 103.487 41.8707C103.071 42.0554 102.588 42.1477 102.037 42.1477C101.314 42.1477 100.715 41.9908 100.241 41.6768C99.7675 41.3629 99.4674 40.9044 99.3412 40.3011L100.375 40.0426C100.474 40.4242 100.66 40.7105 100.934 40.9013C101.211 41.0921 101.573 41.1875 102.019 41.1875C102.527 41.1875 102.93 41.0798 103.228 40.8643C103.53 40.6458 103.681 40.3842 103.681 40.0795C103.681 39.8333 103.595 39.6271 103.422 39.4609C103.25 39.2917 102.985 39.1655 102.628 39.0824L101.446 38.8054C100.797 38.6515 100.32 38.413 100.015 38.0898C99.7136 37.7636 99.5628 37.3558 99.5628 36.8665C99.5628 36.4664 99.6751 36.1125 99.8998 35.8047C100.128 35.4969 100.437 35.2553 100.828 35.0799C101.222 34.9045 101.668 34.8168 102.167 34.8168C102.868 34.8168 103.419 34.9706 103.819 35.2784C104.222 35.5862 104.509 35.9924 104.678 36.4972ZM111.131 34.9091V35.8324H107.456V34.9091H111.131ZM108.527 33.2102H109.617V39.9688C109.617 40.2765 109.661 40.5073 109.751 40.6612C109.843 40.812 109.96 40.9136 110.101 40.9659C110.246 41.0152 110.398 41.0398 110.558 41.0398C110.679 41.0398 110.777 41.0336 110.854 41.0213C110.931 41.0059 110.992 40.9936 111.039 40.9844L111.26 41.9631C111.186 41.9908 111.083 42.0185 110.951 42.0462C110.819 42.0769 110.651 42.0923 110.448 42.0923C110.14 42.0923 109.838 42.0262 109.543 41.8938C109.25 41.7615 109.007 41.5599 108.813 41.2891C108.623 41.0182 108.527 40.6766 108.527 40.2642V33.2102ZM114.37 42V34.9091H115.422V35.9801H115.496C115.625 35.6293 115.859 35.3446 116.198 35.1261C116.536 34.9076 116.918 34.7983 117.343 34.7983C117.423 34.7983 117.523 34.7998 117.643 34.8029C117.763 34.806 117.854 34.8106 117.915 34.8168V35.9247C117.878 35.9155 117.794 35.9016 117.661 35.8832C117.532 35.8616 117.395 35.8509 117.25 35.8509C116.906 35.8509 116.598 35.9232 116.327 36.0678C116.059 36.2094 115.847 36.4064 115.69 36.6587C115.536 36.908 115.459 37.1927 115.459 37.5128V42H114.37ZM125.275 39.1009V34.9091H126.365V42H125.275V40.7997H125.202C125.035 41.1598 124.777 41.466 124.426 41.7184C124.075 41.9677 123.632 42.0923 123.096 42.0923C122.653 42.0923 122.259 41.9954 121.915 41.8015C121.57 41.6045 121.299 41.3091 121.102 40.9151C120.905 40.5181 120.807 40.018 120.807 39.4148V34.9091H121.896V39.3409C121.896 39.858 122.041 40.2704 122.33 40.5781C122.623 40.8859 122.995 41.0398 123.447 41.0398C123.718 41.0398 123.994 40.9705 124.274 40.832C124.557 40.6935 124.794 40.4812 124.985 40.195C125.179 39.9087 125.275 39.544 125.275 39.1009ZM132.841 42.1477C132.176 42.1477 131.604 41.9908 131.124 41.6768C130.644 41.3629 130.274 40.9305 130.016 40.3796C129.757 39.8287 129.628 39.1993 129.628 38.4915C129.628 37.7713 129.76 37.1358 130.025 36.5849C130.293 36.0309 130.665 35.5985 131.142 35.2876C131.622 34.9737 132.182 34.8168 132.823 34.8168C133.321 34.8168 133.771 34.9091 134.171 35.0938C134.571 35.2784 134.899 35.5369 135.154 35.8693C135.409 36.2017 135.568 36.5895 135.629 37.0327H134.54C134.457 36.7095 134.272 36.4233 133.986 36.174C133.703 35.9216 133.321 35.7955 132.841 35.7955C132.416 35.7955 132.044 35.9062 131.724 36.1278C131.407 36.3464 131.159 36.6557 130.981 37.0558C130.805 37.4528 130.718 37.919 130.718 38.4545C130.718 39.0024 130.804 39.4794 130.976 39.8857C131.151 40.2919 131.398 40.6074 131.715 40.832C132.035 41.0567 132.41 41.169 132.841 41.169C133.124 41.169 133.381 41.1198 133.612 41.0213C133.843 40.9228 134.038 40.7812 134.198 40.5966C134.358 40.4119 134.472 40.1903 134.54 39.9318H135.629C135.568 40.3504 135.416 40.7274 135.172 41.0629C134.932 41.3952 134.614 41.6599 134.217 41.8569C133.823 42.0508 133.364 42.1477 132.841 42.1477ZM141.906 34.9091V35.8324H138.231V34.9091H141.906ZM139.302 33.2102H140.392V39.9688C140.392 40.2765 140.436 40.5073 140.526 40.6612C140.618 40.812 140.735 40.9136 140.876 40.9659C141.021 41.0152 141.173 41.0398 141.333 41.0398C141.454 41.0398 141.552 41.0336 141.629 41.0213C141.706 41.0059 141.767 40.9936 141.814 40.9844L142.035 41.9631C141.961 41.9908 141.858 42.0185 141.726 42.0462C141.594 42.0769 141.426 42.0923 141.223 42.0923C140.915 42.0923 140.613 42.0262 140.318 41.8938C140.025 41.7615 139.782 41.5599 139.588 41.2891C139.398 41.0182 139.302 40.6766 139.302 40.2642V33.2102ZM149.614 39.1009V34.9091H150.703V42H149.614V40.7997H149.54C149.373 41.1598 149.115 41.466 148.764 41.7184C148.413 41.9677 147.97 42.0923 147.435 42.0923C146.991 42.0923 146.597 41.9954 146.253 41.8015C145.908 41.6045 145.637 41.3091 145.44 40.9151C145.243 40.5181 145.145 40.018 145.145 39.4148V34.9091H146.234V39.3409C146.234 39.858 146.379 40.2704 146.668 40.5781C146.961 40.8859 147.333 41.0398 147.785 41.0398C148.056 41.0398 148.332 40.9705 148.612 40.832C148.895 40.6935 149.132 40.4812 149.323 40.195C149.517 39.9087 149.614 39.544 149.614 39.1009ZM154.299 42V34.9091H155.351V35.9801H155.425C155.554 35.6293 155.788 35.3446 156.127 35.1261C156.465 34.9076 156.847 34.7983 157.272 34.7983C157.352 34.7983 157.452 34.7998 157.572 34.8029C157.692 34.806 157.782 34.8106 157.844 34.8168V35.9247C157.807 35.9155 157.722 35.9016 157.59 35.8832C157.461 35.8616 157.324 35.8509 157.179 35.8509C156.834 35.8509 156.527 35.9232 156.256 36.0678C155.988 36.2094 155.776 36.4064 155.619 36.6587C155.465 36.908 155.388 37.1927 155.388 37.5128V42H154.299ZM162.822 42.1662C162.373 42.1662 161.965 42.0816 161.599 41.9123C161.232 41.7399 160.942 41.4922 160.726 41.169C160.511 40.8428 160.403 40.4489 160.403 39.9872C160.403 39.581 160.483 39.2517 160.643 38.9993C160.803 38.7438 161.017 38.5438 161.285 38.3991C161.553 38.2545 161.848 38.1468 162.171 38.076C162.497 38.0021 162.825 37.9437 163.154 37.9006C163.585 37.8452 163.935 37.8036 164.202 37.7759C164.473 37.7451 164.67 37.6944 164.793 37.6236C164.919 37.5528 164.983 37.4297 164.983 37.2543V37.2173C164.983 36.7618 164.858 36.4079 164.609 36.1555C164.362 35.9032 163.988 35.777 163.487 35.777C162.967 35.777 162.559 35.8909 162.263 36.1186C161.968 36.3464 161.76 36.5895 161.64 36.848L160.606 36.4787C160.791 36.0478 161.037 35.7124 161.345 35.4723C161.656 35.2292 161.994 35.0599 162.36 34.9645C162.73 34.866 163.093 34.8168 163.45 34.8168C163.678 34.8168 163.939 34.8445 164.235 34.8999C164.533 34.9522 164.821 35.0614 165.098 35.2276C165.378 35.3938 165.61 35.6446 165.795 35.9801C165.98 36.3156 166.072 36.7649 166.072 37.3281V42H164.983V41.0398H164.927C164.853 41.1937 164.73 41.3583 164.558 41.5337C164.386 41.7092 164.156 41.8584 163.87 41.9815C163.584 42.1046 163.234 42.1662 162.822 42.1662ZM162.988 41.1875C163.419 41.1875 163.782 41.1029 164.078 40.9336C164.376 40.7643 164.601 40.5458 164.752 40.2781C164.906 40.0103 164.983 39.7287 164.983 39.4332V38.4361C164.936 38.4915 164.835 38.5423 164.678 38.5884C164.524 38.6315 164.346 38.67 164.142 38.7038C163.942 38.7346 163.747 38.7623 163.556 38.7869C163.368 38.8085 163.216 38.8269 163.099 38.8423C162.816 38.8793 162.551 38.9393 162.305 39.0224C162.062 39.1024 161.865 39.224 161.714 39.3871C161.566 39.5471 161.493 39.7656 161.493 40.0426C161.493 40.4212 161.633 40.7074 161.913 40.9013C162.196 41.0921 162.554 41.1875 162.988 41.1875Z" fill="black"/>
</svg>
