<svg width="184" height="62" viewBox="0 0 184 62" fill="none" xmlns="http://www.w3.org/2000/svg">
<path d="M43.1 44.5H18.1M41.85 44.5V33.25M29.355 23.25C29.3775 21.7 29.4925 20.8212 30.0825 20.2325C30.815 19.5 31.9925 19.5 34.35 19.5H36.85C39.2075 19.5 40.385 19.5 41.1175 20.2325C41.85 20.965 41.85 22.1425 41.85 24.5V28.25" stroke="#353535" stroke-width="1.875" stroke-linecap="round"/>
<path d="M34.35 44.5V37M19.35 44.5V33.25M19.35 28.25C19.35 25.8925 19.35 24.715 20.0825 23.9825C20.815 23.25 21.9925 23.25 24.35 23.25H29.35C31.7075 23.25 32.885 23.25 33.6175 23.9825C34.35 24.715 34.35 25.8925 34.35 28.25V32M26.85 44.5V40.75M23.1 27H30.6M23.1 30.75H24.35M30.6 30.75H27.475M23.1 34.5H30.6" stroke="#353535" stroke-width="1.875" stroke-linecap="round"/>
<path d="M57.9027 18.5455V28H56.7578V19.7457H56.7024L54.3941 21.2784V20.1151L56.7578 18.5455H57.9027ZM65.3056 28.1293C64.61 28.1293 64.0176 27.94 63.5282 27.5614C63.0389 27.1798 62.6649 26.6274 62.4064 25.9041C62.1479 25.1778 62.0186 24.3007 62.0186 23.2727C62.0186 22.2509 62.1479 21.3784 62.4064 20.6552C62.668 19.9289 63.0435 19.3749 63.5328 18.9933C64.0253 18.6085 64.6162 18.4162 65.3056 18.4162C65.995 18.4162 66.5843 18.6085 67.0737 18.9933C67.5661 19.3749 67.9416 19.9289 68.2001 20.6552C68.4617 21.3784 68.5925 22.2509 68.5925 23.2727C68.5925 24.3007 68.4632 25.1778 68.2047 25.9041C67.9462 26.6274 67.5723 27.1798 67.0829 27.5614C66.5936 27.94 66.0011 28.1293 65.3056 28.1293ZM65.3056 27.1136C65.995 27.1136 66.5305 26.7812 66.9121 26.1165C67.2937 25.4517 67.4845 24.5038 67.4845 23.2727C67.4845 22.4541 67.3968 21.757 67.2214 21.1815C67.0491 20.6059 66.7998 20.1674 66.4735 19.8658C66.1504 19.5642 65.7611 19.4134 65.3056 19.4134C64.6223 19.4134 64.0884 19.7504 63.7036 20.4244C63.3189 21.0953 63.1266 22.0447 63.1266 23.2727C63.1266 24.0914 63.2128 24.7869 63.3851 25.3594C63.5575 25.9318 63.8052 26.3673 64.1284 26.6658C64.4546 26.9644 64.847 27.1136 65.3056 27.1136ZM75.0306 28.1293C74.335 28.1293 73.7426 27.94 73.2532 27.5614C72.7639 27.1798 72.3899 26.6274 72.1314 25.9041C71.8729 25.1778 71.7436 24.3007 71.7436 23.2727C71.7436 22.2509 71.8729 21.3784 72.1314 20.6552C72.393 19.9289 72.7685 19.3749 73.2578 18.9933C73.7503 18.6085 74.3412 18.4162 75.0306 18.4162C75.72 18.4162 76.3093 18.6085 76.7987 18.9933C77.2911 19.3749 77.6666 19.9289 77.9251 20.6552C78.1867 21.3784 78.3175 22.2509 78.3175 23.2727C78.3175 24.3007 78.1882 25.1778 77.9297 25.9041C77.6712 26.6274 77.2973 27.1798 76.8079 27.5614C76.3186 27.94 75.7261 28.1293 75.0306 28.1293ZM75.0306 27.1136C75.72 27.1136 76.2555 26.7812 76.6371 26.1165C77.0187 25.4517 77.2095 24.5038 77.2095 23.2727C77.2095 22.4541 77.1218 21.757 76.9464 21.1815C76.7741 20.6059 76.5248 20.1674 76.1985 19.8658C75.8754 19.5642 75.4861 19.4134 75.0306 19.4134C74.3473 19.4134 73.8134 19.7504 73.4286 20.4244C73.0439 21.0953 72.8516 22.0447 72.8516 23.2727C72.8516 24.0914 72.9378 24.7869 73.1101 25.3594C73.2825 25.9318 73.5302 26.3673 73.8534 26.6658C74.1796 26.9644 74.572 27.1136 75.0306 27.1136ZM84.7556 28.1293C84.06 28.1293 83.4676 27.94 82.9782 27.5614C82.4889 27.1798 82.1149 26.6274 81.8564 25.9041C81.5979 25.1778 81.4686 24.3007 81.4686 23.2727C81.4686 22.2509 81.5979 21.3784 81.8564 20.6552C82.118 19.9289 82.4935 19.3749 82.9828 18.9933C83.4753 18.6085 84.0662 18.4162 84.7556 18.4162C85.445 18.4162 86.0343 18.6085 86.5237 18.9933C87.0161 19.3749 87.3916 19.9289 87.6501 20.6552C87.9117 21.3784 88.0425 22.2509 88.0425 23.2727C88.0425 24.3007 87.9132 25.1778 87.6547 25.9041C87.3962 26.6274 87.0223 27.1798 86.5329 27.5614C86.0436 27.94 85.4511 28.1293 84.7556 28.1293ZM84.7556 27.1136C85.445 27.1136 85.9805 26.7812 86.3621 26.1165C86.7437 25.4517 86.9345 24.5038 86.9345 23.2727C86.9345 22.4541 86.8468 21.757 86.6714 21.1815C86.4991 20.6059 86.2498 20.1674 85.9235 19.8658C85.6004 19.5642 85.2111 19.4134 84.7556 19.4134C84.0723 19.4134 83.5384 19.7504 83.1536 20.4244C82.7689 21.0953 82.5766 22.0447 82.5766 23.2727C82.5766 24.0914 82.6628 24.7869 82.8351 25.3594C83.0075 25.9318 83.2552 26.3673 83.5784 26.6658C83.9046 26.9644 84.297 27.1136 84.7556 27.1136ZM91.8792 28.0739C91.6514 28.0739 91.456 27.9923 91.2929 27.8292C91.1298 27.6661 91.0482 27.4706 91.0482 27.2429C91.0482 27.0152 91.1298 26.8197 91.2929 26.6566C91.456 26.4935 91.6514 26.4119 91.8792 26.4119C92.1069 26.4119 92.3024 26.4935 92.4655 26.6566C92.6286 26.8197 92.7101 27.0152 92.7101 27.2429C92.7101 27.3937 92.6717 27.5322 92.5947 27.6584C92.5209 27.7846 92.4208 27.8861 92.2947 27.9631C92.1716 28.0369 92.0331 28.0739 91.8792 28.0739ZM55.8899 34.5455V44H54.745V34.5455H55.8899ZM60.7272 39.7344V44H59.6377V36.9091H60.6902V38.017H60.7826C60.9488 37.657 61.2011 37.3677 61.5397 37.1491C61.8782 36.9276 62.3152 36.8168 62.8508 36.8168C63.3309 36.8168 63.751 36.9152 64.1111 37.1122C64.4711 37.3061 64.7512 37.6016 64.9513 37.9986C65.1513 38.3925 65.2513 38.8911 65.2513 39.4943V44H64.1618V39.5682C64.1618 39.0111 64.0172 38.5772 63.7279 38.2663C63.4386 37.9524 63.0416 37.7955 62.5368 37.7955C62.1891 37.7955 61.8782 37.8709 61.6043 38.0217C61.3335 38.1725 61.1196 38.3925 60.9626 38.6818C60.8057 38.9711 60.7272 39.322 60.7272 39.7344ZM71.9998 36.9091V37.8324H68.1774V36.9091H71.9998ZM69.3223 44V35.9304C69.3223 35.5241 69.4177 35.1856 69.6085 34.9148C69.7993 34.6439 70.0471 34.4408 70.3518 34.3054C70.6565 34.17 70.9781 34.1023 71.3166 34.1023C71.5844 34.1023 71.8029 34.1238 71.9722 34.1669C72.1414 34.21 72.2676 34.25 72.3507 34.2869L72.0368 35.2287C71.9814 35.2102 71.9044 35.1871 71.806 35.1594C71.7105 35.1317 71.5844 35.1179 71.4274 35.1179C71.0673 35.1179 70.8073 35.2087 70.6472 35.3903C70.4903 35.5719 70.4118 35.8381 70.4118 36.1889V44H69.3223ZM75.1267 44V36.9091H76.1793V37.9801H76.2532C76.3824 37.6293 76.6163 37.3446 76.9549 37.1261C77.2934 36.9076 77.675 36.7983 78.0998 36.7983C78.1798 36.7983 78.2798 36.7998 78.3998 36.8029C78.5199 36.806 78.6106 36.8106 78.6722 36.8168V37.9247C78.6353 37.9155 78.5506 37.9016 78.4183 37.8832C78.289 37.8616 78.1521 37.8509 78.0074 37.8509C77.6627 37.8509 77.355 37.9232 77.0841 38.0678C76.8164 38.2094 76.604 38.4064 76.4471 38.6587C76.2932 38.908 76.2162 39.1927 76.2162 39.5128V44H75.1267ZM83.6503 44.1662C83.201 44.1662 82.7932 44.0816 82.4269 43.9123C82.0607 43.7399 81.7699 43.4922 81.5544 43.169C81.339 42.8428 81.2313 42.4489 81.2313 41.9872C81.2313 41.581 81.3113 41.2517 81.4713 40.9993C81.6314 40.7438 81.8453 40.5438 82.113 40.3991C82.3808 40.2545 82.6762 40.1468 82.9994 40.076C83.3256 40.0021 83.6534 39.9437 83.9827 39.9006C84.4136 39.8452 84.7629 39.8036 85.0306 39.7759C85.3015 39.7451 85.4984 39.6944 85.6215 39.6236C85.7477 39.5528 85.8108 39.4297 85.8108 39.2543V39.2173C85.8108 38.7618 85.6862 38.4079 85.4369 38.1555C85.1907 37.9032 84.8167 37.777 84.3151 37.777C83.795 37.777 83.3872 37.8909 83.0917 38.1186C82.7963 38.3464 82.5885 38.5895 82.4685 38.848L81.4344 38.4787C81.6191 38.0478 81.8653 37.7124 82.173 37.4723C82.4839 37.2292 82.8224 37.0599 83.1887 36.9645C83.558 36.866 83.9211 36.8168 84.2782 36.8168C84.5059 36.8168 84.7675 36.8445 85.063 36.8999C85.3615 36.9522 85.6492 37.0614 85.9262 37.2276C86.2063 37.3938 86.4387 37.6446 86.6233 37.9801C86.808 38.3156 86.9003 38.7649 86.9003 39.3281V44H85.8108V43.0398H85.7554C85.6816 43.1937 85.5585 43.3583 85.3861 43.5337C85.2138 43.7092 84.9845 43.8584 84.6983 43.9815C84.412 44.1046 84.0627 44.1662 83.6503 44.1662ZM83.8165 43.1875C84.2474 43.1875 84.6105 43.1029 84.906 42.9336C85.2045 42.7643 85.4292 42.5458 85.58 42.2781C85.7339 42.0103 85.8108 41.7287 85.8108 41.4332V40.4361C85.7647 40.4915 85.6631 40.5423 85.5061 40.5884C85.3523 40.6315 85.1737 40.67 84.9706 40.7038C84.7706 40.7346 84.5751 40.7623 84.3843 40.7869C84.1966 40.8085 84.0442 40.8269 83.9273 40.8423C83.6442 40.8793 83.3795 40.9393 83.1333 41.0224C82.8901 41.1024 82.6932 41.224 82.5424 41.3871C82.3946 41.5471 82.3208 41.7656 82.3208 42.0426C82.3208 42.4212 82.4608 42.7074 82.7409 42.9013C83.024 43.0921 83.3826 43.1875 83.8165 43.1875ZM93.4619 44.1477C92.7786 44.1477 92.1893 43.9969 91.6938 43.6953C91.2013 43.3906 90.8212 42.9659 90.5535 42.4212C90.2888 41.8733 90.1565 41.2363 90.1565 40.5099C90.1565 39.7836 90.2888 39.1435 90.5535 38.5895C90.8212 38.0324 91.1936 37.5985 91.6707 37.2876C92.1508 36.9737 92.7109 36.8168 93.3511 36.8168C93.7204 36.8168 94.0851 36.8783 94.4452 37.0014C94.8053 37.1245 95.133 37.3246 95.4285 37.6016C95.7239 37.8755 95.9594 38.2386 96.1348 38.6911C96.3102 39.1435 96.3979 39.7005 96.3979 40.3622V40.8239H90.932V39.8821H95.29C95.29 39.482 95.21 39.125 95.0499 38.8111C94.893 38.4972 94.6683 38.2494 94.3759 38.0678C94.0866 37.8862 93.745 37.7955 93.3511 37.7955C92.9171 37.7955 92.5417 37.9032 92.2247 38.1186C91.9107 38.331 91.6691 38.608 91.4999 38.9496C91.3306 39.2912 91.246 39.6574 91.246 40.0483V40.6761C91.246 41.2116 91.3383 41.6656 91.5229 42.038C91.7107 42.4073 91.9707 42.6889 92.3031 42.8828C92.6355 43.0736 93.0218 43.169 93.4619 43.169C93.7481 43.169 94.0066 43.129 94.2374 43.049C94.4713 42.9659 94.6729 42.8428 94.8422 42.6797C95.0115 42.5135 95.1423 42.3073 95.2346 42.0611L96.2872 42.3565C96.1764 42.7135 95.9902 43.0275 95.7286 43.2983C95.467 43.5661 95.1438 43.7753 94.7591 43.9261C94.3744 44.0739 93.942 44.1477 93.4619 44.1477ZM104.678 38.4972L103.699 38.7741C103.638 38.611 103.547 38.4525 103.427 38.2987C103.31 38.1417 103.15 38.0124 102.947 37.9109C102.744 37.8093 102.484 37.7585 102.167 37.7585C101.733 37.7585 101.371 37.8585 101.082 38.0586C100.796 38.2556 100.652 38.5064 100.652 38.8111C100.652 39.0819 100.751 39.2958 100.948 39.4528C101.145 39.6097 101.453 39.7405 101.871 39.8452L102.924 40.1037C103.558 40.2576 104.03 40.493 104.341 40.81C104.652 41.1239 104.807 41.5286 104.807 42.0241C104.807 42.4304 104.69 42.7936 104.456 43.1136C104.226 43.4337 103.902 43.6861 103.487 43.8707C103.071 44.0554 102.588 44.1477 102.037 44.1477C101.314 44.1477 100.716 43.9908 100.242 43.6768C99.7676 43.3629 99.4675 42.9044 99.3413 42.3011L100.375 42.0426C100.474 42.4242 100.66 42.7105 100.934 42.9013C101.211 43.0921 101.573 43.1875 102.019 43.1875C102.527 43.1875 102.93 43.0798 103.228 42.8643C103.53 42.6458 103.681 42.3842 103.681 42.0795C103.681 41.8333 103.595 41.6271 103.422 41.4609C103.25 41.2917 102.985 41.1655 102.628 41.0824L101.446 40.8054C100.797 40.6515 100.32 40.413 100.015 40.0898C99.7137 39.7636 99.5629 39.3558 99.5629 38.8665C99.5629 38.4664 99.6753 38.1125 99.8999 37.8047C100.128 37.4969 100.437 37.2553 100.828 37.0799C101.222 36.9045 101.668 36.8168 102.167 36.8168C102.868 36.8168 103.419 36.9706 103.819 37.2784C104.222 37.5862 104.509 37.9924 104.678 38.4972ZM111.131 36.9091V37.8324H107.456V36.9091H111.131ZM108.527 35.2102H109.617V41.9688C109.617 42.2765 109.661 42.5073 109.751 42.6612C109.843 42.812 109.96 42.9136 110.102 42.9659C110.246 43.0152 110.399 43.0398 110.559 43.0398C110.679 43.0398 110.777 43.0336 110.854 43.0213C110.931 43.0059 110.993 42.9936 111.039 42.9844L111.26 43.9631C111.186 43.9908 111.083 44.0185 110.951 44.0462C110.819 44.0769 110.651 44.0923 110.448 44.0923C110.14 44.0923 109.838 44.0262 109.543 43.8938C109.251 43.7615 109.007 43.5599 108.814 43.2891C108.623 43.0182 108.527 42.6766 108.527 42.2642V35.2102ZM114.37 44V36.9091H115.422V37.9801H115.496C115.626 37.6293 115.859 37.3446 116.198 37.1261C116.537 36.9076 116.918 36.7983 117.343 36.7983C117.423 36.7983 117.523 36.7998 117.643 36.8029C117.763 36.806 117.854 36.8106 117.915 36.8168V37.9247C117.878 37.9155 117.794 37.9016 117.661 37.8832C117.532 37.8616 117.395 37.8509 117.251 37.8509C116.906 37.8509 116.598 37.9232 116.327 38.0678C116.06 38.2094 115.847 38.4064 115.69 38.6587C115.536 38.908 115.459 39.1927 115.459 39.5128V44H114.37ZM125.276 41.1009V36.9091H126.365V44H125.276V42.7997H125.202C125.036 43.1598 124.777 43.466 124.426 43.7184C124.075 43.9677 123.632 44.0923 123.097 44.0923C122.653 44.0923 122.259 43.9954 121.915 43.8015C121.57 43.6045 121.299 43.3091 121.102 42.9151C120.905 42.5181 120.807 42.018 120.807 41.4148V36.9091H121.896V41.3409C121.896 41.858 122.041 42.2704 122.33 42.5781C122.623 42.8859 122.995 43.0398 123.447 43.0398C123.718 43.0398 123.994 42.9705 124.274 42.832C124.557 42.6935 124.794 42.4812 124.985 42.195C125.179 41.9087 125.276 41.544 125.276 41.1009ZM132.841 44.1477C132.176 44.1477 131.604 43.9908 131.124 43.6768C130.644 43.3629 130.274 42.9305 130.016 42.3796C129.757 41.8287 129.628 41.1993 129.628 40.4915C129.628 39.7713 129.76 39.1358 130.025 38.5849C130.293 38.0309 130.665 37.5985 131.142 37.2876C131.622 36.9737 132.183 36.8168 132.823 36.8168C133.321 36.8168 133.771 36.9091 134.171 37.0938C134.571 37.2784 134.899 37.5369 135.154 37.8693C135.41 38.2017 135.568 38.5895 135.63 39.0327H134.54C134.457 38.7095 134.272 38.4233 133.986 38.174C133.703 37.9216 133.321 37.7955 132.841 37.7955C132.417 37.7955 132.044 37.9062 131.724 38.1278C131.407 38.3464 131.159 38.6557 130.981 39.0558C130.805 39.4528 130.718 39.919 130.718 40.4545C130.718 41.0024 130.804 41.4794 130.976 41.8857C131.152 42.2919 131.398 42.6074 131.715 42.832C132.035 43.0567 132.41 43.169 132.841 43.169C133.124 43.169 133.381 43.1198 133.612 43.0213C133.843 42.9228 134.038 42.7812 134.198 42.5966C134.359 42.4119 134.472 42.1903 134.54 41.9318H135.63C135.568 42.3504 135.416 42.7274 135.173 43.0629C134.932 43.3952 134.614 43.6599 134.217 43.8569C133.823 44.0508 133.364 44.1477 132.841 44.1477ZM141.906 36.9091V37.8324H138.231V36.9091H141.906ZM139.302 35.2102H140.392V41.9688C140.392 42.2765 140.436 42.5073 140.526 42.6612C140.618 42.812 140.735 42.9136 140.877 42.9659C141.021 43.0152 141.174 43.0398 141.334 43.0398C141.454 43.0398 141.552 43.0336 141.629 43.0213C141.706 43.0059 141.768 42.9936 141.814 42.9844L142.035 43.9631C141.961 43.9908 141.858 44.0185 141.726 44.0462C141.594 44.0769 141.426 44.0923 141.223 44.0923C140.915 44.0923 140.613 44.0262 140.318 43.8938C140.026 43.7615 139.782 43.5599 139.589 43.2891C139.398 43.0182 139.302 42.6766 139.302 42.2642V35.2102ZM149.614 41.1009V36.9091H150.703V44H149.614V42.7997H149.54C149.374 43.1598 149.115 43.466 148.764 43.7184C148.413 43.9677 147.97 44.0923 147.435 44.0923C146.992 44.0923 146.598 43.9954 146.253 43.8015C145.908 43.6045 145.637 43.3091 145.44 42.9151C145.243 42.5181 145.145 42.018 145.145 41.4148V36.9091H146.234V41.3409C146.234 41.858 146.379 42.2704 146.668 42.5781C146.961 42.8859 147.333 43.0398 147.786 43.0398C148.056 43.0398 148.332 42.9705 148.612 42.832C148.895 42.6935 149.132 42.4812 149.323 42.195C149.517 41.9087 149.614 41.544 149.614 41.1009ZM154.299 44V36.9091H155.351V37.9801H155.425C155.554 37.6293 155.788 37.3446 156.127 37.1261C156.465 36.9076 156.847 36.7983 157.272 36.7983C157.352 36.7983 157.452 36.7998 157.572 36.8029C157.692 36.806 157.783 36.8106 157.844 36.8168V37.9247C157.807 37.9155 157.723 37.9016 157.59 37.8832C157.461 37.8616 157.324 37.8509 157.179 37.8509C156.835 37.8509 156.527 37.9232 156.256 38.0678C155.988 38.2094 155.776 38.4064 155.619 38.6587C155.465 38.908 155.388 39.1927 155.388 39.5128V44H154.299ZM162.822 44.1662C162.373 44.1662 161.965 44.0816 161.599 43.9123C161.233 43.7399 160.942 43.4922 160.726 43.169C160.511 42.8428 160.403 42.4489 160.403 41.9872C160.403 41.581 160.483 41.2517 160.643 40.9993C160.803 40.7438 161.017 40.5438 161.285 40.3991C161.553 40.2545 161.848 40.1468 162.171 40.076C162.497 40.0021 162.825 39.9437 163.155 39.9006C163.585 39.8452 163.935 39.8036 164.203 39.7759C164.473 39.7451 164.67 39.6944 164.793 39.6236C164.92 39.5528 164.983 39.4297 164.983 39.2543V39.2173C164.983 38.7618 164.858 38.4079 164.609 38.1555C164.363 37.9032 163.989 37.777 163.487 37.777C162.967 37.777 162.559 37.8909 162.264 38.1186C161.968 38.3464 161.76 38.5895 161.64 38.848L160.606 38.4787C160.791 38.0478 161.037 37.7124 161.345 37.4723C161.656 37.2292 161.994 37.0599 162.361 36.9645C162.73 36.866 163.093 36.8168 163.45 36.8168C163.678 36.8168 163.939 36.8445 164.235 36.8999C164.533 36.9522 164.821 37.0614 165.098 37.2276C165.378 37.3938 165.611 37.6446 165.795 37.9801C165.98 38.3156 166.072 38.7649 166.072 39.3281V44H164.983V43.0398H164.927C164.853 43.1937 164.73 43.3583 164.558 43.5337C164.386 43.7092 164.156 43.8584 163.87 43.9815C163.584 44.1046 163.235 44.1662 162.822 44.1662ZM162.988 43.1875C163.419 43.1875 163.782 43.1029 164.078 42.9336C164.376 42.7643 164.601 42.5458 164.752 42.2781C164.906 42.0103 164.983 41.7287 164.983 41.4332V40.4361C164.937 40.4915 164.835 40.5423 164.678 40.5884C164.524 40.6315 164.346 40.67 164.142 40.7038C163.942 40.7346 163.747 40.7623 163.556 40.7869C163.368 40.8085 163.216 40.8269 163.099 40.8423C162.816 40.8793 162.551 40.9393 162.305 41.0224C162.062 41.1024 161.865 41.224 161.714 41.3871C161.567 41.5471 161.493 41.7656 161.493 42.0426C161.493 42.4212 161.633 42.7074 161.913 42.9013C162.196 43.0921 162.554 43.1875 162.988 43.1875Z" fill="black"/>
</svg>
