<svg width="138" height="60" viewBox="0 0 138 60" fill="none" xmlns="http://www.w3.org/2000/svg">
<path d="M25.825 33.75H34.575M25.825 37.5H30.2M39.575 17.5H22.075C21.7434 17.5 21.4255 17.6317 21.1911 17.8661C20.9566 18.1005 20.825 18.4185 20.825 18.75V41.25C20.825 41.5815 20.9566 41.8995 21.1911 42.1339C21.4255 42.3683 21.7434 42.5 22.075 42.5H39.575C39.9065 42.5 40.2244 42.3683 40.4588 42.1339C40.6933 41.8995 40.825 41.5815 40.825 41.25V18.75C40.825 18.4185 40.6933 18.1005 40.4588 17.8661C40.2244 17.6317 39.9065 17.5 39.575 17.5Z" stroke="#353535" stroke-width="2.5" stroke-linecap="round" stroke-linejoin="round"/>
<path d="M25.825 22.5H34.575V28.75H25.825V22.5Z" stroke="#353535" stroke-width="2.5" stroke-linecap="round" stroke-linejoin="round"/>
<path d="M61.9528 35.5H60.8079C60.7402 35.1707 60.6217 34.8814 60.4524 34.6321C60.2862 34.3828 60.0831 34.1735 59.8431 34.0043C59.6061 33.8319 59.3429 33.7027 59.0536 33.6165C58.7643 33.5303 58.4627 33.4872 58.1488 33.4872C57.5764 33.4872 57.0578 33.6319 56.5931 33.9212C56.1314 34.2105 55.7636 34.6367 55.4897 35.1999C55.2189 35.7631 55.0835 36.4541 55.0835 37.2727C55.0835 38.0914 55.2189 38.7823 55.4897 39.3455C55.7636 39.9087 56.1314 40.335 56.5931 40.6243C57.0578 40.9136 57.5764 41.0582 58.1488 41.0582C58.4627 41.0582 58.7643 41.0152 59.0536 40.929C59.3429 40.8428 59.6061 40.7151 59.8431 40.5458C60.0831 40.3735 60.2862 40.1626 60.4524 39.9134C60.6217 39.661 60.7402 39.3717 60.8079 39.0455H61.9528C61.8666 39.5286 61.7097 39.9611 61.4819 40.3427C61.2542 40.7243 60.971 41.049 60.6325 41.3168C60.2939 41.5814 59.9138 41.783 59.4922 41.9215C59.0736 42.06 58.6259 42.1293 58.1488 42.1293C57.3425 42.1293 56.6254 41.9323 55.9975 41.5384C55.3697 41.1444 54.8757 40.5843 54.5156 39.858C54.1556 39.1316 53.9755 38.2699 53.9755 37.2727C53.9755 36.2756 54.1556 35.4138 54.5156 34.6875C54.8757 33.9612 55.3697 33.401 55.9975 33.0071C56.6254 32.6132 57.3425 32.4162 58.1488 32.4162C58.6259 32.4162 59.0736 32.4854 59.4922 32.6239C59.9138 32.7624 60.2939 32.9656 60.6325 33.2333C60.971 33.498 61.2542 33.8211 61.4819 34.2028C61.7097 34.5813 61.8666 35.0137 61.9528 35.5ZM69.7239 39.1009V34.9091H70.8134V42H69.7239V40.7997H69.65C69.4838 41.1598 69.2253 41.466 68.8744 41.7184C68.5236 41.9677 68.0804 42.0923 67.5449 42.0923C67.1017 42.0923 66.7078 41.9954 66.3631 41.8015C66.0184 41.6045 65.7475 41.3091 65.5506 40.9151C65.3536 40.5181 65.2551 40.018 65.2551 39.4148V34.9091H66.3446V39.3409C66.3446 39.858 66.4893 40.2704 66.7786 40.5781C67.0709 40.8859 67.4433 41.0398 67.8957 41.0398C68.1666 41.0398 68.442 40.9705 68.7221 40.832C69.0052 40.6935 69.2422 40.4812 69.433 40.195C69.6269 39.9087 69.7239 39.544 69.7239 39.1009ZM74.4088 42V34.9091H75.4614V35.9801H75.5353C75.6645 35.6293 75.8984 35.3446 76.237 35.1261C76.5755 34.9076 76.9571 34.7983 77.3818 34.7983C77.4619 34.7983 77.5619 34.7998 77.6819 34.8029C77.8019 34.806 77.8927 34.8106 77.9543 34.8168V35.9247C77.9174 35.9155 77.8327 35.9016 77.7004 35.8832C77.5711 35.8616 77.4342 35.8509 77.2895 35.8509C76.9448 35.8509 76.637 35.9232 76.3662 36.0678C76.0985 36.2094 75.8861 36.4064 75.7291 36.6587C75.5753 36.908 75.4983 37.1927 75.4983 37.5128V42H74.4088ZM80.8457 42V34.9091H81.8983V35.9801H81.9722C82.1014 35.6293 82.3353 35.3446 82.6739 35.1261C83.0124 34.9076 83.394 34.7983 83.8188 34.7983C83.8988 34.7983 83.9988 34.7998 84.1188 34.8029C84.2389 34.806 84.3296 34.8106 84.3912 34.8168V35.9247C84.3543 35.9155 84.2696 35.9016 84.1373 35.8832C84.008 35.8616 83.8711 35.8509 83.7264 35.8509C83.3817 35.8509 83.074 35.9232 82.8031 36.0678C82.5354 36.2094 82.323 36.4064 82.1661 36.6587C82.0122 36.908 81.9352 37.1927 81.9352 37.5128V42H80.8457ZM87.2827 42V34.9091H88.3721V42H87.2827ZM87.3381 33.9489L88.4645 31.8068H89.7386L88.2983 33.9489H87.3381ZM94.8483 42.1477C94.1835 42.1477 93.6111 41.9908 93.131 41.6768C92.6509 41.3629 92.2815 40.9305 92.023 40.3796C91.7645 39.8287 91.6352 39.1993 91.6352 38.4915C91.6352 37.7713 91.7676 37.1358 92.0322 36.5849C92.3 36.0309 92.6724 35.5985 93.1494 35.2876C93.6296 34.9737 94.1897 34.8168 94.8298 34.8168C95.3284 34.8168 95.7778 34.9091 96.1778 35.0938C96.5779 35.2784 96.9057 35.5369 97.1612 35.8693C97.4166 36.2017 97.5751 36.5895 97.6367 37.0327H96.5472C96.4641 36.7095 96.2794 36.4233 95.9932 36.174C95.71 35.9216 95.3284 35.7955 94.8483 35.7955C94.4236 35.7955 94.0512 35.9062 93.7311 36.1278C93.4141 36.3464 93.1664 36.6557 92.9879 37.0558C92.8124 37.4528 92.7247 37.919 92.7247 38.4545C92.7247 39.0024 92.8109 39.4794 92.9832 39.8857C93.1587 40.2919 93.4049 40.6074 93.7219 40.832C94.042 41.0567 94.4174 41.169 94.8483 41.169C95.1314 41.169 95.3884 41.1198 95.6193 41.0213C95.8501 40.9228 96.0455 40.7812 96.2055 40.5966C96.3656 40.4119 96.4795 40.1903 96.5472 39.9318H97.6367C97.5751 40.3504 97.4228 40.7274 97.1796 41.0629C96.9396 41.3952 96.621 41.6599 96.224 41.8569C95.8301 42.0508 95.3715 42.1477 94.8483 42.1477ZM105.298 39.1009V34.9091H106.388V42H105.298V40.7997H105.224C105.058 41.1598 104.8 41.466 104.449 41.7184C104.098 41.9677 103.655 42.0923 103.119 42.0923C102.676 42.0923 102.282 41.9954 101.937 41.8015C101.593 41.6045 101.322 41.3091 101.125 40.9151C100.928 40.5181 100.829 40.018 100.829 39.4148V34.9091H101.919V39.3409C101.919 39.858 102.063 40.2704 102.353 40.5781C102.645 40.8859 103.018 41.0398 103.47 41.0398C103.741 41.0398 104.016 40.9705 104.296 40.832C104.579 40.6935 104.816 40.4812 105.007 40.195C105.201 39.9087 105.298 39.544 105.298 39.1009ZM111.073 32.5455V42H109.983V32.5455H111.073ZM117.549 42.1477C116.909 42.1477 116.347 41.9954 115.864 41.6907C115.384 41.386 115.008 40.9598 114.737 40.4119C114.469 39.8641 114.336 39.224 114.336 38.4915C114.336 37.7528 114.469 37.1081 114.737 36.5572C115.008 36.0063 115.384 35.5785 115.864 35.2738C116.347 34.9691 116.909 34.8168 117.549 34.8168C118.189 34.8168 118.749 34.9691 119.229 35.2738C119.712 35.5785 120.088 36.0063 120.356 36.5572C120.626 37.1081 120.762 37.7528 120.762 38.4915C120.762 39.224 120.626 39.8641 120.356 40.4119C120.088 40.9598 119.712 41.386 119.229 41.6907C118.749 41.9954 118.189 42.1477 117.549 42.1477ZM117.549 41.169C118.035 41.169 118.435 41.0444 118.749 40.7951C119.063 40.5458 119.295 40.218 119.446 39.8118C119.597 39.4055 119.672 38.9654 119.672 38.4915C119.672 38.0175 119.597 37.5759 119.446 37.1665C119.295 36.7572 119.063 36.4264 118.749 36.174C118.435 35.9216 118.035 35.7955 117.549 35.7955C117.062 35.7955 116.662 35.9216 116.348 36.174C116.034 36.4264 115.802 36.7572 115.651 37.1665C115.501 37.5759 115.425 38.0175 115.425 38.4915C115.425 38.9654 115.501 39.4055 115.651 39.8118C115.802 40.218 116.034 40.5458 116.348 40.7951C116.662 41.0444 117.062 41.169 117.549 41.169Z" fill="black"/>
</svg>
