<svg width="166" height="78" viewBox="0 0 166 78" fill="none" xmlns="http://www.w3.org/2000/svg">
<path d="M28.55 52.7917H25.7167V42.5833H28.55V52.7917ZM34.2167 52.7917H31.3834V38.2083H34.2167V52.7917ZM39.8834 52.7917H37.05V46.9583H39.8834V52.7917ZM42.7167 55.7083H22.8834V35.2917H42.7167V55.8542M42.7167 32.375H22.8834C21.325 32.375 20.05 33.6875 20.05 35.2917V55.7083C20.05 57.3125 21.325 58.625 22.8834 58.625H42.7167C44.275 58.625 45.55 57.3125 45.55 55.7083V35.2917C45.55 33.6875 44.275 32.375 42.7167 32.375Z" fill="#353535"/>
<path d="M58.9449 28V18.5455H64.614V19.5611H60.0898V22.7557H64.1893V23.7713H60.0898V28H58.9449ZM70.3873 28.1477C69.7471 28.1477 69.1854 27.9954 68.7023 27.6907C68.2221 27.386 67.8467 26.9598 67.5758 26.4119C67.3081 25.8641 67.1742 25.224 67.1742 24.4915C67.1742 23.7528 67.3081 23.1081 67.5758 22.5572C67.8467 22.0063 68.2221 21.5785 68.7023 21.2738C69.1854 20.9691 69.7471 20.8168 70.3873 20.8168C71.0274 20.8168 71.5875 20.9691 72.0677 21.2738C72.5509 21.5785 72.9263 22.0063 73.1941 22.5572C73.4649 23.1081 73.6003 23.7528 73.6003 24.4915C73.6003 25.224 73.4649 25.8641 73.1941 26.4119C72.9263 26.9598 72.5509 27.386 72.0677 27.6907C71.5875 27.9954 71.0274 28.1477 70.3873 28.1477ZM70.3873 27.169C70.8735 27.169 71.2736 27.0444 71.5875 26.7951C71.9015 26.5458 72.1338 26.218 72.2846 25.8118C72.4354 25.4055 72.5108 24.9654 72.5108 24.4915C72.5108 24.0175 72.4354 23.5759 72.2846 23.1665C72.1338 22.7572 71.9015 22.4264 71.5875 22.174C71.2736 21.9216 70.8735 21.7955 70.3873 21.7955C69.901 21.7955 69.5009 21.9216 69.187 22.174C68.8731 22.4264 68.6407 22.7572 68.4899 23.1665C68.3391 23.5759 68.2637 24.0175 68.2637 24.4915C68.2637 24.9654 68.3391 25.4055 68.4899 25.8118C68.6407 26.218 68.8731 26.5458 69.187 26.7951C69.5009 27.0444 69.901 27.169 70.3873 27.169ZM76.8634 28V20.9091H77.916V21.9801H77.9898C78.1191 21.6293 78.353 21.3446 78.6915 21.1261C79.0301 20.9076 79.4117 20.7983 79.8364 20.7983C79.9165 20.7983 80.0165 20.7998 80.1365 20.8029C80.2565 20.806 80.3473 20.8106 80.4089 20.8168V21.9247C80.3719 21.9155 80.2873 21.9016 80.155 21.8832C80.0257 21.8616 79.8888 21.8509 79.7441 21.8509C79.3994 21.8509 79.0916 21.9232 78.8208 22.0678C78.5531 22.2094 78.3407 22.4064 78.1837 22.6587C78.0298 22.908 77.9529 23.1927 77.9529 23.5128V28H76.8634ZM83.3003 28V20.9091H84.3529V22.017H84.4452C84.5929 21.6385 84.8315 21.3446 85.1608 21.1353C85.4901 20.9229 85.8856 20.8168 86.3472 20.8168C86.815 20.8168 87.2043 20.9229 87.5152 21.1353C87.8291 21.3446 88.0738 21.6385 88.2492 22.017H88.3231C88.5046 21.6508 88.777 21.36 89.1402 21.1445C89.5033 20.926 89.9388 20.8168 90.4466 20.8168C91.0806 20.8168 91.5992 21.0153 92.0024 21.4123C92.4056 21.8062 92.6072 22.4202 92.6072 23.2543V28H91.5177V23.2543C91.5177 22.7311 91.3746 22.3571 91.0883 22.1325C90.8021 21.9078 90.4651 21.7955 90.0773 21.7955C89.5787 21.7955 89.1925 21.9463 88.9186 22.2479C88.6447 22.5464 88.5077 22.925 88.5077 23.3835V28H87.3998V23.1435C87.3998 22.7403 87.269 22.4156 87.0074 22.1694C86.7458 21.9201 86.4088 21.7955 85.9964 21.7955C85.7132 21.7955 85.4485 21.8709 85.2023 22.0217C84.9592 22.1725 84.7622 22.3817 84.6114 22.6495C84.4637 22.9142 84.3898 23.2204 84.3898 23.5682V28H83.3003ZM98.2858 28.1662C97.8365 28.1662 97.4287 28.0816 97.0624 27.9123C96.6962 27.7399 96.4054 27.4922 96.1899 27.169C95.9745 26.8428 95.8668 26.4489 95.8668 25.9872C95.8668 25.581 95.9468 25.2517 96.1068 24.9993C96.2669 24.7438 96.4808 24.5438 96.7485 24.3991C97.0163 24.2545 97.3117 24.1468 97.6349 24.076C97.9611 24.0021 98.2889 23.9437 98.6182 23.9006C99.0491 23.8452 99.3984 23.8036 99.6661 23.7759C99.937 23.7451 100.134 23.6944 100.257 23.6236C100.383 23.5528 100.446 23.4297 100.446 23.2543V23.2173C100.446 22.7618 100.322 22.4079 100.072 22.1555C99.8262 21.9032 99.4522 21.777 98.9506 21.777C98.4305 21.777 98.0227 21.8909 97.7272 22.1186C97.4318 22.3464 97.224 22.5895 97.104 22.848L96.0699 22.4787C96.2546 22.0478 96.5008 21.7124 96.8085 21.4723C97.1194 21.2292 97.4579 21.0599 97.8242 20.9645C98.1935 20.866 98.5566 20.8168 98.9137 20.8168C99.1414 20.8168 99.403 20.8445 99.6985 20.8999C99.997 20.9522 100.285 21.0614 100.562 21.2276C100.842 21.3938 101.074 21.6446 101.259 21.9801C101.443 22.3156 101.536 22.7649 101.536 23.3281V28H100.446V27.0398H100.391C100.317 27.1937 100.194 27.3583 100.022 27.5337C99.8493 27.7092 99.62 27.8584 99.3338 27.9815C99.0475 28.1046 98.6982 28.1662 98.2858 28.1662ZM98.452 27.1875C98.8829 27.1875 99.246 27.1029 99.5415 26.9336C99.84 26.7643 100.065 26.5458 100.215 26.2781C100.369 26.0103 100.446 25.7287 100.446 25.4332V24.4361C100.4 24.4915 100.299 24.5423 100.142 24.5884C99.9878 24.6315 99.8092 24.67 99.6061 24.7038C99.4061 24.7346 99.2106 24.7623 99.0198 24.7869C98.8321 24.8085 98.6797 24.8269 98.5628 24.8423C98.2797 24.8793 98.015 24.9393 97.7688 25.0224C97.5256 25.1024 97.3287 25.224 97.1779 25.3871C97.0301 25.5471 96.9563 25.7656 96.9563 26.0426C96.9563 26.4212 97.0963 26.7074 97.3764 26.9013C97.6595 27.0921 98.0181 27.1875 98.452 27.1875ZM108.005 28.1477C107.34 28.1477 106.768 27.9908 106.288 27.6768C105.808 27.3629 105.438 26.9305 105.18 26.3796C104.921 25.8287 104.792 25.1993 104.792 24.4915C104.792 23.7713 104.924 23.1358 105.189 22.5849C105.457 22.0309 105.829 21.5985 106.306 21.2876C106.786 20.9737 107.346 20.8168 107.987 20.8168C108.485 20.8168 108.934 20.9091 109.335 21.0938C109.735 21.2784 110.062 21.5369 110.318 21.8693C110.573 22.2017 110.732 22.5895 110.793 23.0327H109.704C109.621 22.7095 109.436 22.4233 109.15 22.174C108.867 21.9216 108.485 21.7955 108.005 21.7955C107.58 21.7955 107.208 21.9062 106.888 22.1278C106.571 22.3464 106.323 22.6557 106.145 23.0558C105.969 23.4528 105.881 23.919 105.881 24.4545C105.881 25.0024 105.968 25.4794 106.14 25.8857C106.315 26.2919 106.562 26.6074 106.879 26.832C107.199 27.0567 107.574 27.169 108.005 27.169C108.288 27.169 108.545 27.1198 108.776 27.0213C109.007 26.9228 109.202 26.7812 109.362 26.5966C109.522 26.4119 109.636 26.1903 109.704 25.9318H110.793C110.732 26.3504 110.579 26.7274 110.336 27.0629C110.096 27.3952 109.778 27.6599 109.381 27.8569C108.987 28.0508 108.528 28.1477 108.005 28.1477ZM113.986 28V20.9091H115.076V28H113.986ZM114.54 19.7273C114.328 19.7273 114.145 19.6549 113.991 19.5103C113.84 19.3656 113.764 19.1918 113.764 18.9886C113.764 18.7855 113.84 18.6116 113.991 18.467C114.145 18.3223 114.328 18.25 114.54 18.25C114.752 18.25 114.934 18.3223 115.085 18.467C115.239 18.6116 115.316 18.7855 115.316 18.9886C115.316 19.1918 115.239 19.3656 115.085 19.5103C114.934 19.6549 114.752 19.7273 114.54 19.7273ZM121.552 28.1477C120.912 28.1477 120.35 27.9954 119.867 27.6907C119.387 27.386 119.011 26.9598 118.74 26.4119C118.473 25.8641 118.339 25.224 118.339 24.4915C118.339 23.7528 118.473 23.1081 118.74 22.5572C119.011 22.0063 119.387 21.5785 119.867 21.2738C120.35 20.9691 120.912 20.8168 121.552 20.8168C122.192 20.8168 122.752 20.9691 123.232 21.2738C123.715 21.5785 124.091 22.0063 124.359 22.5572C124.629 23.1081 124.765 23.7528 124.765 24.4915C124.765 25.224 124.629 25.8641 124.359 26.4119C124.091 26.9598 123.715 27.386 123.232 27.6907C122.752 27.9954 122.192 28.1477 121.552 28.1477ZM121.552 27.169C122.038 27.169 122.438 27.0444 122.752 26.7951C123.066 26.5458 123.298 26.218 123.449 25.8118C123.6 25.4055 123.675 24.9654 123.675 24.4915C123.675 24.0175 123.6 23.5759 123.449 23.1665C123.298 22.7572 123.066 22.4264 122.752 22.174C122.438 21.9216 122.038 21.7955 121.552 21.7955C121.065 21.7955 120.665 21.9216 120.351 22.174C120.038 22.4264 119.805 22.7572 119.654 23.1665C119.504 23.5759 119.428 24.0175 119.428 24.4915C119.428 24.9654 119.504 25.4055 119.654 25.8118C119.805 26.218 120.038 26.5458 120.351 26.7951C120.665 27.0444 121.065 27.169 121.552 27.169ZM121.053 19.9489L122.18 17.8068H123.454L122.013 19.9489H121.053ZM129.117 23.7344V28H128.028V20.9091H129.08V22.017H129.173C129.339 21.657 129.591 21.3677 129.93 21.1491C130.268 20.9276 130.705 20.8168 131.241 20.8168C131.721 20.8168 132.141 20.9152 132.501 21.1122C132.861 21.3061 133.141 21.6016 133.341 21.9986C133.541 22.3925 133.642 22.8911 133.642 23.4943V28H132.552V23.5682C132.552 23.0111 132.407 22.5772 132.118 22.2663C131.829 21.9524 131.432 21.7955 130.927 21.7955C130.579 21.7955 130.268 21.8709 129.994 22.0217C129.724 22.1725 129.51 22.3925 129.353 22.6818C129.196 22.9711 129.117 23.322 129.117 23.7344ZM140.575 18.1023L137.528 29.4219H136.531L139.578 18.1023H140.575ZM60.0898 34.5455V44H58.9449V34.5455H60.0898ZM64.9271 39.7344V44H63.8376V36.9091H64.8902V38.017H64.9825C65.1487 37.657 65.4011 37.3677 65.7396 37.1491C66.0782 36.9276 66.5152 36.8168 67.0507 36.8168C67.5308 36.8168 67.9509 36.9152 68.311 37.1122C68.6711 37.3061 68.9512 37.6016 69.1512 37.9986C69.3513 38.3925 69.4513 38.8911 69.4513 39.4943V44H68.3618V39.5682C68.3618 39.0111 68.2171 38.5772 67.9278 38.2663C67.6385 37.9524 67.2415 37.7955 66.7368 37.7955C66.389 37.7955 66.0782 37.8709 65.8043 38.0217C65.5334 38.1725 65.3195 38.3925 65.1626 38.6818C65.0056 38.9711 64.9271 39.322 64.9271 39.7344ZM78.0649 38.4972L77.0862 38.7741C77.0246 38.611 76.9338 38.4525 76.8138 38.2987C76.6968 38.1417 76.5368 38.0124 76.3337 37.9109C76.1306 37.8093 75.8705 37.7585 75.5535 37.7585C75.1195 37.7585 74.7579 37.8585 74.4686 38.0586C74.1824 38.2556 74.0393 38.5064 74.0393 38.8111C74.0393 39.0819 74.1378 39.2958 74.3347 39.4528C74.5317 39.6097 74.8395 39.7405 75.258 39.8452L76.3106 40.1037C76.9446 40.2576 77.417 40.493 77.7279 40.81C78.0387 41.1239 78.1941 41.5286 78.1941 42.0241C78.1941 42.4304 78.0772 42.7936 77.8433 43.1136C77.6124 43.4337 77.2893 43.6861 76.8738 43.8707C76.4583 44.0554 75.9751 44.1477 75.4242 44.1477C74.701 44.1477 74.1024 43.9908 73.6284 43.6768C73.1545 43.3629 72.8544 42.9044 72.7282 42.3011L73.7623 42.0426C73.8608 42.4242 74.047 42.7105 74.3209 42.9013C74.5979 43.0921 74.9595 43.1875 75.4058 43.1875C75.9136 43.1875 76.3168 43.0798 76.6153 42.8643C76.9169 42.6458 77.0677 42.3842 77.0677 42.0795C77.0677 41.8333 76.9815 41.6271 76.8092 41.4609C76.6368 41.2917 76.3721 41.1655 76.0151 41.0824L74.8333 40.8054C74.1839 40.6515 73.7069 40.413 73.4022 40.0898C73.1006 39.7636 72.9498 39.3558 72.9498 38.8665C72.9498 38.4664 73.0621 38.1125 73.2868 37.8047C73.5145 37.4969 73.8239 37.2553 74.2147 37.0799C74.6087 36.9045 75.0549 36.8168 75.5535 36.8168C76.2552 36.8168 76.8061 36.9706 77.2062 37.2784C77.6094 37.5862 77.8956 37.9924 78.0649 38.4972ZM84.5179 36.9091V37.8324H80.8432V36.9091H84.5179ZM81.9142 35.2102H83.0037V41.9688C83.0037 42.2765 83.0483 42.5073 83.1376 42.6612C83.2299 42.812 83.3469 42.9136 83.4885 42.9659C83.6331 43.0152 83.7854 43.0398 83.9455 43.0398C84.0655 43.0398 84.164 43.0336 84.2409 43.0213C84.3179 43.0059 84.3794 42.9936 84.4256 42.9844L84.6472 43.9631C84.5733 43.9908 84.4702 44.0185 84.3379 44.0462C84.2055 44.0769 84.0378 44.0923 83.8347 44.0923C83.5269 44.0923 83.2253 44.0262 82.9299 43.8938C82.6375 43.7615 82.3943 43.5599 82.2005 43.2891C82.0096 43.0182 81.9142 42.6766 81.9142 42.2642V35.2102ZM87.7568 44V36.9091H88.8093V37.9801H88.8832C89.0125 37.6293 89.2464 37.3446 89.5849 37.1261C89.9234 36.9076 90.3051 36.7983 90.7298 36.7983C90.8098 36.7983 90.9098 36.7998 91.0299 36.8029C91.1499 36.806 91.2407 36.8106 91.3022 36.8168V37.9247C91.2653 37.9155 91.1807 37.9016 91.0483 37.8832C90.9191 37.8616 90.7821 37.8509 90.6375 37.8509C90.2928 37.8509 89.985 37.9232 89.7142 38.0678C89.4464 38.2094 89.2341 38.4064 89.0771 38.6587C88.9232 38.908 88.8463 39.1927 88.8463 39.5128V44H87.7568ZM98.6624 41.1009V36.9091H99.7519V44H98.6624V42.7997H98.5886C98.4224 43.1598 98.1639 43.466 97.813 43.7184C97.4622 43.9677 97.019 44.0923 96.4835 44.0923C96.0403 44.0923 95.6463 43.9954 95.3016 43.8015C94.9569 43.6045 94.6861 43.3091 94.4891 42.9151C94.2922 42.5181 94.1937 42.018 94.1937 41.4148V36.9091H95.2832V41.3409C95.2832 41.858 95.4278 42.2704 95.7171 42.5781C96.0095 42.8859 96.3819 43.0398 96.8343 43.0398C97.1052 43.0398 97.3806 42.9705 97.6607 42.832C97.9438 42.6935 98.1808 42.4812 98.3716 42.195C98.5655 41.9087 98.6624 41.544 98.6624 41.1009ZM106.228 44.1477C105.563 44.1477 104.991 43.9908 104.511 43.6768C104.031 43.3629 103.661 42.9305 103.403 42.3796C103.144 41.8287 103.015 41.1993 103.015 40.4915C103.015 39.7713 103.147 39.1358 103.412 38.5849C103.68 38.0309 104.052 37.5985 104.529 37.2876C105.009 36.9737 105.569 36.8168 106.21 36.8168C106.708 36.8168 107.158 36.9091 107.558 37.0938C107.958 37.2784 108.285 37.5369 108.541 37.8693C108.796 38.2017 108.955 38.5895 109.016 39.0327H107.927C107.844 38.7095 107.659 38.4233 107.373 38.174C107.09 37.9216 106.708 37.7955 106.228 37.7955C105.803 37.7955 105.431 37.9062 105.111 38.1278C104.794 38.3464 104.546 38.6557 104.368 39.0558C104.192 39.4528 104.105 39.919 104.105 40.4545C104.105 41.0024 104.191 41.4794 104.363 41.8857C104.538 42.2919 104.785 42.6074 105.102 42.832C105.422 43.0567 105.797 43.169 106.228 43.169C106.511 43.169 106.768 43.1198 106.999 43.0213C107.23 42.9228 107.425 42.7812 107.585 42.5966C107.745 42.4119 107.859 42.1903 107.927 41.9318H109.016C108.955 42.3504 108.803 42.7274 108.559 43.0629C108.319 43.3952 108.001 43.6599 107.604 43.8569C107.21 44.0508 106.751 44.1477 106.228 44.1477ZM115.09 44.1477C114.425 44.1477 113.853 43.9908 113.372 43.6768C112.892 43.3629 112.523 42.9305 112.265 42.3796C112.006 41.8287 111.877 41.1993 111.877 40.4915C111.877 39.7713 112.009 39.1358 112.274 38.5849C112.542 38.0309 112.914 37.5985 113.391 37.2876C113.871 36.9737 114.431 36.8168 115.071 36.8168C115.57 36.8168 116.019 36.9091 116.419 37.0938C116.819 37.2784 117.147 37.5369 117.403 37.8693C117.658 38.2017 117.817 38.5895 117.878 39.0327H116.789C116.706 38.7095 116.521 38.4233 116.235 38.174C115.952 37.9216 115.57 37.7955 115.09 37.7955C114.665 37.7955 114.293 37.9062 113.973 38.1278C113.656 38.3464 113.408 38.6557 113.229 39.0558C113.054 39.4528 112.966 39.919 112.966 40.4545C112.966 41.0024 113.052 41.4794 113.225 41.8857C113.4 42.2919 113.646 42.6074 113.963 42.832C114.283 43.0567 114.659 43.169 115.09 43.169C115.373 43.169 115.63 43.1198 115.861 43.0213C116.092 42.9228 116.287 42.7812 116.447 42.5966C116.607 42.4119 116.721 42.1903 116.789 41.9318H117.878C117.817 42.3504 117.664 42.7274 117.421 43.0629C117.181 43.3952 116.863 43.6599 116.466 43.8569C116.072 44.0508 115.613 44.1477 115.09 44.1477ZM121.071 44V36.9091H122.16V44H121.071ZM121.625 35.7273C121.412 35.7273 121.229 35.6549 121.075 35.5103C120.925 35.3656 120.849 35.1918 120.849 34.9886C120.849 34.7855 120.925 34.6116 121.075 34.467C121.229 34.3223 121.412 34.25 121.625 34.25C121.837 34.25 122.019 34.3223 122.17 34.467C122.323 34.6116 122.4 34.7855 122.4 34.9886C122.4 35.1918 122.323 35.3656 122.17 35.5103C122.019 35.6549 121.837 35.7273 121.625 35.7273ZM128.636 44.1477C127.996 44.1477 127.435 43.9954 126.951 43.6907C126.471 43.386 126.096 42.9598 125.825 42.4119C125.557 41.8641 125.423 41.224 125.423 40.4915C125.423 39.7528 125.557 39.1081 125.825 38.5572C126.096 38.0063 126.471 37.5785 126.951 37.2738C127.435 36.9691 127.996 36.8168 128.636 36.8168C129.277 36.8168 129.837 36.9691 130.317 37.2738C130.8 37.5785 131.176 38.0063 131.443 38.5572C131.714 39.1081 131.85 39.7528 131.85 40.4915C131.85 41.224 131.714 41.8641 131.443 42.4119C131.176 42.9598 130.8 43.386 130.317 43.6907C129.837 43.9954 129.277 44.1477 128.636 44.1477ZM128.636 43.169C129.123 43.169 129.523 43.0444 129.837 42.7951C130.151 42.5458 130.383 42.218 130.534 41.8118C130.685 41.4055 130.76 40.9654 130.76 40.4915C130.76 40.0175 130.685 39.5759 130.534 39.1665C130.383 38.7572 130.151 38.4264 129.837 38.174C129.523 37.9216 129.123 37.7955 128.636 37.7955C128.15 37.7955 127.75 37.9216 127.436 38.174C127.122 38.4264 126.89 38.7572 126.739 39.1665C126.588 39.5759 126.513 40.0175 126.513 40.4915C126.513 40.9654 126.588 41.4055 126.739 41.8118C126.89 42.218 127.122 42.5458 127.436 42.7951C127.75 43.0444 128.15 43.169 128.636 43.169ZM128.138 35.9489L129.264 33.8068H130.538L129.098 35.9489H128.138ZM136.202 39.7344V44H135.113V36.9091H136.165V38.017H136.258C136.424 37.657 136.676 37.3677 137.015 37.1491C137.353 36.9276 137.79 36.8168 138.326 36.8168C138.806 36.8168 139.226 36.9152 139.586 37.1122C139.946 37.3061 140.226 37.6016 140.426 37.9986C140.626 38.3925 140.726 38.8911 140.726 39.4943V44H139.637V39.5682C139.637 39.0111 139.492 38.5772 139.203 38.2663C138.914 37.9524 138.517 37.7955 138.012 37.7955C137.664 37.7955 137.353 37.8709 137.079 38.0217C136.808 38.1725 136.595 38.3925 136.438 38.6818C136.281 38.9711 136.202 39.322 136.202 39.7344ZM147.659 34.1023L144.613 45.4219H143.615L146.662 34.1023H147.659ZM58.9449 60V50.5455H64.6509V51.5611H60.0898V54.7557H64.3554V55.7713H60.0898V58.9844H64.7248V60H58.9449ZM73.965 52.9091L71.3429 60H70.2349L67.6128 52.9091H68.7946L70.752 58.5597H70.8258L72.7832 52.9091H73.965ZM78.8739 60.1662C78.4246 60.1662 78.0168 60.0816 77.6505 59.9123C77.2843 59.7399 76.9935 59.4922 76.778 59.169C76.5626 58.8428 76.4549 58.4489 76.4549 57.9872C76.4549 57.581 76.5349 57.2517 76.6949 56.9993C76.855 56.7438 77.0689 56.5438 77.3366 56.3991C77.6044 56.2545 77.8998 56.1468 78.223 56.076C78.5492 56.0021 78.877 55.9437 79.2063 55.9006C79.6372 55.8452 79.9865 55.8036 80.2542 55.7759C80.5251 55.7451 80.722 55.6944 80.8451 55.6236C80.9713 55.5528 81.0344 55.4297 81.0344 55.2543V55.2173C81.0344 54.7618 80.9098 54.4079 80.6605 54.1555C80.4143 53.9032 80.0403 53.777 79.5387 53.777C79.0185 53.777 78.6108 53.8909 78.3153 54.1186C78.0198 54.3464 77.8121 54.5895 77.6921 54.848L76.658 54.4787C76.8426 54.0478 77.0889 53.7124 77.3966 53.4723C77.7075 53.2292 78.046 53.0599 78.4122 52.9645C78.7816 52.866 79.1447 52.8168 79.5017 52.8168C79.7295 52.8168 79.9911 52.8445 80.2865 52.8999C80.5851 52.9522 80.8728 53.0614 81.1498 53.2276C81.4299 53.3938 81.6622 53.6446 81.8469 53.9801C82.0316 54.3156 82.1239 54.7649 82.1239 55.3281V60H81.0344V59.0398H80.979C80.9051 59.1937 80.782 59.3583 80.6097 59.5337C80.4373 59.7092 80.2081 59.8584 79.9218 59.9815C79.6356 60.1046 79.2863 60.1662 78.8739 60.1662ZM79.0401 59.1875C79.471 59.1875 79.8341 59.1029 80.1296 58.9336C80.4281 58.7643 80.6528 58.5458 80.8036 58.2781C80.9575 58.0103 81.0344 57.7287 81.0344 57.4332V56.4361C80.9882 56.4915 80.8867 56.5423 80.7297 56.5884C80.5758 56.6315 80.3973 56.67 80.1942 56.7038C79.9942 56.7346 79.7987 56.7623 79.6079 56.7869C79.4202 56.8085 79.2678 56.8269 79.1509 56.8423C78.8677 56.8793 78.6031 56.9393 78.3569 57.0224C78.1137 57.1024 77.9167 57.224 77.7659 57.3871C77.6182 57.5471 77.5444 57.7656 77.5444 58.0426C77.5444 58.4212 77.6844 58.7074 77.9644 58.9013C78.2476 59.0921 78.6061 59.1875 79.0401 59.1875ZM86.8019 50.5455V60H85.7124V50.5455H86.8019ZM94.8662 57.1009V52.9091H95.9556V60H94.8662V58.7997H94.7923C94.6261 59.1598 94.3676 59.466 94.0167 59.7184C93.6659 59.9677 93.2227 60.0923 92.6872 60.0923C92.244 60.0923 91.8501 59.9954 91.5054 59.8015C91.1607 59.6045 90.8898 59.3091 90.6929 58.9151C90.4959 58.5181 90.3974 58.018 90.3974 57.4148V52.9091H91.4869V57.3409C91.4869 57.858 91.6315 58.2704 91.9208 58.5781C92.2132 58.8859 92.5856 59.0398 93.038 59.0398C93.3089 59.0398 93.5843 58.9705 93.8644 58.832C94.1475 58.6935 94.3845 58.4812 94.5753 58.195C94.7692 57.9087 94.8662 57.544 94.8662 57.1009ZM101.638 60.1662C101.188 60.1662 100.781 60.0816 100.414 59.9123C100.048 59.7399 99.7573 59.4922 99.5419 59.169C99.3264 58.8428 99.2187 58.4489 99.2187 57.9872C99.2187 57.581 99.2987 57.2517 99.4588 56.9993C99.6188 56.7438 99.8327 56.5438 100.1 56.3991C100.368 56.2545 100.664 56.1468 100.987 56.076C101.313 56.0021 101.641 55.9437 101.97 55.9006C102.401 55.8452 102.75 55.8036 103.018 55.7759C103.289 55.7451 103.486 55.6944 103.609 55.6236C103.735 55.5528 103.798 55.4297 103.798 55.2543V55.2173C103.798 54.7618 103.674 54.4079 103.424 54.1555C103.178 53.9032 102.804 53.777 102.303 53.777C101.782 53.777 101.375 53.8909 101.079 54.1186C100.784 54.3464 100.576 54.5895 100.456 54.848L99.4219 54.4787C99.6065 54.0478 99.8527 53.7124 100.16 53.4723C100.471 53.2292 100.81 53.0599 101.176 52.9645C101.545 52.866 101.909 52.8168 102.266 52.8168C102.493 52.8168 102.755 52.8445 103.05 52.8999C103.349 52.9522 103.637 53.0614 103.914 53.2276C104.194 53.3938 104.426 53.6446 104.611 53.9801C104.795 54.3156 104.888 54.7649 104.888 55.3281V60H103.798V59.0398H103.743C103.669 59.1937 103.546 59.3583 103.374 59.5337C103.201 59.7092 102.972 59.8584 102.686 59.9815C102.399 60.1046 102.05 60.1662 101.638 60.1662ZM101.804 59.1875C102.235 59.1875 102.598 59.1029 102.893 58.9336C103.192 58.7643 103.417 58.5458 103.567 58.2781C103.721 58.0103 103.798 57.7287 103.798 57.4332V56.4361C103.752 56.4915 103.651 56.5423 103.494 56.5884C103.34 56.6315 103.161 56.67 102.958 56.7038C102.758 56.7346 102.563 56.7623 102.372 56.7869C102.184 56.8085 102.032 56.8269 101.915 56.8423C101.632 56.8793 101.367 56.9393 101.121 57.0224C100.878 57.1024 100.681 57.224 100.53 57.3871C100.382 57.5471 100.308 57.7656 100.308 58.0426C100.308 58.4212 100.448 58.7074 100.728 58.9013C101.011 59.0921 101.37 59.1875 101.804 59.1875ZM111.357 60.1477C110.692 60.1477 110.12 59.9908 109.64 59.6768C109.16 59.3629 108.79 58.9305 108.532 58.3796C108.273 57.8287 108.144 57.1993 108.144 56.4915C108.144 55.7713 108.276 55.1358 108.541 54.5849C108.809 54.0309 109.181 53.5985 109.658 53.2876C110.138 52.9737 110.698 52.8168 111.339 52.8168C111.837 52.8168 112.286 52.9091 112.687 53.0938C113.087 53.2784 113.414 53.5369 113.67 53.8693C113.925 54.2017 114.084 54.5895 114.145 55.0327H113.056C112.973 54.7095 112.788 54.4233 112.502 54.174C112.219 53.9216 111.837 53.7955 111.357 53.7955C110.932 53.7955 110.56 53.9062 110.24 54.1278C109.923 54.3464 109.675 54.6557 109.497 55.0558C109.321 55.4528 109.233 55.919 109.233 56.4545C109.233 57.0024 109.32 57.4794 109.492 57.8857C109.667 58.2919 109.914 58.6074 110.231 58.832C110.551 59.0567 110.926 59.169 111.357 59.169C111.64 59.169 111.897 59.1198 112.128 59.0213C112.359 58.9228 112.554 58.7812 112.714 58.5966C112.874 58.4119 112.988 58.1903 113.056 57.9318H114.145C114.084 58.3504 113.931 58.7274 113.688 59.0629C113.448 59.3952 113.13 59.6599 112.733 59.8569C112.339 60.0508 111.88 60.1477 111.357 60.1477ZM117.338 60V52.9091H118.428V60H117.338ZM117.892 51.7273C117.68 51.7273 117.497 51.6549 117.343 51.5103C117.192 51.3656 117.116 51.1918 117.116 50.9886C117.116 50.7855 117.192 50.6116 117.343 50.467C117.497 50.3223 117.68 50.25 117.892 50.25C118.104 50.25 118.286 50.3223 118.437 50.467C118.591 50.6116 118.668 50.7855 118.668 50.9886C118.668 51.1918 118.591 51.3656 118.437 51.5103C118.286 51.6549 118.104 51.7273 117.892 51.7273ZM124.904 60.1477C124.264 60.1477 123.702 59.9954 123.219 59.6907C122.739 59.386 122.363 58.9598 122.092 58.4119C121.824 57.8641 121.691 57.224 121.691 56.4915C121.691 55.7528 121.824 55.1081 122.092 54.5572C122.363 54.0063 122.739 53.5785 123.219 53.2738C123.702 52.9691 124.264 52.8168 124.904 52.8168C125.544 52.8168 126.104 52.9691 126.584 53.2738C127.067 53.5785 127.443 54.0063 127.71 54.5572C127.981 55.1081 128.117 55.7528 128.117 56.4915C128.117 57.224 127.981 57.8641 127.71 58.4119C127.443 58.9598 127.067 59.386 126.584 59.6907C126.104 59.9954 125.544 60.1477 124.904 60.1477ZM124.904 59.169C125.39 59.169 125.79 59.0444 126.104 58.7951C126.418 58.5458 126.65 58.218 126.801 57.8118C126.952 57.4055 127.027 56.9654 127.027 56.4915C127.027 56.0175 126.952 55.5759 126.801 55.1665C126.65 54.7572 126.418 54.4264 126.104 54.174C125.79 53.9216 125.39 53.7955 124.904 53.7955C124.417 53.7955 124.017 53.9216 123.703 54.174C123.389 54.4264 123.157 54.7572 123.006 55.1665C122.855 55.5759 122.78 56.0175 122.78 56.4915C122.78 56.9654 122.855 57.4055 123.006 57.8118C123.157 58.218 123.389 58.5458 123.703 58.7951C124.017 59.0444 124.417 59.169 124.904 59.169ZM124.405 51.9489L125.532 49.8068H126.806L125.365 51.9489H124.405ZM132.469 55.7344V60H131.38V52.9091H132.432V54.017H132.525C132.691 53.657 132.943 53.3677 133.282 53.1491C133.62 52.9276 134.057 52.8168 134.593 52.8168C135.073 52.8168 135.493 52.9152 135.853 53.1122C136.213 53.3061 136.493 53.6016 136.693 53.9986C136.893 54.3925 136.993 54.8911 136.993 55.4943V60H135.904V55.5682C135.904 55.0111 135.759 54.5772 135.47 54.2663C135.181 53.9524 134.784 53.7955 134.279 53.7955C133.931 53.7955 133.62 53.8709 133.346 54.0217C133.076 54.1725 132.862 54.3925 132.705 54.6818C132.548 54.9711 132.469 55.322 132.469 55.7344Z" fill="black"/>
</svg>
