<svg width="256" height="62" viewBox="0 0 256 62" fill="none" xmlns="http://www.w3.org/2000/svg">
<path d="M30.3999 45.75C23.4537 44.2062 17.8999 37.6525 17.8999 30.75V23.25L30.3999 18.25L42.8999 23.25V30.75C42.8999 37.655 37.3462 44.2062 30.3999 45.75ZM20.3999 24.5V30.75C20.4713 33.6402 21.4879 36.4273 23.2939 38.6848C25.0999 40.9423 27.5959 42.5459 30.3999 43.25C33.2039 42.5459 35.6999 40.9423 37.5059 38.6848C39.312 36.4273 40.3285 33.6402 40.3999 30.75V24.5L30.3999 20.75L20.3999 24.5Z" fill="#353535"/>
<path d="M30.3999 30.75C32.1258 30.75 33.5249 29.3509 33.5249 27.625C33.5249 25.8991 32.1258 24.5 30.3999 24.5C28.674 24.5 27.2749 25.8991 27.2749 27.625C27.2749 29.3509 28.674 30.75 30.3999 30.75Z" fill="#353535"/>
<path d="M24.1499 35.75C24.766 36.8728 25.6694 37.8116 26.7676 38.4705C27.8658 39.1295 29.1193 39.4847 30.3999 39.5C31.6805 39.4847 32.934 39.1295 34.0322 38.4705C35.1304 37.8116 36.0338 36.8728 36.6499 35.75C36.6187 33.38 32.4724 32 30.3999 32C28.3162 32 24.1812 33.38 24.1499 35.75Z" fill="#353535"/>
<path d="M54.157 26.0611V25.1193L58.3118 18.5455H58.9951V20.0043H58.5334L55.3942 24.9716V25.0455H60.9894V26.0611H54.157ZM58.6073 28V25.7749V25.3363V18.5455H59.6968V28H58.6073ZM67.4032 28.1293C66.7077 28.1293 66.1152 27.94 65.6259 27.5614C65.1365 27.1798 64.7626 26.6274 64.5041 25.9041C64.2456 25.1778 64.1163 24.3007 64.1163 23.2727C64.1163 22.2509 64.2456 21.3784 64.5041 20.6552C64.7657 19.9289 65.1411 19.3749 65.6305 18.9933C66.1229 18.6085 66.7138 18.4162 67.4032 18.4162C68.0926 18.4162 68.682 18.6085 69.1713 18.9933C69.6638 19.3749 70.0392 19.9289 70.2978 20.6552C70.5594 21.3784 70.6902 22.2509 70.6902 23.2727C70.6902 24.3007 70.5609 25.1778 70.3024 25.9041C70.0438 26.6274 69.6699 27.1798 69.1806 27.5614C68.6912 27.94 68.0988 28.1293 67.4032 28.1293ZM67.4032 27.1136C68.0926 27.1136 68.6281 26.7812 69.0098 26.1165C69.3914 25.4517 69.5822 24.5038 69.5822 23.2727C69.5822 22.4541 69.4945 21.757 69.3191 21.1815C69.1467 20.6059 68.8974 20.1674 68.5712 19.8658C68.248 19.5642 67.8587 19.4134 67.4032 19.4134C66.72 19.4134 66.186 19.7504 65.8013 20.4244C65.4166 21.0953 65.2242 22.0447 65.2242 23.2727C65.2242 24.0914 65.3104 24.7869 65.4828 25.3594C65.6551 25.9318 65.9029 26.3673 66.226 26.6658C66.5523 26.9644 66.9447 27.1136 67.4032 27.1136ZM77.1282 28.1293C76.4327 28.1293 75.8402 27.94 75.3509 27.5614C74.8615 27.1798 74.4876 26.6274 74.2291 25.9041C73.9706 25.1778 73.8413 24.3007 73.8413 23.2727C73.8413 22.2509 73.9706 21.3784 74.2291 20.6552C74.4907 19.9289 74.8661 19.3749 75.3555 18.9933C75.8479 18.6085 76.4388 18.4162 77.1282 18.4162C77.8176 18.4162 78.407 18.6085 78.8963 18.9933C79.3888 19.3749 79.7642 19.9289 80.0228 20.6552C80.2844 21.3784 80.4152 22.2509 80.4152 23.2727C80.4152 24.3007 80.2859 25.1778 80.0274 25.9041C79.7688 26.6274 79.3949 27.1798 78.9056 27.5614C78.4162 27.94 77.8238 28.1293 77.1282 28.1293ZM77.1282 27.1136C77.8176 27.1136 78.3531 26.7812 78.7348 26.1165C79.1164 25.4517 79.3072 24.5038 79.3072 23.2727C79.3072 22.4541 79.2195 21.757 79.0441 21.1815C78.8717 20.6059 78.6224 20.1674 78.2962 19.8658C77.973 19.5642 77.5837 19.4134 77.1282 19.4134C76.445 19.4134 75.911 19.7504 75.5263 20.4244C75.1416 21.0953 74.9492 22.0447 74.9492 23.2727C74.9492 24.0914 75.0354 24.7869 75.2078 25.3594C75.3801 25.9318 75.6279 26.3673 75.951 26.6658C76.2773 26.9644 76.6697 27.1136 77.1282 27.1136ZM86.8532 28.1293C86.1577 28.1293 85.5652 27.94 85.0759 27.5614C84.5865 27.1798 84.2126 26.6274 83.9541 25.9041C83.6956 25.1778 83.5663 24.3007 83.5663 23.2727C83.5663 22.2509 83.6956 21.3784 83.9541 20.6552C84.2157 19.9289 84.5911 19.3749 85.0805 18.9933C85.5729 18.6085 86.1638 18.4162 86.8532 18.4162C87.5426 18.4162 88.132 18.6085 88.6213 18.9933C89.1138 19.3749 89.4892 19.9289 89.7478 20.6552C90.0094 21.3784 90.1402 22.2509 90.1402 23.2727C90.1402 24.3007 90.0109 25.1778 89.7524 25.9041C89.4938 26.6274 89.1199 27.1798 88.6306 27.5614C88.1412 27.94 87.5488 28.1293 86.8532 28.1293ZM86.8532 27.1136C87.5426 27.1136 88.0781 26.7812 88.4598 26.1165C88.8414 25.4517 89.0322 24.5038 89.0322 23.2727C89.0322 22.4541 88.9445 21.757 88.7691 21.1815C88.5967 20.6059 88.3474 20.1674 88.0212 19.8658C87.698 19.5642 87.3087 19.4134 86.8532 19.4134C86.17 19.4134 85.636 19.7504 85.2513 20.4244C84.8666 21.0953 84.6742 22.0447 84.6742 23.2727C84.6742 24.0914 84.7604 24.7869 84.9328 25.3594C85.1051 25.9318 85.3529 26.3673 85.676 26.6658C86.0023 26.9644 86.3947 27.1136 86.8532 27.1136ZM93.9768 28.0739C93.7491 28.0739 93.5537 27.9923 93.3905 27.8292C93.2274 27.6661 93.1459 27.4706 93.1459 27.2429C93.1459 27.0152 93.2274 26.8197 93.3905 26.6566C93.5537 26.4935 93.7491 26.4119 93.9768 26.4119C94.2046 26.4119 94.4 26.4935 94.5631 26.6566C94.7262 26.8197 94.8078 27.0152 94.8078 27.2429C94.8078 27.3937 94.7693 27.5322 94.6924 27.6584C94.6185 27.7846 94.5185 27.8861 94.3923 27.9631C94.2692 28.0369 94.1307 28.0739 93.9768 28.0739ZM103.767 28V18.5455H106.961C107.703 18.5455 108.309 18.6793 108.78 18.9471C109.254 19.2118 109.605 19.5703 109.833 20.0227C110.061 20.4751 110.175 20.9799 110.175 21.5369C110.175 22.094 110.061 22.6003 109.833 23.0558C109.608 23.5112 109.26 23.8744 108.79 24.1452C108.319 24.413 107.715 24.5469 106.98 24.5469H104.69V23.5312H106.943C107.451 23.5312 107.859 23.4435 108.166 23.2681C108.474 23.0927 108.697 22.8557 108.836 22.5572C108.977 22.2556 109.048 21.9155 109.048 21.5369C109.048 21.1584 108.977 20.8198 108.836 20.5213C108.697 20.2228 108.473 19.9889 108.162 19.8196C107.851 19.6473 107.438 19.5611 106.925 19.5611H104.912V28H103.767ZM116.368 28.1477C115.685 28.1477 115.095 27.9969 114.6 27.6953C114.107 27.3906 113.727 26.9659 113.46 26.4212C113.195 25.8733 113.063 25.2363 113.063 24.5099C113.063 23.7836 113.195 23.1435 113.46 22.5895C113.727 22.0324 114.1 21.5985 114.577 21.2876C115.057 20.9737 115.617 20.8168 116.257 20.8168C116.626 20.8168 116.991 20.8783 117.351 21.0014C117.711 21.1245 118.039 21.3246 118.335 21.6016C118.63 21.8755 118.865 22.2386 119.041 22.6911C119.216 23.1435 119.304 23.7005 119.304 24.3622V24.8239H113.838V23.8821H118.196C118.196 23.482 118.116 23.125 117.956 22.8111C117.799 22.4972 117.574 22.2494 117.282 22.0678C116.993 21.8862 116.651 21.7955 116.257 21.7955C115.823 21.7955 115.448 21.9032 115.131 22.1186C114.817 22.331 114.575 22.608 114.406 22.9496C114.237 23.2912 114.152 23.6574 114.152 24.0483V24.6761C114.152 25.2116 114.244 25.6656 114.429 26.038C114.617 26.4073 114.877 26.6889 115.209 26.8828C115.542 27.0736 115.928 27.169 116.368 27.169C116.654 27.169 116.913 27.129 117.143 27.049C117.377 26.9659 117.579 26.8428 117.748 26.6797C117.918 26.5135 118.048 26.3073 118.141 26.0611L119.193 26.3565C119.082 26.7135 118.896 27.0275 118.635 27.2983C118.373 27.5661 118.05 27.7753 117.665 27.9261C117.28 28.0739 116.848 28.1477 116.368 28.1477ZM122.561 28V20.9091H123.614V21.9801H123.688C123.817 21.6293 124.051 21.3446 124.389 21.1261C124.728 20.9076 125.11 20.7983 125.534 20.7983C125.614 20.7983 125.714 20.7998 125.834 20.8029C125.954 20.806 126.045 20.8106 126.107 20.8168V21.9247C126.07 21.9155 125.985 21.9016 125.853 21.8832C125.724 21.8616 125.587 21.8509 125.442 21.8509C125.097 21.8509 124.79 21.9232 124.519 22.0678C124.251 22.2094 124.039 22.4064 123.882 22.6587C123.728 22.908 123.651 23.1927 123.651 23.5128V28H122.561ZM134.021 22.4972L133.042 22.7741C132.981 22.611 132.89 22.4525 132.77 22.2987C132.653 22.1417 132.493 22.0124 132.29 21.9109C132.087 21.8093 131.827 21.7585 131.51 21.7585C131.076 21.7585 130.714 21.8585 130.425 22.0586C130.139 22.2556 129.995 22.5064 129.995 22.8111C129.995 23.0819 130.094 23.2958 130.291 23.4528C130.488 23.6097 130.796 23.7405 131.214 23.8452L132.267 24.1037C132.901 24.2576 133.373 24.493 133.684 24.81C133.995 25.1239 134.15 25.5286 134.15 26.0241C134.15 26.4304 134.033 26.7936 133.799 27.1136C133.569 27.4337 133.245 27.6861 132.83 27.8707C132.414 28.0554 131.931 28.1477 131.38 28.1477C130.657 28.1477 130.058 27.9908 129.585 27.6768C129.111 27.3629 128.81 26.9044 128.684 26.3011L129.718 26.0426C129.817 26.4242 130.003 26.7105 130.277 26.9013C130.554 27.0921 130.916 27.1875 131.362 27.1875C131.87 27.1875 132.273 27.0798 132.571 26.8643C132.873 26.6458 133.024 26.3842 133.024 26.0795C133.024 25.8333 132.938 25.6271 132.765 25.4609C132.593 25.2917 132.328 25.1655 131.971 25.0824L130.789 24.8054C130.14 24.6515 129.663 24.413 129.358 24.0898C129.057 23.7636 128.906 23.3558 128.906 22.8665C128.906 22.4664 129.018 22.1125 129.243 21.8047C129.471 21.4969 129.78 21.2553 130.171 21.0799C130.565 20.9045 131.011 20.8168 131.51 20.8168C132.211 20.8168 132.762 20.9706 133.162 21.2784C133.565 21.5862 133.852 21.9924 134.021 22.4972ZM140.271 28.1477C139.631 28.1477 139.069 27.9954 138.586 27.6907C138.106 27.386 137.73 26.9598 137.459 26.4119C137.192 25.8641 137.058 25.224 137.058 24.4915C137.058 23.7528 137.192 23.1081 137.459 22.5572C137.73 22.0063 138.106 21.5785 138.586 21.2738C139.069 20.9691 139.631 20.8168 140.271 20.8168C140.911 20.8168 141.471 20.9691 141.951 21.2738C142.434 21.5785 142.81 22.0063 143.078 22.5572C143.349 23.1081 143.484 23.7528 143.484 24.4915C143.484 25.224 143.349 25.8641 143.078 26.4119C142.81 26.9598 142.434 27.386 141.951 27.6907C141.471 27.9954 140.911 28.1477 140.271 28.1477ZM140.271 27.169C140.757 27.169 141.157 27.0444 141.471 26.7951C141.785 26.5458 142.017 26.218 142.168 25.8118C142.319 25.4055 142.394 24.9654 142.394 24.4915C142.394 24.0175 142.319 23.5759 142.168 23.1665C142.017 22.7572 141.785 22.4264 141.471 22.174C141.157 21.9216 140.757 21.7955 140.271 21.7955C139.785 21.7955 139.385 21.9216 139.071 22.174C138.757 22.4264 138.524 22.7572 138.374 23.1665C138.223 23.5759 138.147 24.0175 138.147 24.4915C138.147 24.9654 138.223 25.4055 138.374 25.8118C138.524 26.218 138.757 26.5458 139.071 26.7951C139.385 27.0444 139.785 27.169 140.271 27.169ZM147.837 23.7344V28H146.747V20.9091H147.8V22.017H147.892C148.058 21.657 148.311 21.3677 148.649 21.1491C148.988 20.9276 149.425 20.8168 149.96 20.8168C150.44 20.8168 150.86 20.9152 151.22 21.1122C151.581 21.3061 151.861 21.6016 152.061 21.9986C152.261 22.3925 152.361 22.8911 152.361 23.4943V28H151.271V23.5682C151.271 23.0111 151.127 22.5772 150.837 22.2663C150.548 21.9524 150.151 21.7955 149.646 21.7955C149.298 21.7955 148.988 21.8709 148.714 22.0217C148.443 22.1725 148.229 22.3925 148.072 22.6818C147.915 22.9711 147.837 23.322 147.837 23.7344ZM158.038 28.1662C157.589 28.1662 157.181 28.0816 156.815 27.9123C156.449 27.7399 156.158 27.4922 155.942 27.169C155.727 26.8428 155.619 26.4489 155.619 25.9872C155.619 25.581 155.699 25.2517 155.859 24.9993C156.019 24.7438 156.233 24.5438 156.501 24.3991C156.769 24.2545 157.064 24.1468 157.387 24.076C157.714 24.0021 158.041 23.9437 158.371 23.9006C158.801 23.8452 159.151 23.8036 159.419 23.7759C159.689 23.7451 159.886 23.6944 160.009 23.6236C160.136 23.5528 160.199 23.4297 160.199 23.2543V23.2173C160.199 22.7618 160.074 22.4079 159.825 22.1555C159.579 21.9032 159.205 21.777 158.703 21.777C158.183 21.777 157.775 21.8909 157.48 22.1186C157.184 22.3464 156.976 22.5895 156.856 22.848L155.822 22.4787C156.007 22.0478 156.253 21.7124 156.561 21.4723C156.872 21.2292 157.21 21.0599 157.577 20.9645C157.946 20.866 158.309 20.8168 158.666 20.8168C158.894 20.8168 159.155 20.8445 159.451 20.8999C159.749 20.9522 160.037 21.0614 160.314 21.2276C160.594 21.3938 160.827 21.6446 161.011 21.9801C161.196 22.3156 161.288 22.7649 161.288 23.3281V28H160.199V27.0398H160.143C160.069 27.1937 159.946 27.3583 159.774 27.5337C159.602 27.7092 159.372 27.8584 159.086 27.9815C158.8 28.1046 158.451 28.1662 158.038 28.1662ZM158.204 27.1875C158.635 27.1875 158.998 27.1029 159.294 26.9336C159.592 26.7643 159.817 26.5458 159.968 26.2781C160.122 26.0103 160.199 25.7287 160.199 25.4332V24.4361C160.153 24.4915 160.051 24.5423 159.894 24.5884C159.74 24.6315 159.562 24.67 159.359 24.7038C159.158 24.7346 158.963 24.7623 158.772 24.7869C158.584 24.8085 158.432 24.8269 158.315 24.8423C158.032 24.8793 157.767 24.9393 157.521 25.0224C157.278 25.1024 157.081 25.224 156.93 25.3871C156.783 25.5471 156.709 25.7656 156.709 26.0426C156.709 26.4212 156.849 26.7074 157.129 26.9013C157.412 27.0921 157.77 27.1875 158.204 27.1875ZM165.966 18.5455V28H164.877V18.5455H165.966ZM177.883 28H174.966V18.5455H178.013C178.93 18.5455 179.715 18.7347 180.367 19.1133C181.019 19.4888 181.52 20.0289 181.867 20.7337C182.215 21.4354 182.389 22.2756 182.389 23.2543C182.389 24.2391 182.214 25.087 181.863 25.7979C181.512 26.5058 181.001 27.0505 180.33 27.4322C179.659 27.8107 178.844 28 177.883 28ZM176.111 26.9844H177.809C178.591 26.9844 179.239 26.8336 179.753 26.532C180.267 26.2304 180.65 25.801 180.902 25.244C181.155 24.6869 181.281 24.0237 181.281 23.2543C181.281 22.491 181.156 21.8339 180.907 21.283C180.658 20.729 180.285 20.3043 179.79 20.0089C179.294 19.7103 178.677 19.5611 177.939 19.5611H176.111V26.9844ZM188.642 28.1477C188.002 28.1477 187.441 27.9954 186.957 27.6907C186.477 27.386 186.102 26.9598 185.831 26.4119C185.563 25.8641 185.429 25.224 185.429 24.4915C185.429 23.7528 185.563 23.1081 185.831 22.5572C186.102 22.0063 186.477 21.5785 186.957 21.2738C187.441 20.9691 188.002 20.8168 188.642 20.8168C189.283 20.8168 189.843 20.9691 190.323 21.2738C190.806 21.5785 191.181 22.0063 191.449 22.5572C191.72 23.1081 191.855 23.7528 191.855 24.4915C191.855 25.224 191.72 25.8641 191.449 26.4119C191.181 26.9598 190.806 27.386 190.323 27.6907C189.843 27.9954 189.283 28.1477 188.642 28.1477ZM188.642 27.169C189.129 27.169 189.529 27.0444 189.843 26.7951C190.157 26.5458 190.389 26.218 190.54 25.8118C190.691 25.4055 190.766 24.9654 190.766 24.4915C190.766 24.0175 190.691 23.5759 190.54 23.1665C190.389 22.7572 190.157 22.4264 189.843 22.174C189.529 21.9216 189.129 21.7955 188.642 21.7955C188.156 21.7955 187.756 21.9216 187.442 22.174C187.128 22.4264 186.896 22.7572 186.745 23.1665C186.594 23.5759 186.519 24.0175 186.519 24.4915C186.519 24.9654 186.594 25.4055 186.745 25.8118C186.896 26.218 187.128 26.5458 187.442 26.7951C187.756 27.0444 188.156 27.169 188.642 27.169ZM197.999 28.1477C197.334 28.1477 196.762 27.9908 196.282 27.6768C195.802 27.3629 195.432 26.9305 195.174 26.3796C194.915 25.8287 194.786 25.1993 194.786 24.4915C194.786 23.7713 194.918 23.1358 195.183 22.5849C195.451 22.0309 195.823 21.5985 196.3 21.2876C196.78 20.9737 197.341 20.8168 197.981 20.8168C198.479 20.8168 198.929 20.9091 199.329 21.0938C199.729 21.2784 200.057 21.5369 200.312 21.8693C200.568 22.2017 200.726 22.5895 200.788 23.0327H199.698C199.615 22.7095 199.43 22.4233 199.144 22.174C198.861 21.9216 198.479 21.7955 197.999 21.7955C197.575 21.7955 197.202 21.9062 196.882 22.1278C196.565 22.3464 196.317 22.6557 196.139 23.0558C195.963 23.4528 195.876 23.919 195.876 24.4545C195.876 25.0024 195.962 25.4794 196.134 25.8857C196.31 26.2919 196.556 26.6074 196.873 26.832C197.193 27.0567 197.568 27.169 197.999 27.169C198.282 27.169 198.539 27.1198 198.77 27.0213C199.001 26.9228 199.196 26.7812 199.356 26.5966C199.517 26.4119 199.63 26.1903 199.698 25.9318H200.788C200.726 26.3504 200.574 26.7274 200.331 27.0629C200.09 27.3952 199.772 27.6599 199.375 27.8569C198.981 28.0508 198.522 28.1477 197.999 28.1477ZM206.953 28.1477C206.27 28.1477 205.681 27.9969 205.185 27.6953C204.693 27.3906 204.313 26.9659 204.045 26.4212C203.78 25.8733 203.648 25.2363 203.648 24.5099C203.648 23.7836 203.78 23.1435 204.045 22.5895C204.313 22.0324 204.685 21.5985 205.162 21.2876C205.642 20.9737 206.202 20.8168 206.842 20.8168C207.212 20.8168 207.577 20.8783 207.937 21.0014C208.297 21.1245 208.624 21.3246 208.92 21.6016C209.215 21.8755 209.451 22.2386 209.626 22.6911C209.802 23.1435 209.889 23.7005 209.889 24.3622V24.8239H204.423V23.8821H208.781C208.781 23.482 208.701 23.125 208.541 22.8111C208.384 22.4972 208.16 22.2494 207.867 22.0678C207.578 21.8862 207.236 21.7955 206.842 21.7955C206.409 21.7955 206.033 21.9032 205.716 22.1186C205.402 22.331 205.161 22.608 204.991 22.9496C204.822 23.2912 204.737 23.6574 204.737 24.0483V24.6761C204.737 25.2116 204.83 25.6656 205.014 26.038C205.202 26.4073 205.462 26.6889 205.795 26.8828C206.127 27.0736 206.513 27.169 206.953 27.169C207.24 27.169 207.498 27.129 207.729 27.049C207.963 26.9659 208.164 26.8428 208.334 26.6797C208.503 26.5135 208.634 26.3073 208.726 26.0611L209.779 26.3565C209.668 26.7135 209.482 27.0275 209.22 27.2983C208.958 27.5661 208.635 27.7753 208.251 27.9261C207.866 28.0739 207.433 28.1477 206.953 28.1477ZM214.236 23.7344V28H213.147V20.9091H214.199V22.017H214.292C214.458 21.657 214.71 21.3677 215.049 21.1491C215.387 20.9276 215.824 20.8168 216.36 20.8168C216.84 20.8168 217.26 20.9152 217.62 21.1122C217.98 21.3061 218.26 21.6016 218.46 21.9986C218.66 22.3925 218.76 22.8911 218.76 23.4943V28H217.671V23.5682C217.671 23.0111 217.526 22.5772 217.237 22.2663C216.948 21.9524 216.551 21.7955 216.046 21.7955C215.698 21.7955 215.387 21.8709 215.113 22.0217C214.842 22.1725 214.629 22.3925 214.472 22.6818C214.315 22.9711 214.236 23.322 214.236 23.7344ZM225.435 20.9091V21.8324H221.76V20.9091H225.435ZM222.831 19.2102H223.921V25.9688C223.921 26.2765 223.965 26.5073 224.055 26.6612C224.147 26.812 224.264 26.9136 224.405 26.9659C224.55 27.0152 224.702 27.0398 224.863 27.0398C224.983 27.0398 225.081 27.0336 225.158 27.0213C225.235 27.0059 225.296 26.9936 225.343 26.9844L225.564 27.9631C225.49 27.9908 225.387 28.0185 225.255 28.0462C225.123 28.0769 224.955 28.0923 224.752 28.0923C224.444 28.0923 224.142 28.0262 223.847 27.8938C223.555 27.7615 223.311 27.5599 223.117 27.2891C222.927 27.0182 222.831 26.6766 222.831 26.2642V19.2102ZM231.571 28.1477C230.887 28.1477 230.298 27.9969 229.803 27.6953C229.31 27.3906 228.93 26.9659 228.662 26.4212C228.398 25.8733 228.265 25.2363 228.265 24.5099C228.265 23.7836 228.398 23.1435 228.662 22.5895C228.93 22.0324 229.302 21.5985 229.779 21.2876C230.26 20.9737 230.82 20.8168 231.46 20.8168C231.829 20.8168 232.194 20.8783 232.554 21.0014C232.914 21.1245 233.242 21.3246 233.537 21.6016C233.833 21.8755 234.068 22.2386 234.244 22.6911C234.419 23.1435 234.507 23.7005 234.507 24.3622V24.8239H229.041V23.8821H233.399C233.399 23.482 233.319 23.125 233.159 22.8111C233.002 22.4972 232.777 22.2494 232.485 22.0678C232.195 21.8862 231.854 21.7955 231.46 21.7955C231.026 21.7955 230.65 21.9032 230.333 22.1186C230.02 22.331 229.778 22.608 229.609 22.9496C229.439 23.2912 229.355 23.6574 229.355 24.0483V24.6761C229.355 25.2116 229.447 25.6656 229.632 26.038C229.819 26.4073 230.08 26.6889 230.412 26.8828C230.744 27.0736 231.131 27.169 231.571 27.169C231.857 27.169 232.115 27.129 232.346 27.049C232.58 26.9659 232.782 26.8428 232.951 26.6797C233.12 26.5135 233.251 26.3073 233.343 26.0611L234.396 26.3565C234.285 26.7135 234.099 27.0275 233.837 27.2983C233.576 27.5661 233.253 27.7753 232.868 27.9261C232.483 28.0739 232.051 28.1477 231.571 28.1477ZM55.0988 46.6591C54.9141 46.6591 54.7495 46.6437 54.6048 46.6129C54.4602 46.5852 54.3601 46.5575 54.3047 46.5298L54.5817 45.5696C54.8464 45.6373 55.0803 45.6619 55.2834 45.6435C55.4866 45.625 55.6666 45.5342 55.8236 45.3711C55.9836 45.2111 56.1298 44.951 56.2621 44.5909L56.4652 44.0369L53.8431 36.9091H55.0249L56.9823 42.5597H57.0562L59.0135 36.9091H60.1954L57.1854 45.0341C57.05 45.4003 56.8823 45.7035 56.6822 45.9435C56.4822 46.1867 56.2498 46.3667 55.9851 46.4837C55.7235 46.6006 55.4281 46.6591 55.0988 46.6591ZM69.0252 44H67.8249L71.2965 34.5455H72.4783L75.9499 44H74.7496L71.9243 36.0412H71.8504L69.0252 44ZM69.4683 40.3068H74.3064V41.3224H69.4683V40.3068ZM81.5524 44.1477C80.9614 44.1477 80.4398 43.9985 79.9874 43.6999C79.535 43.3983 79.181 42.9736 78.9256 42.4258C78.6701 41.8749 78.5424 41.224 78.5424 40.473C78.5424 39.7282 78.6701 39.0819 78.9256 38.5341C79.181 37.9863 79.5365 37.5631 79.992 37.2646C80.4475 36.966 80.9738 36.8168 81.5708 36.8168C82.0325 36.8168 82.3972 36.8937 82.6649 37.0476C82.9358 37.1984 83.142 37.3707 83.2835 37.5646C83.4282 37.7554 83.5405 37.9124 83.6205 38.0355H83.7129V34.5455H84.8024V44H83.7498V42.9105H83.6205C83.5405 43.0398 83.4266 43.2029 83.2789 43.3999C83.1312 43.5937 82.9204 43.7676 82.6465 43.9215C82.3725 44.0723 82.0078 44.1477 81.5524 44.1477ZM81.7001 43.169C82.1371 43.169 82.5064 43.0552 82.808 42.8274C83.1096 42.5966 83.3389 42.2781 83.4959 41.8718C83.6528 41.4625 83.7313 40.9901 83.7313 40.4545C83.7313 39.9252 83.6544 39.462 83.5005 39.065C83.3466 38.6649 83.1189 38.354 82.8173 38.1325C82.5157 37.9078 82.1433 37.7955 81.7001 37.7955C81.2384 37.7955 80.8537 37.9139 80.546 38.1509C80.2413 38.3848 80.012 38.7034 79.8581 39.1065C79.7073 39.5066 79.6319 39.956 79.6319 40.4545C79.6319 40.9593 79.7088 41.4179 79.8627 41.8303C80.0197 42.2396 80.2505 42.5658 80.5552 42.8089C80.863 43.049 81.2446 43.169 81.7001 43.169ZM88.549 44V36.9091H89.6016V38.017H89.6939C89.8416 37.6385 90.0801 37.3446 90.4095 37.1353C90.7388 36.9229 91.1342 36.8168 91.5959 36.8168C92.0637 36.8168 92.453 36.9229 92.7639 37.1353C93.0778 37.3446 93.3225 37.6385 93.4979 38.017H93.5717C93.7533 37.6508 94.0257 37.36 94.3889 37.1445C94.752 36.926 95.1875 36.8168 95.6953 36.8168C96.3293 36.8168 96.8479 37.0153 97.2511 37.4123C97.6542 37.8062 97.8558 38.4202 97.8558 39.2543V44H96.7663V39.2543C96.7663 38.7311 96.6232 38.3571 96.337 38.1325C96.0508 37.9078 95.7138 37.7955 95.326 37.7955C94.8274 37.7955 94.4412 37.9463 94.1673 38.2479C93.8934 38.5464 93.7564 38.925 93.7564 39.3835V44H92.6484V39.1435C92.6484 38.7403 92.5176 38.4156 92.256 38.1694C91.9944 37.9201 91.6574 37.7955 91.245 37.7955C90.9619 37.7955 90.6972 37.8709 90.451 38.0217C90.2079 38.1725 90.0109 38.3817 89.8601 38.6495C89.7124 38.9142 89.6385 39.2204 89.6385 39.5682V44H88.549ZM101.448 44V36.9091H102.537V44H101.448ZM102.002 35.7273C101.789 35.7273 101.606 35.6549 101.452 35.5103C101.302 35.3656 101.226 35.1918 101.226 34.9886C101.226 34.7855 101.302 34.6116 101.452 34.467C101.606 34.3223 101.789 34.25 102.002 34.25C102.214 34.25 102.396 34.3223 102.547 34.467C102.7 34.6116 102.777 34.7855 102.777 34.9886C102.777 35.1918 102.7 35.3656 102.547 35.5103C102.396 35.6549 102.214 35.7273 102.002 35.7273ZM107.222 39.7344V44H106.133V36.9091H107.185V38.017H107.278C107.444 37.657 107.696 37.3677 108.035 37.1491C108.373 36.9276 108.81 36.8168 109.346 36.8168C109.826 36.8168 110.246 36.9152 110.606 37.1122C110.966 37.3061 111.246 37.6016 111.446 37.9986C111.646 38.3925 111.746 38.8911 111.746 39.4943V44H110.657V39.5682C110.657 39.0111 110.512 38.5772 110.223 38.2663C109.934 37.9524 109.537 37.7955 109.032 37.7955C108.684 37.7955 108.373 37.8709 108.099 38.0217C107.829 38.1725 107.615 38.3925 107.458 38.6818C107.301 38.9711 107.222 39.322 107.222 39.7344ZM115.337 44V36.9091H116.427V44H115.337ZM115.891 35.7273C115.679 35.7273 115.496 35.6549 115.342 35.5103C115.191 35.3656 115.116 35.1918 115.116 34.9886C115.116 34.7855 115.191 34.6116 115.342 34.467C115.496 34.3223 115.679 34.25 115.891 34.25C116.104 34.25 116.285 34.3223 116.436 34.467C116.59 34.6116 116.667 34.7855 116.667 34.9886C116.667 35.1918 116.59 35.3656 116.436 35.5103C116.285 35.6549 116.104 35.7273 115.891 35.7273ZM125.045 38.4972L124.066 38.7741C124.005 38.611 123.914 38.4525 123.794 38.2987C123.677 38.1417 123.517 38.0124 123.314 37.9109C123.111 37.8093 122.851 37.7585 122.534 37.7585C122.1 37.7585 121.738 37.8585 121.449 38.0586C121.163 38.2556 121.019 38.5064 121.019 38.8111C121.019 39.0819 121.118 39.2958 121.315 39.4528C121.512 39.6097 121.82 39.7405 122.238 39.8452L123.291 40.1037C123.925 40.2576 124.397 40.493 124.708 40.81C125.019 41.1239 125.174 41.5286 125.174 42.0241C125.174 42.4304 125.057 42.7936 124.823 43.1136C124.593 43.4337 124.269 43.6861 123.854 43.8707C123.438 44.0554 122.955 44.1477 122.404 44.1477C121.681 44.1477 121.083 43.9908 120.609 43.6768C120.135 43.3629 119.835 42.9044 119.708 42.3011L120.742 42.0426C120.841 42.4242 121.027 42.7105 121.301 42.9013C121.578 43.0921 121.94 43.1875 122.386 43.1875C122.894 43.1875 123.297 43.0798 123.595 42.8643C123.897 42.6458 124.048 42.3842 124.048 42.0795C124.048 41.8333 123.962 41.6271 123.789 41.4609C123.617 41.2917 123.352 41.1655 122.995 41.0824L121.813 40.8054C121.164 40.6515 120.687 40.413 120.382 40.0898C120.081 39.7636 119.93 39.3558 119.93 38.8665C119.93 38.4664 120.042 38.1125 120.267 37.8047C120.495 37.4969 120.804 37.2553 121.195 37.0799C121.589 36.9045 122.035 36.8168 122.534 36.8168C123.235 36.8168 123.786 36.9706 124.186 37.2784C124.589 37.5862 124.876 37.9924 125.045 38.4972ZM131.498 36.9091V37.8324H127.823V36.9091H131.498ZM128.894 35.2102H129.984V41.9688C129.984 42.2765 130.028 42.5073 130.118 42.6612C130.21 42.812 130.327 42.9136 130.469 42.9659C130.613 43.0152 130.766 43.0398 130.926 43.0398C131.046 43.0398 131.144 43.0336 131.221 43.0213C131.298 43.0059 131.36 42.9936 131.406 42.9844L131.627 43.9631C131.553 43.9908 131.45 44.0185 131.318 44.0462C131.186 44.0769 131.018 44.0923 130.815 44.0923C130.507 44.0923 130.205 44.0262 129.91 43.8938C129.618 43.7615 129.374 43.5599 129.181 43.2891C128.99 43.0182 128.894 42.6766 128.894 42.2642V35.2102ZM134.737 44V36.9091H135.789V37.9801H135.863C135.993 37.6293 136.226 37.3446 136.565 37.1261C136.904 36.9076 137.285 36.7983 137.71 36.7983C137.79 36.7983 137.89 36.7998 138.01 36.8029C138.13 36.806 138.221 36.8106 138.282 36.8168V37.9247C138.245 37.9155 138.161 37.9016 138.028 37.8832C137.899 37.8616 137.762 37.8509 137.618 37.8509C137.273 37.8509 136.965 37.9232 136.694 38.0678C136.427 38.2094 136.214 38.4064 136.057 38.6587C135.903 38.908 135.826 39.1927 135.826 39.5128V44H134.737ZM143.26 44.1662C142.811 44.1662 142.403 44.0816 142.037 43.9123C141.671 43.7399 141.38 43.4922 141.165 43.169C140.949 42.8428 140.841 42.4489 140.841 41.9872C140.841 41.581 140.921 41.2517 141.081 40.9993C141.242 40.7438 141.455 40.5438 141.723 40.3991C141.991 40.2545 142.286 40.1468 142.61 40.076C142.936 40.0021 143.264 39.9437 143.593 39.9006C144.024 39.8452 144.373 39.8036 144.641 39.7759C144.912 39.7451 145.109 39.6944 145.232 39.6236C145.358 39.5528 145.421 39.4297 145.421 39.2543V39.2173C145.421 38.7618 145.296 38.4079 145.047 38.1555C144.801 37.9032 144.427 37.777 143.925 37.777C143.405 37.777 142.997 37.8909 142.702 38.1186C142.406 38.3464 142.199 38.5895 142.079 38.848L141.045 38.4787C141.229 38.0478 141.475 37.7124 141.783 37.4723C142.094 37.2292 142.433 37.0599 142.799 36.9645C143.168 36.866 143.531 36.8168 143.888 36.8168C144.116 36.8168 144.378 36.8445 144.673 36.8999C144.972 36.9522 145.259 37.0614 145.536 37.2276C145.816 37.3938 146.049 37.6446 146.233 37.9801C146.418 38.3156 146.51 38.7649 146.51 39.3281V44H145.421V43.0398H145.366C145.292 43.1937 145.169 43.3583 144.996 43.5337C144.824 43.7092 144.595 43.8584 144.308 43.9815C144.022 44.1046 143.673 44.1662 143.26 44.1662ZM143.427 43.1875C143.858 43.1875 144.221 43.1029 144.516 42.9336C144.815 42.7643 145.039 42.5458 145.19 42.2781C145.344 42.0103 145.421 41.7287 145.421 41.4332V40.4361C145.375 40.4915 145.273 40.5423 145.116 40.5884C144.962 40.6315 144.784 40.67 144.581 40.7038C144.381 40.7346 144.185 40.7623 143.994 40.7869C143.807 40.8085 143.654 40.8269 143.537 40.8423C143.254 40.8793 142.99 40.9393 142.743 41.0224C142.5 41.1024 142.303 41.224 142.153 41.3871C142.005 41.5471 141.931 41.7656 141.931 42.0426C141.931 42.4212 142.071 42.7074 142.351 42.9013C142.634 43.0921 142.993 43.1875 143.427 43.1875ZM153.183 36.9091V37.8324H149.508V36.9091H153.183ZM150.579 35.2102H151.669V41.9688C151.669 42.2765 151.713 42.5073 151.802 42.6612C151.895 42.812 152.012 42.9136 152.153 42.9659C152.298 43.0152 152.45 43.0398 152.61 43.0398C152.73 43.0398 152.829 43.0336 152.906 43.0213C152.983 43.0059 153.044 42.9936 153.09 42.9844L153.312 43.9631C153.238 43.9908 153.135 44.0185 153.003 44.0462C152.87 44.0769 152.703 44.0923 152.5 44.0923C152.192 44.0923 151.89 44.0262 151.595 43.8938C151.302 43.7615 151.059 43.5599 150.865 43.2891C150.675 43.0182 150.579 42.6766 150.579 42.2642V35.2102ZM156.422 44V36.9091H157.511V44H156.422ZM156.976 35.7273C156.763 35.7273 156.58 35.6549 156.426 35.5103C156.275 35.3656 156.2 35.1918 156.2 34.9886C156.2 34.7855 156.275 34.6116 156.426 34.467C156.58 34.3223 156.763 34.25 156.976 34.25C157.188 34.25 157.37 34.3223 157.52 34.467C157.674 34.6116 157.751 34.7855 157.751 34.9886C157.751 35.1918 157.674 35.3656 157.52 35.5103C157.37 35.6549 157.188 35.7273 156.976 35.7273ZM166.905 36.9091L164.283 44H163.175L160.553 36.9091H161.734L163.692 42.5597H163.766L165.723 36.9091H166.905ZM172.57 44.1477C171.93 44.1477 171.368 43.9954 170.885 43.6907C170.405 43.386 170.029 42.9598 169.758 42.4119C169.491 41.8641 169.357 41.224 169.357 40.4915C169.357 39.7528 169.491 39.1081 169.758 38.5572C170.029 38.0063 170.405 37.5785 170.885 37.2738C171.368 36.9691 171.93 36.8168 172.57 36.8168C173.21 36.8168 173.77 36.9691 174.25 37.2738C174.733 37.5785 175.109 38.0063 175.377 38.5572C175.647 39.1081 175.783 39.7528 175.783 40.4915C175.783 41.224 175.647 41.8641 175.377 42.4119C175.109 42.9598 174.733 43.386 174.25 43.6907C173.77 43.9954 173.21 44.1477 172.57 44.1477ZM172.57 43.169C173.056 43.169 173.456 43.0444 173.77 42.7951C174.084 42.5458 174.316 42.218 174.467 41.8118C174.618 41.4055 174.693 40.9654 174.693 40.4915C174.693 40.0175 174.618 39.5759 174.467 39.1665C174.316 38.7572 174.084 38.4264 173.77 38.174C173.456 37.9216 173.056 37.7955 172.57 37.7955C172.083 37.7955 171.683 37.9216 171.369 38.174C171.056 38.4264 170.823 38.7572 170.672 39.1665C170.522 39.5759 170.446 40.0175 170.446 40.4915C170.446 40.9654 170.522 41.4055 170.672 41.8118C170.823 42.218 171.056 42.5458 171.369 42.7951C171.683 43.0444 172.083 43.169 172.57 43.169Z" fill="black"/>
</svg>
