<svg width="262" height="62" viewBox="0 0 262 62" fill="none" xmlns="http://www.w3.org/2000/svg">
<path d="M25.1785 22.3569C24.5454 22.3569 23.9184 22.4816 23.3335 22.7239C22.7485 22.9662 22.217 23.3214 21.7693 23.7691C21.3216 24.2168 20.9664 24.7483 20.7241 25.3333C20.4818 25.9182 20.3571 26.5452 20.3571 27.1784C20.3571 27.8115 20.4818 28.4385 20.7241 29.0234C20.9664 29.6084 21.3216 30.1399 21.7693 30.5876C22.217 31.0353 22.7485 31.3905 23.3335 31.6328C23.9184 31.8751 24.5454 31.9998 25.1785 31.9998C26.4573 31.9998 27.6836 31.4918 28.5878 30.5876C29.492 29.6834 30 28.4571 30 27.1784C30 25.8996 29.492 24.6733 28.5878 23.7691C27.6836 22.8649 26.4573 22.3569 25.1785 22.3569ZM21.9643 27.1784C21.9643 26.7563 22.0474 26.3383 22.2089 25.9483C22.3705 25.5583 22.6072 25.204 22.9057 24.9055C23.2042 24.607 23.5585 24.3703 23.9485 24.2087C24.3385 24.0472 24.7564 23.9641 25.1785 23.9641C25.6006 23.9641 26.0186 24.0472 26.4086 24.2087C26.7986 24.3703 27.1529 24.607 27.4514 24.9055C27.7499 25.204 27.9866 25.5583 28.1481 25.9483C28.3097 26.3383 28.3928 26.7563 28.3928 27.1784C28.3928 28.0308 28.0542 28.8484 27.4514 29.4512C26.8486 30.054 26.031 30.3926 25.1785 30.3926C24.3261 30.3926 23.5085 30.054 22.9057 29.4512C22.3029 28.8484 21.9643 28.0308 21.9643 27.1784ZM36.4285 24.4998C35.434 24.4998 34.4801 24.8949 33.7769 25.5981C33.0736 26.3014 32.6785 27.2552 32.6785 28.2498C32.6785 29.2444 33.0736 30.1982 33.7769 30.9014C34.4801 31.6047 35.434 31.9998 36.4285 31.9998C37.4231 31.9998 38.3769 31.6047 39.0802 30.9014C39.7834 30.1982 40.1785 29.2444 40.1785 28.2498C40.1785 27.2552 39.7834 26.3014 39.0802 25.5981C38.3769 24.8949 37.4231 24.4998 36.4285 24.4998ZM34.2857 28.2498C34.2857 27.6815 34.5114 27.1364 34.9133 26.7346C35.3152 26.3327 35.8602 26.1069 36.4285 26.1069C36.9969 26.1069 37.5419 26.3327 37.9438 26.7346C38.3456 27.1364 38.5714 27.6815 38.5714 28.2498C38.5714 28.8181 38.3456 29.3632 37.9438 29.765C37.5419 30.1669 36.9969 30.3926 36.4285 30.3926C35.8602 30.3926 35.3152 30.1669 34.9133 29.765C34.5114 29.3632 34.2857 28.8181 34.2857 28.2498ZM17.1428 36.5534C17.1428 35.914 17.3968 35.3008 17.8489 34.8487C18.301 34.3966 18.9142 34.1426 19.5535 34.1426H30.8035C31.4429 34.1426 32.0561 34.3966 32.5082 34.8487C32.9603 35.3008 33.2143 35.914 33.2143 36.5534V37.1223C33.2129 37.209 33.2068 37.2955 33.196 37.3816C33.1719 37.6026 33.1325 37.8217 33.0782 38.0373C32.901 38.7409 32.5852 39.402 32.1493 39.9819C31.0628 41.4316 28.9907 42.7141 25.1785 42.7141C21.3664 42.7141 19.2943 41.4316 18.2078 39.9819C17.7722 39.4019 17.4568 38.7408 17.28 38.0373C17.21 37.7572 17.1652 37.4714 17.146 37.1834C17.1447 37.163 17.1436 37.1427 17.1428 37.1223V36.5534ZM18.75 37.0837V37.103L18.7596 37.2101C18.7703 37.3109 18.7918 37.4619 18.8389 37.6473C18.9638 38.1429 19.186 38.6087 19.4925 39.0176C20.2146 39.9787 21.7585 41.1069 25.1785 41.1069C28.5985 41.1069 30.1425 39.9787 30.8635 39.0176C31.2385 38.5184 31.425 38.0191 31.5171 37.6473C31.5621 37.4687 31.5919 37.2866 31.606 37.103L31.6071 37.0837V36.5534C31.6071 36.3402 31.5224 36.1358 31.3717 35.9852C31.221 35.8345 31.0167 35.7498 30.8035 35.7498H19.5535C19.3404 35.7498 19.136 35.8345 18.9853 35.9852C18.8346 36.1358 18.75 36.3402 18.75 36.5534V37.0837ZM33.3214 40.1641C34.1496 40.418 35.1717 40.5712 36.4264 40.5712C39.3942 40.5712 41.0528 39.7184 41.9539 38.6898C42.3142 38.2828 42.5811 37.8019 42.736 37.2809C42.7972 37.0705 42.8364 36.8543 42.8528 36.6359L42.855 36.5855V36.5534C42.855 35.914 42.601 35.3008 42.1489 34.8487C41.6968 34.3966 41.0836 34.1426 40.4443 34.1426H33.315C33.7371 34.583 34.0457 35.1348 34.1914 35.7498H40.4453C40.6566 35.7498 40.8594 35.833 41.0098 35.9814C41.1602 36.1297 41.2461 36.3314 41.2489 36.5426C41.2394 36.6399 41.2207 36.736 41.1932 36.8298C41.1035 37.1266 40.9499 37.4002 40.7432 37.6312C40.2385 38.2098 39.0857 38.9641 36.4264 38.9641C35.4182 38.9641 34.6264 38.8559 34.0039 38.6887C33.8388 39.207 33.6095 39.7027 33.3214 40.1641Z" fill="#353535"/>
<path d="M56.9332 28.1293C56.3916 28.1293 55.9038 28.0215 55.4698 27.8061C55.0359 27.5907 54.6881 27.2952 54.4265 26.9197C54.1649 26.5443 54.0218 26.1165 53.9972 25.6364H55.1051C55.1482 26.0642 55.3421 26.4181 55.6868 26.6982C56.0346 26.9751 56.45 27.1136 56.9332 27.1136C57.321 27.1136 57.6657 27.0228 57.9673 26.8413C58.272 26.6597 58.5105 26.4104 58.6829 26.0934C58.8583 25.7733 58.946 25.4117 58.946 25.0085C58.946 24.5961 58.8552 24.2283 58.6737 23.9052C58.4951 23.579 58.2489 23.322 57.935 23.1342C57.6211 22.9465 57.2625 22.8511 56.8594 22.848C56.5701 22.8449 56.2731 22.8896 55.9684 22.9819C55.6637 23.0711 55.4129 23.1866 55.2159 23.3281L54.1449 23.1989L54.7173 18.5455H59.6293V19.5611H55.6776L55.3452 22.3494H55.4006C55.5945 22.1955 55.8376 22.0678 56.13 21.9663C56.4223 21.8647 56.727 21.8139 57.044 21.8139C57.6226 21.8139 58.1381 21.9524 58.5906 22.2294C59.046 22.5033 59.4031 22.8788 59.6616 23.3558C59.9232 23.8329 60.054 24.3776 60.054 24.9901C60.054 25.5933 59.9186 26.1319 59.6477 26.6058C59.38 27.0767 59.0107 27.4491 58.5398 27.723C58.0689 27.9938 57.5334 28.1293 56.9332 28.1293ZM66.5717 28.1293C65.8761 28.1293 65.2837 27.94 64.7943 27.5614C64.305 27.1798 63.9311 26.6274 63.6725 25.9041C63.414 25.1778 63.2847 24.3007 63.2847 23.2727C63.2847 22.2509 63.414 21.3784 63.6725 20.6552C63.9341 19.9289 64.3096 19.3749 64.799 18.9933C65.2914 18.6085 65.8823 18.4162 66.5717 18.4162C67.2611 18.4162 67.8504 18.6085 68.3398 18.9933C68.8322 19.3749 69.2077 19.9289 69.4662 20.6552C69.7278 21.3784 69.8586 22.2509 69.8586 23.2727C69.8586 24.3007 69.7294 25.1778 69.4708 25.9041C69.2123 26.6274 68.8384 27.1798 68.349 27.5614C67.8597 27.94 67.2672 28.1293 66.5717 28.1293ZM66.5717 27.1136C67.2611 27.1136 67.7966 26.7812 68.1782 26.1165C68.5598 25.4517 68.7507 24.5038 68.7507 23.2727C68.7507 22.4541 68.6629 21.757 68.4875 21.1815C68.3152 20.6059 68.0659 20.1674 67.7396 19.8658C67.4165 19.5642 67.0272 19.4134 66.5717 19.4134C65.8884 19.4134 65.3545 19.7504 64.9698 20.4244C64.5851 21.0953 64.3927 22.0447 64.3927 23.2727C64.3927 24.0914 64.4789 24.7869 64.6512 25.3594C64.8236 25.9318 65.0713 26.3673 65.3945 26.6658C65.7207 26.9644 66.1131 27.1136 66.5717 27.1136ZM76.2967 28.1293C75.6011 28.1293 75.0087 27.94 74.5193 27.5614C74.03 27.1798 73.6561 26.6274 73.3975 25.9041C73.139 25.1778 73.0097 24.3007 73.0097 23.2727C73.0097 22.2509 73.139 21.3784 73.3975 20.6552C73.6591 19.9289 74.0346 19.3749 74.524 18.9933C75.0164 18.6085 75.6073 18.4162 76.2967 18.4162C76.9861 18.4162 77.5754 18.6085 78.0648 18.9933C78.5572 19.3749 78.9327 19.9289 79.1912 20.6552C79.4528 21.3784 79.5836 22.2509 79.5836 23.2727C79.5836 24.3007 79.4544 25.1778 79.1958 25.9041C78.9373 26.6274 78.5634 27.1798 78.074 27.5614C77.5847 27.94 76.9922 28.1293 76.2967 28.1293ZM76.2967 27.1136C76.9861 27.1136 77.5216 26.7812 77.9032 26.1165C78.2848 25.4517 78.4757 24.5038 78.4757 23.2727C78.4757 22.4541 78.3879 21.757 78.2125 21.1815C78.0402 20.6059 77.7909 20.1674 77.4646 19.8658C77.1415 19.5642 76.7522 19.4134 76.2967 19.4134C75.6134 19.4134 75.0795 19.7504 74.6948 20.4244C74.3101 21.0953 74.1177 22.0447 74.1177 23.2727C74.1177 24.0914 74.2039 24.7869 74.3762 25.3594C74.5486 25.9318 74.7963 26.3673 75.1195 26.6658C75.4457 26.9644 75.8381 27.1136 76.2967 27.1136ZM86.0217 28.1293C85.3261 28.1293 84.7337 27.94 84.2443 27.5614C83.755 27.1798 83.3811 26.6274 83.1225 25.9041C82.864 25.1778 82.7347 24.3007 82.7347 23.2727C82.7347 22.2509 82.864 21.3784 83.1225 20.6552C83.3841 19.9289 83.7596 19.3749 84.249 18.9933C84.7414 18.6085 85.3323 18.4162 86.0217 18.4162C86.7111 18.4162 87.3004 18.6085 87.7898 18.9933C88.2822 19.3749 88.6577 19.9289 88.9162 20.6552C89.1778 21.3784 89.3086 22.2509 89.3086 23.2727C89.3086 24.3007 89.1793 25.1778 88.9208 25.9041C88.6623 26.6274 88.2884 27.1798 87.799 27.5614C87.3097 27.94 86.7172 28.1293 86.0217 28.1293ZM86.0217 27.1136C86.7111 27.1136 87.2466 26.7812 87.6282 26.1165C88.0098 25.4517 88.2007 24.5038 88.2007 23.2727C88.2007 22.4541 88.1129 21.757 87.9375 21.1815C87.7652 20.6059 87.5159 20.1674 87.1896 19.8658C86.8665 19.5642 86.4772 19.4134 86.0217 19.4134C85.3384 19.4134 84.8045 19.7504 84.4198 20.4244C84.0351 21.0953 83.8427 22.0447 83.8427 23.2727C83.8427 24.0914 83.9289 24.7869 84.1012 25.3594C84.2736 25.9318 84.5213 26.3673 84.8445 26.6658C85.1707 26.9644 85.5631 27.1136 86.0217 27.1136ZM93.1453 28.0739C92.9176 28.0739 92.7221 27.9923 92.559 27.8292C92.3959 27.6661 92.3143 27.4706 92.3143 27.2429C92.3143 27.0152 92.3959 26.8197 92.559 26.6566C92.7221 26.4935 92.9176 26.4119 93.1453 26.4119C93.373 26.4119 93.5685 26.4935 93.7316 26.6566C93.8947 26.8197 93.9763 27.0152 93.9763 27.2429C93.9763 27.3937 93.9378 27.5322 93.8609 27.6584C93.787 27.7846 93.687 27.8861 93.5608 27.9631C93.4377 28.0369 93.2992 28.0739 93.1453 28.0739ZM102.935 28V18.5455H108.641V19.5611H104.08V22.7557H108.346V23.7713H104.08V26.9844H108.715V28H102.935ZM117.18 22.4972L116.201 22.7741C116.14 22.611 116.049 22.4525 115.929 22.2987C115.812 22.1417 115.652 22.0124 115.449 21.9109C115.246 21.8093 114.985 21.7585 114.668 21.7585C114.235 21.7585 113.873 21.8585 113.584 22.0586C113.297 22.2556 113.154 22.5064 113.154 22.8111C113.154 23.0819 113.253 23.2958 113.45 23.4528C113.647 23.6097 113.954 23.7405 114.373 23.8452L115.426 24.1037C116.06 24.2576 116.532 24.493 116.843 24.81C117.154 25.1239 117.309 25.5286 117.309 26.0241C117.309 26.4304 117.192 26.7936 116.958 27.1136C116.727 27.4337 116.404 27.6861 115.989 27.8707C115.573 28.0554 115.09 28.1477 114.539 28.1477C113.816 28.1477 113.217 27.9908 112.743 27.6768C112.269 27.3629 111.969 26.9044 111.843 26.3011L112.877 26.0426C112.976 26.4242 113.162 26.7105 113.436 26.9013C113.713 27.0921 114.074 27.1875 114.521 27.1875C115.029 27.1875 115.432 27.0798 115.73 26.8643C116.032 26.6458 116.183 26.3842 116.183 26.0795C116.183 25.8333 116.097 25.6271 115.924 25.4609C115.752 25.2917 115.487 25.1655 115.13 25.0824L113.948 24.8054C113.299 24.6515 112.822 24.413 112.517 24.0898C112.216 23.7636 112.065 23.3558 112.065 22.8665C112.065 22.4664 112.177 22.1125 112.402 21.8047C112.63 21.4969 112.939 21.2553 113.33 21.0799C113.724 20.9045 114.17 20.8168 114.668 20.8168C115.37 20.8168 115.921 20.9706 116.321 21.2784C116.724 21.5862 117.011 21.9924 117.18 22.4972ZM123.43 28.1477C122.765 28.1477 122.193 27.9908 121.712 27.6768C121.232 27.3629 120.863 26.9305 120.605 26.3796C120.346 25.8287 120.217 25.1993 120.217 24.4915C120.217 23.7713 120.349 23.1358 120.614 22.5849C120.882 22.0309 121.254 21.5985 121.731 21.2876C122.211 20.9737 122.771 20.8168 123.411 20.8168C123.91 20.8168 124.359 20.9091 124.759 21.0938C125.159 21.2784 125.487 21.5369 125.743 21.8693C125.998 22.2017 126.157 22.5895 126.218 23.0327H125.129C125.046 22.7095 124.861 22.4233 124.575 22.174C124.292 21.9216 123.91 21.7955 123.43 21.7955C123.005 21.7955 122.633 21.9062 122.313 22.1278C121.996 22.3464 121.748 22.6557 121.569 23.0558C121.394 23.4528 121.306 23.919 121.306 24.4545C121.306 25.0024 121.392 25.4794 121.565 25.8857C121.74 26.2919 121.986 26.6074 122.303 26.832C122.623 27.0567 122.999 27.169 123.43 27.169C123.713 27.169 123.97 27.1198 124.201 27.0213C124.432 26.9228 124.627 26.7812 124.787 26.5966C124.947 26.4119 125.061 26.1903 125.129 25.9318H126.218C126.157 26.3504 126.004 26.7274 125.761 27.0629C125.521 27.3952 125.203 27.6599 124.806 27.8569C124.412 28.0508 123.953 28.1477 123.43 28.1477ZM133.88 25.1009V20.9091H134.969V28H133.88V26.7997H133.806C133.64 27.1598 133.381 27.466 133.03 27.7184C132.679 27.9677 132.236 28.0923 131.701 28.0923C131.257 28.0923 130.863 27.9954 130.519 27.8015C130.174 27.6045 129.903 27.3091 129.706 26.9151C129.509 26.5181 129.411 26.018 129.411 25.4148V20.9091H130.5V25.3409C130.5 25.858 130.645 26.2704 130.934 26.5781C131.227 26.8859 131.599 27.0398 132.051 27.0398C132.322 27.0398 132.598 26.9705 132.878 26.832C133.161 26.6935 133.398 26.4812 133.589 26.195C133.783 25.9087 133.88 25.544 133.88 25.1009ZM141.538 28.1477C140.854 28.1477 140.265 27.9969 139.769 27.6953C139.277 27.3906 138.897 26.9659 138.629 26.4212C138.364 25.8733 138.232 25.2363 138.232 24.5099C138.232 23.7836 138.364 23.1435 138.629 22.5895C138.897 22.0324 139.269 21.5985 139.746 21.2876C140.226 20.9737 140.787 20.8168 141.427 20.8168C141.796 20.8168 142.161 20.8783 142.521 21.0014C142.881 21.1245 143.209 21.3246 143.504 21.6016C143.8 21.8755 144.035 22.2386 144.21 22.6911C144.386 23.1435 144.474 23.7005 144.474 24.3622V24.8239H139.008V23.8821H143.366C143.366 23.482 143.286 23.125 143.126 22.8111C142.969 22.4972 142.744 22.2494 142.452 22.0678C142.162 21.8862 141.821 21.7955 141.427 21.7955C140.993 21.7955 140.617 21.9032 140.3 22.1186C139.986 22.331 139.745 22.608 139.576 22.9496C139.406 23.2912 139.322 23.6574 139.322 24.0483V24.6761C139.322 25.2116 139.414 25.6656 139.599 26.038C139.786 26.4073 140.046 26.6889 140.379 26.8828C140.711 27.0736 141.097 27.169 141.538 27.169C141.824 27.169 142.082 27.129 142.313 27.049C142.547 26.9659 142.749 26.8428 142.918 26.6797C143.087 26.5135 143.218 26.3073 143.31 26.0611L144.363 26.3565C144.252 26.7135 144.066 27.0275 143.804 27.2983C143.543 27.5661 143.219 27.7753 142.835 27.9261C142.45 28.0739 142.018 28.1477 141.538 28.1477ZM148.82 18.5455V28H147.731V18.5455H148.82ZM154.503 28.1662C154.053 28.1662 153.645 28.0816 153.279 27.9123C152.913 27.7399 152.622 27.4922 152.407 27.169C152.191 26.8428 152.084 26.4489 152.084 25.9872C152.084 25.581 152.164 25.2517 152.324 24.9993C152.484 24.7438 152.698 24.5438 152.965 24.3991C153.233 24.2545 153.528 24.1468 153.852 24.076C154.178 24.0021 154.506 23.9437 154.835 23.9006C155.266 23.8452 155.615 23.8036 155.883 23.7759C156.154 23.7451 156.351 23.6944 156.474 23.6236C156.6 23.5528 156.663 23.4297 156.663 23.2543V23.2173C156.663 22.7618 156.538 22.4079 156.289 22.1555C156.043 21.9032 155.669 21.777 155.167 21.777C154.647 21.777 154.239 21.8909 153.944 22.1186C153.649 22.3464 153.441 22.5895 153.321 22.848L152.287 22.4787C152.471 22.0478 152.718 21.7124 153.025 21.4723C153.336 21.2292 153.675 21.0599 154.041 20.9645C154.41 20.866 154.773 20.8168 155.13 20.8168C155.358 20.8168 155.62 20.8445 155.915 20.8999C156.214 20.9522 156.501 21.0614 156.778 21.2276C157.059 21.3938 157.291 21.6446 157.476 21.9801C157.66 22.3156 157.753 22.7649 157.753 23.3281V28H156.663V27.0398H156.608C156.534 27.1937 156.411 27.3583 156.238 27.5337C156.066 27.7092 155.837 27.8584 155.55 27.9815C155.264 28.1046 154.915 28.1662 154.503 28.1662ZM154.669 27.1875C155.1 27.1875 155.463 27.1029 155.758 26.9336C156.057 26.7643 156.281 26.5458 156.432 26.2781C156.586 26.0103 156.663 25.7287 156.663 25.4332V24.4361C156.617 24.4915 156.515 24.5423 156.358 24.5884C156.204 24.6315 156.026 24.67 155.823 24.7038C155.623 24.7346 155.427 24.7623 155.237 24.7869C155.049 24.8085 154.896 24.8269 154.78 24.8423C154.496 24.8793 154.232 24.9393 153.986 25.0224C153.742 25.1024 153.545 25.224 153.395 25.3871C153.247 25.5471 153.173 25.7656 153.173 26.0426C153.173 26.4212 153.313 26.7074 153.593 26.9013C153.876 27.0921 154.235 27.1875 154.669 27.1875ZM61.7528 37.5H60.608C60.5402 37.1707 60.4218 36.8814 60.2525 36.6321C60.0863 36.3828 59.8832 36.1735 59.6431 36.0043C59.4061 35.8319 59.143 35.7027 58.8537 35.6165C58.5644 35.5303 58.2628 35.4872 57.9489 35.4872C57.3764 35.4872 56.8578 35.6319 56.3931 35.9212C55.9315 36.2105 55.5637 36.6367 55.2898 37.1999C55.0189 37.7631 54.8835 38.4541 54.8835 39.2727C54.8835 40.0914 55.0189 40.7823 55.2898 41.3455C55.5637 41.9087 55.9315 42.335 56.3931 42.6243C56.8578 42.9136 57.3764 43.0582 57.9489 43.0582C58.2628 43.0582 58.5644 43.0152 58.8537 42.929C59.143 42.8428 59.4061 42.7151 59.6431 42.5458C59.8832 42.3735 60.0863 42.1626 60.2525 41.9134C60.4218 41.661 60.5402 41.3717 60.608 41.0455H61.7528C61.6667 41.5286 61.5097 41.9611 61.282 42.3427C61.0542 42.7243 60.7711 43.049 60.4325 43.3168C60.094 43.5814 59.7139 43.783 59.2923 43.9215C58.8737 44.06 58.4259 44.1293 57.9489 44.1293C57.1425 44.1293 56.4254 43.9323 55.7976 43.5384C55.1697 43.1444 54.6758 42.5843 54.3157 41.858C53.9556 41.1316 53.7756 40.2699 53.7756 39.2727C53.7756 38.2756 53.9556 37.4138 54.3157 36.6875C54.6758 35.9612 55.1697 35.401 55.7976 35.0071C56.4254 34.6132 57.1425 34.4162 57.9489 34.4162C58.4259 34.4162 58.8737 34.4854 59.2923 34.6239C59.7139 34.7624 60.094 34.9656 60.4325 35.2333C60.7711 35.498 61.0542 35.8211 61.282 36.2028C61.5097 36.5813 61.6667 37.0137 61.7528 37.5ZM67.9358 44.1477C67.2957 44.1477 66.734 43.9954 66.2508 43.6907C65.7707 43.386 65.3952 42.9598 65.1244 42.4119C64.8567 41.8641 64.7228 41.224 64.7228 40.4915C64.7228 39.7528 64.8567 39.1081 65.1244 38.5572C65.3952 38.0063 65.7707 37.5785 66.2508 37.2738C66.734 36.9691 67.2957 36.8168 67.9358 36.8168C68.576 36.8168 69.1361 36.9691 69.6162 37.2738C70.0994 37.5785 70.4749 38.0063 70.7427 38.5572C71.0135 39.1081 71.1489 39.7528 71.1489 40.4915C71.1489 41.224 71.0135 41.8641 70.7427 42.4119C70.4749 42.9598 70.0994 43.386 69.6162 43.6907C69.1361 43.9954 68.576 44.1477 67.9358 44.1477ZM67.9358 43.169C68.4221 43.169 68.8222 43.0444 69.1361 42.7951C69.4501 42.5458 69.6824 42.218 69.8332 41.8118C69.984 41.4055 70.0594 40.9654 70.0594 40.4915C70.0594 40.0175 69.984 39.5759 69.8332 39.1665C69.6824 38.7572 69.4501 38.4264 69.1361 38.174C68.8222 37.9216 68.4221 37.7955 67.9358 37.7955C67.4496 37.7955 67.0495 37.9216 66.7356 38.174C66.4216 38.4264 66.1893 38.7572 66.0385 39.1665C65.8877 39.5759 65.8123 40.0175 65.8123 40.4915C65.8123 40.9654 65.8877 41.4055 66.0385 41.8118C66.1893 42.218 66.4216 42.5458 66.7356 42.7951C67.0495 43.0444 67.4496 43.169 67.9358 43.169ZM74.412 44V36.9091H75.4646V38.017H75.5569C75.7046 37.6385 75.9431 37.3446 76.2724 37.1353C76.6018 36.9229 76.9972 36.8168 77.4589 36.8168C77.9267 36.8168 78.316 36.9229 78.6268 37.1353C78.9408 37.3446 79.1854 37.6385 79.3609 38.017H79.4347C79.6163 37.6508 79.8887 37.36 80.2518 37.1445C80.615 36.926 81.0505 36.8168 81.5583 36.8168C82.1923 36.8168 82.7109 37.0153 83.1141 37.4123C83.5172 37.8062 83.7188 38.4202 83.7188 39.2543V44H82.6293V39.2543C82.6293 38.7311 82.4862 38.3571 82.2 38.1325C81.9138 37.9078 81.5768 37.7955 81.189 37.7955C80.6904 37.7955 80.3042 37.9463 80.0303 38.2479C79.7563 38.5464 79.6194 38.925 79.6194 39.3835V44H78.5114V39.1435C78.5114 38.7403 78.3806 38.4156 78.119 38.1694C77.8574 37.9201 77.5204 37.7955 77.108 37.7955C76.8249 37.7955 76.5602 37.8709 76.314 38.0217C76.0709 38.1725 75.8739 38.3817 75.7231 38.6495C75.5754 38.9142 75.5015 39.2204 75.5015 39.5682V44H74.412ZM91.7796 41.1009V36.9091H92.8691V44H91.7796V42.7997H91.7057C91.5395 43.1598 91.281 43.466 90.9301 43.7184C90.5793 43.9677 90.1361 44.0923 89.6006 44.0923C89.1574 44.0923 88.7635 43.9954 88.4188 43.8015C88.0741 43.6045 87.8033 43.3091 87.6063 42.9151C87.4093 42.5181 87.3108 42.018 87.3108 41.4148V36.9091H88.4003V41.3409C88.4003 41.858 88.545 42.2704 88.8343 42.5781C89.1266 42.8859 89.499 43.0398 89.9515 43.0398C90.2223 43.0398 90.4977 42.9705 90.7778 42.832C91.0609 42.6935 91.2979 42.4812 91.4887 42.195C91.6826 41.9087 91.7796 41.544 91.7796 41.1009ZM97.554 39.7344V44H96.4645V36.9091H97.5171V38.017H97.6094C97.7756 37.657 98.028 37.3677 98.3665 37.1491C98.7051 36.9276 99.1421 36.8168 99.6776 36.8168C100.158 36.8168 100.578 36.9152 100.938 37.1122C101.298 37.3061 101.578 37.6016 101.778 37.9986C101.978 38.3925 102.078 38.8911 102.078 39.4943V44H100.989V39.5682C100.989 39.0111 100.844 38.5772 100.555 38.2663C100.265 37.9524 99.8684 37.7955 99.3637 37.7955C99.0159 37.7955 98.7051 37.8709 98.4312 38.0217C98.1603 38.1725 97.9464 38.3925 97.7895 38.6818C97.6325 38.9711 97.554 39.322 97.554 39.7344ZM105.669 44V36.9091H106.759V44H105.669ZM106.223 35.7273C106.011 35.7273 105.828 35.6549 105.674 35.5103C105.523 35.3656 105.447 35.1918 105.447 34.9886C105.447 34.7855 105.523 34.6116 105.674 34.467C105.828 34.3223 106.011 34.25 106.223 34.25C106.435 34.25 106.617 34.3223 106.768 34.467C106.922 34.6116 106.999 34.7855 106.999 34.9886C106.999 35.1918 106.922 35.3656 106.768 35.5103C106.617 35.6549 106.435 35.7273 106.223 35.7273ZM113.032 44.1477C112.441 44.1477 111.919 43.9985 111.467 43.6999C111.014 43.3983 110.66 42.9736 110.405 42.4258C110.149 41.8749 110.022 41.224 110.022 40.473C110.022 39.7282 110.149 39.0819 110.405 38.5341C110.66 37.9863 111.016 37.5631 111.471 37.2646C111.927 36.966 112.453 36.8168 113.05 36.8168C113.512 36.8168 113.876 36.8937 114.144 37.0476C114.415 37.1984 114.621 37.3707 114.763 37.5646C114.907 37.7554 115.02 37.9124 115.1 38.0355H115.192V34.5455H116.282V44H115.229V42.9105H115.1C115.02 43.0398 114.906 43.2029 114.758 43.3999C114.61 43.5937 114.4 43.7676 114.126 43.9215C113.852 44.0723 113.487 44.1477 113.032 44.1477ZM113.179 43.169C113.616 43.169 113.986 43.0552 114.287 42.8274C114.589 42.5966 114.818 42.2781 114.975 41.8718C115.132 41.4625 115.211 40.9901 115.211 40.4545C115.211 39.9252 115.134 39.462 114.98 39.065C114.826 38.6649 114.598 38.354 114.296 38.1325C113.995 37.9078 113.622 37.7955 113.179 37.7955C112.718 37.7955 112.333 37.9139 112.025 38.1509C111.72 38.3848 111.491 38.7034 111.337 39.1065C111.186 39.5066 111.111 39.956 111.111 40.4545C111.111 40.9593 111.188 41.4179 111.342 41.8303C111.499 42.2396 111.73 42.5658 112.034 42.8089C112.342 43.049 112.724 43.169 113.179 43.169ZM122.115 44.1662C121.666 44.1662 121.258 44.0816 120.891 43.9123C120.525 43.7399 120.234 43.4922 120.019 43.169C119.804 42.8428 119.696 42.4489 119.696 41.9872C119.696 41.581 119.776 41.2517 119.936 40.9993C120.096 40.7438 120.31 40.5438 120.578 40.3991C120.845 40.2545 121.141 40.1468 121.464 40.076C121.79 40.0021 122.118 39.9437 122.447 39.9006C122.878 39.8452 123.227 39.8036 123.495 39.7759C123.766 39.7451 123.963 39.6944 124.086 39.6236C124.212 39.5528 124.275 39.4297 124.275 39.2543V39.2173C124.275 38.7618 124.151 38.4079 123.901 38.1555C123.655 37.9032 123.281 37.777 122.78 37.777C122.26 37.777 121.852 37.8909 121.556 38.1186C121.261 38.3464 121.053 38.5895 120.933 38.848L119.899 38.4787C120.084 38.0478 120.33 37.7124 120.638 37.4723C120.948 37.2292 121.287 37.0599 121.653 36.9645C122.023 36.866 122.386 36.8168 122.743 36.8168C122.97 36.8168 123.232 36.8445 123.528 36.8999C123.826 36.9522 124.114 37.0614 124.391 37.2276C124.671 37.3938 124.903 37.6446 125.088 37.9801C125.273 38.3156 125.365 38.7649 125.365 39.3281V44H124.275V43.0398H124.22C124.146 43.1937 124.023 43.3583 123.851 43.5337C123.678 43.7092 123.449 43.8584 123.163 43.9815C122.877 44.1046 122.527 44.1662 122.115 44.1662ZM122.281 43.1875C122.712 43.1875 123.075 43.1029 123.371 42.9336C123.669 42.7643 123.894 42.5458 124.045 42.2781C124.198 42.0103 124.275 41.7287 124.275 41.4332V40.4361C124.229 40.4915 124.128 40.5423 123.971 40.5884C123.817 40.6315 123.638 40.67 123.435 40.7038C123.235 40.7346 123.04 40.7623 122.849 40.7869C122.661 40.8085 122.509 40.8269 122.392 40.8423C122.109 40.8793 121.844 40.9393 121.598 41.0224C121.355 41.1024 121.158 41.224 121.007 41.3871C120.859 41.5471 120.785 41.7656 120.785 42.0426C120.785 42.4212 120.925 42.7074 121.205 42.9013C121.489 43.0921 121.847 43.1875 122.281 43.1875ZM131.631 44.1477C131.04 44.1477 130.518 43.9985 130.066 43.6999C129.614 43.3983 129.26 42.9736 129.004 42.4258C128.749 41.8749 128.621 41.224 128.621 40.473C128.621 39.7282 128.749 39.0819 129.004 38.5341C129.26 37.9863 129.615 37.5631 130.071 37.2646C130.526 36.966 131.052 36.8168 131.649 36.8168C132.111 36.8168 132.476 36.8937 132.744 37.0476C133.014 37.1984 133.221 37.3707 133.362 37.5646C133.507 37.7554 133.619 37.9124 133.699 38.0355H133.791V34.5455H134.881V44H133.828V42.9105H133.699C133.619 43.0398 133.505 43.2029 133.358 43.3999C133.21 43.5937 132.999 43.7676 132.725 43.9215C132.451 44.0723 132.086 44.1477 131.631 44.1477ZM131.779 43.169C132.216 43.169 132.585 43.0552 132.887 42.8274C133.188 42.5966 133.418 42.2781 133.575 41.8718C133.731 41.4625 133.81 40.9901 133.81 40.4545C133.81 39.9252 133.733 39.462 133.579 39.065C133.425 38.6649 133.197 38.354 132.896 38.1325C132.594 37.9078 132.222 37.7955 131.779 37.7955C131.317 37.7955 130.932 37.9139 130.625 38.1509C130.32 38.3848 130.091 38.7034 129.937 39.1065C129.786 39.5066 129.711 39.956 129.711 40.4545C129.711 40.9593 129.787 41.4179 129.941 41.8303C130.098 42.2396 130.329 42.5658 130.634 42.8089C130.942 43.049 131.323 43.169 131.779 43.169ZM144.586 46.6591C144.401 46.6591 144.236 46.6437 144.092 46.6129C143.947 46.5852 143.847 46.5575 143.792 46.5298L144.069 45.5696C144.333 45.6373 144.567 45.6619 144.77 45.6435C144.973 45.625 145.153 45.5342 145.31 45.3711C145.47 45.2111 145.617 44.951 145.749 44.5909L145.952 44.0369L143.33 36.9091H144.512L146.469 42.5597H146.543L148.5 36.9091H149.682L146.672 45.0341C146.537 45.4003 146.369 45.7035 146.169 45.9435C145.969 46.1867 145.737 46.3667 145.472 46.4837C145.21 46.6006 144.915 46.6591 144.586 46.6591ZM158.124 44V34.5455H161.319C162.06 34.5455 162.667 34.6793 163.138 34.9471C163.612 35.2118 163.962 35.5703 164.19 36.0227C164.418 36.4751 164.532 36.9799 164.532 37.5369C164.532 38.094 164.418 38.6003 164.19 39.0558C163.966 39.5112 163.618 39.8744 163.147 40.1452C162.676 40.413 162.073 40.5469 161.337 40.5469H159.047V39.5312H161.3C161.808 39.5312 162.216 39.4435 162.524 39.2681C162.831 39.0927 163.055 38.8557 163.193 38.5572C163.335 38.2556 163.405 37.9155 163.405 37.5369C163.405 37.1584 163.335 36.8198 163.193 36.5213C163.055 36.2228 162.83 35.9889 162.519 35.8196C162.208 35.6473 161.796 35.5611 161.282 35.5611H159.269V44H158.124ZM170.725 44.1477C170.042 44.1477 169.453 43.9969 168.957 43.6953C168.465 43.3906 168.085 42.9659 167.817 42.4212C167.552 41.8733 167.42 41.2363 167.42 40.5099C167.42 39.7836 167.552 39.1435 167.817 38.5895C168.085 38.0324 168.457 37.5985 168.934 37.2876C169.414 36.9737 169.974 36.8168 170.614 36.8168C170.984 36.8168 171.348 36.8783 171.709 37.0014C172.069 37.1245 172.396 37.3246 172.692 37.6016C172.987 37.8755 173.223 38.2386 173.398 38.6911C173.574 39.1435 173.661 39.7005 173.661 40.3622V40.8239H168.195V39.8821H172.553C172.553 39.482 172.473 39.125 172.313 38.8111C172.156 38.4972 171.932 38.2494 171.639 38.0678C171.35 37.8862 171.008 37.7955 170.614 37.7955C170.181 37.7955 169.805 37.9032 169.488 38.1186C169.174 38.331 168.933 38.608 168.763 38.9496C168.594 39.2912 168.509 39.6574 168.509 40.0483V40.6761C168.509 41.2116 168.602 41.6656 168.786 42.038C168.974 42.4073 169.234 42.6889 169.567 42.8828C169.899 43.0736 170.285 43.169 170.725 43.169C171.011 43.169 171.27 43.129 171.501 43.049C171.735 42.9659 171.936 42.8428 172.106 42.6797C172.275 42.5135 172.406 42.3073 172.498 42.0611L173.551 42.3565C173.44 42.7135 173.254 43.0275 172.992 43.2983C172.73 43.5661 172.407 43.7753 172.022 43.9261C171.638 44.0739 171.205 44.1477 170.725 44.1477ZM176.919 44V36.9091H177.971V37.9801H178.045C178.174 37.6293 178.408 37.3446 178.747 37.1261C179.085 36.9076 179.467 36.7983 179.892 36.7983C179.972 36.7983 180.072 36.7998 180.192 36.8029C180.312 36.806 180.403 36.8106 180.464 36.8168V37.9247C180.427 37.9155 180.343 37.9016 180.21 37.8832C180.081 37.8616 179.944 37.8509 179.799 37.8509C179.455 37.8509 179.147 37.9232 178.876 38.0678C178.608 38.2094 178.396 38.4064 178.239 38.6587C178.085 38.908 178.008 39.1927 178.008 39.5128V44H176.919ZM186.884 36.9091V37.8324H183.209V36.9091H186.884ZM184.28 35.2102H185.369V41.9688C185.369 42.2765 185.414 42.5073 185.503 42.6612C185.596 42.812 185.713 42.9136 185.854 42.9659C185.999 43.0152 186.151 43.0398 186.311 43.0398C186.431 43.0398 186.53 43.0336 186.607 43.0213C186.684 43.0059 186.745 42.9936 186.791 42.9844L187.013 43.9631C186.939 43.9908 186.836 44.0185 186.704 44.0462C186.571 44.0769 186.404 44.0923 186.2 44.0923C185.893 44.0923 185.591 44.0262 185.296 43.8938C185.003 43.7615 184.76 43.5599 184.566 43.2891C184.375 43.0182 184.28 42.6766 184.28 42.2642V35.2102ZM193.019 44.1477C192.336 44.1477 191.747 43.9969 191.251 43.6953C190.759 43.3906 190.379 42.9659 190.111 42.4212C189.846 41.8733 189.714 41.2363 189.714 40.5099C189.714 39.7836 189.846 39.1435 190.111 38.5895C190.379 38.0324 190.751 37.5985 191.228 37.2876C191.708 36.9737 192.268 36.8168 192.909 36.8168C193.278 36.8168 193.643 36.8783 194.003 37.0014C194.363 37.1245 194.691 37.3246 194.986 37.6016C195.281 37.8755 195.517 38.2386 195.692 38.6911C195.868 39.1435 195.955 39.7005 195.955 40.3622V40.8239H190.49V39.8821H194.848C194.848 39.482 194.768 39.125 194.607 38.8111C194.451 38.4972 194.226 38.2494 193.933 38.0678C193.644 37.8862 193.303 37.7955 192.909 37.7955C192.475 37.7955 192.099 37.9032 191.782 38.1186C191.468 38.331 191.227 38.608 191.057 38.9496C190.888 39.2912 190.803 39.6574 190.803 40.0483V40.6761C190.803 41.2116 190.896 41.6656 191.08 42.038C191.268 42.4073 191.528 42.6889 191.861 42.8828C192.193 43.0736 192.579 43.169 193.019 43.169C193.306 43.169 193.564 43.129 193.795 43.049C194.029 42.9659 194.23 42.8428 194.4 42.6797C194.569 42.5135 194.7 42.3073 194.792 42.0611L195.845 42.3565C195.734 42.7135 195.548 43.0275 195.286 43.2983C195.024 43.5661 194.701 43.7753 194.317 43.9261C193.932 44.0739 193.5 44.1477 193.019 44.1477ZM200.302 39.7344V44H199.213V36.9091H200.265V38.017H200.358C200.524 37.657 200.776 37.3677 201.115 37.1491C201.453 36.9276 201.89 36.8168 202.426 36.8168C202.906 36.8168 203.326 36.9152 203.686 37.1122C204.046 37.3061 204.326 37.6016 204.526 37.9986C204.726 38.3925 204.826 38.8911 204.826 39.4943V44H203.737V39.5682C203.737 39.0111 203.592 38.5772 203.303 38.2663C203.014 37.9524 202.617 37.7955 202.112 37.7955C201.764 37.7955 201.453 37.8709 201.179 38.0217C200.909 38.1725 200.695 38.3925 200.538 38.6818C200.381 38.9711 200.302 39.322 200.302 39.7344ZM211.39 44.1477C210.707 44.1477 210.118 43.9969 209.622 43.6953C209.13 43.3906 208.75 42.9659 208.482 42.4212C208.217 41.8733 208.085 41.2363 208.085 40.5099C208.085 39.7836 208.217 39.1435 208.482 38.5895C208.75 38.0324 209.122 37.5985 209.599 37.2876C210.079 36.9737 210.639 36.8168 211.279 36.8168C211.649 36.8168 212.014 36.8783 212.374 37.0014C212.734 37.1245 213.061 37.3246 213.357 37.6016C213.652 37.8755 213.888 38.2386 214.063 38.6911C214.239 39.1435 214.326 39.7005 214.326 40.3622V40.8239H208.86V39.8821H213.218C213.218 39.482 213.138 39.125 212.978 38.8111C212.821 38.4972 212.597 38.2494 212.304 38.0678C212.015 37.8862 211.673 37.7955 211.279 37.7955C210.846 37.7955 210.47 37.9032 210.153 38.1186C209.839 38.331 209.598 38.608 209.428 38.9496C209.259 39.2912 209.174 39.6574 209.174 40.0483V40.6761C209.174 41.2116 209.267 41.6656 209.451 42.038C209.639 42.4073 209.899 42.6889 210.232 42.8828C210.564 43.0736 210.95 43.169 211.39 43.169C211.677 43.169 211.935 43.129 212.166 43.049C212.4 42.9659 212.601 42.8428 212.771 42.6797C212.94 42.5135 213.071 42.3073 213.163 42.0611L214.216 42.3565C214.105 42.7135 213.919 43.0275 213.657 43.2983C213.395 43.5661 213.072 43.7753 212.688 43.9261C212.303 44.0739 211.87 44.1477 211.39 44.1477ZM218.673 39.7344V44H217.584V36.9091H218.636V38.017H218.729C218.895 37.657 219.147 37.3677 219.486 37.1491C219.824 36.9276 220.261 36.8168 220.797 36.8168C221.277 36.8168 221.697 36.9152 222.057 37.1122C222.417 37.3061 222.697 37.6016 222.897 37.9986C223.097 38.3925 223.197 38.8911 223.197 39.4943V44H222.108V39.5682C222.108 39.0111 221.963 38.5772 221.674 38.2663C221.385 37.9524 220.988 37.7955 220.483 37.7955C220.135 37.7955 219.824 37.8709 219.55 38.0217C219.279 38.1725 219.066 38.3925 218.909 38.6818C218.752 38.9711 218.673 39.322 218.673 39.7344ZM229.669 44.1477C229.004 44.1477 228.432 43.9908 227.952 43.6768C227.471 43.3629 227.102 42.9305 226.844 42.3796C226.585 41.8287 226.456 41.1993 226.456 40.4915C226.456 39.7713 226.588 39.1358 226.853 38.5849C227.121 38.0309 227.493 37.5985 227.97 37.2876C228.45 36.9737 229.01 36.8168 229.65 36.8168C230.149 36.8168 230.598 36.9091 230.998 37.0938C231.398 37.2784 231.726 37.5369 231.982 37.8693C232.237 38.2017 232.396 38.5895 232.457 39.0327H231.368C231.285 38.7095 231.1 38.4233 230.814 38.174C230.531 37.9216 230.149 37.7955 229.669 37.7955C229.244 37.7955 228.872 37.9062 228.552 38.1278C228.235 38.3464 227.987 38.6557 227.808 39.0558C227.633 39.4528 227.545 39.919 227.545 40.4545C227.545 41.0024 227.631 41.4794 227.804 41.8857C227.979 42.2919 228.225 42.6074 228.542 42.832C228.863 43.0567 229.238 43.169 229.669 43.169C229.952 43.169 230.209 43.1198 230.44 43.0213C230.671 42.9228 230.866 42.7812 231.026 42.5966C231.186 42.4119 231.3 42.1903 231.368 41.9318H232.457C232.396 42.3504 232.243 42.7274 232 43.0629C231.76 43.3952 231.442 43.6599 231.045 43.8569C230.651 44.0508 230.192 44.1477 229.669 44.1477ZM235.65 44V36.9091H236.739V44H235.65ZM236.204 35.7273C235.992 35.7273 235.808 35.6549 235.655 35.5103C235.504 35.3656 235.428 35.1918 235.428 34.9886C235.428 34.7855 235.504 34.6116 235.655 34.467C235.808 34.3223 235.992 34.25 236.204 34.25C236.416 34.25 236.598 34.3223 236.749 34.467C236.903 34.6116 236.979 34.7855 236.979 34.9886C236.979 35.1918 236.903 35.3656 236.749 35.5103C236.598 35.6549 236.416 35.7273 236.204 35.7273ZM242.421 44.1662C241.972 44.1662 241.564 44.0816 241.198 43.9123C240.832 43.7399 240.541 43.4922 240.326 43.169C240.11 42.8428 240.002 42.4489 240.002 41.9872C240.002 41.581 240.082 41.2517 240.243 40.9993C240.403 40.7438 240.616 40.5438 240.884 40.3991C241.152 40.2545 241.447 40.1468 241.771 40.076C242.097 40.0021 242.425 39.9437 242.754 39.9006C243.185 39.8452 243.534 39.8036 243.802 39.7759C244.073 39.7451 244.27 39.6944 244.393 39.6236C244.519 39.5528 244.582 39.4297 244.582 39.2543V39.2173C244.582 38.7618 244.457 38.4079 244.208 38.1555C243.962 37.9032 243.588 37.777 243.086 37.777C242.566 37.777 242.158 37.8909 241.863 38.1186C241.567 38.3464 241.36 38.5895 241.24 38.848L240.206 38.4787C240.39 38.0478 240.636 37.7124 240.944 37.4723C241.255 37.2292 241.594 37.0599 241.96 36.9645C242.329 36.866 242.692 36.8168 243.049 36.8168C243.277 36.8168 243.539 36.8445 243.834 36.8999C244.133 36.9522 244.42 37.0614 244.697 37.2276C244.977 37.3938 245.21 37.6446 245.395 37.9801C245.579 38.3156 245.671 38.7649 245.671 39.3281V44H244.582V43.0398H244.527C244.453 43.1937 244.33 43.3583 244.157 43.5337C243.985 43.7092 243.756 43.8584 243.469 43.9815C243.183 44.1046 242.834 44.1662 242.421 44.1662ZM242.588 43.1875C243.019 43.1875 243.382 43.1029 243.677 42.9336C243.976 42.7643 244.2 42.5458 244.351 42.2781C244.505 42.0103 244.582 41.7287 244.582 41.4332V40.4361C244.536 40.4915 244.434 40.5423 244.277 40.5884C244.123 40.6315 243.945 40.67 243.742 40.7038C243.542 40.7346 243.346 40.7623 243.156 40.7869C242.968 40.8085 242.815 40.8269 242.698 40.8423C242.415 40.8793 242.151 40.9393 241.904 41.0224C241.661 41.1024 241.464 41.224 241.314 41.3871C241.166 41.5471 241.092 41.7656 241.092 42.0426C241.092 42.4212 241.232 42.7074 241.512 42.9013C241.795 43.0921 242.154 43.1875 242.588 43.1875Z" fill="black"/>
</svg>
