<svg width="183" height="78" viewBox="0 0 183 78" fill="none" xmlns="http://www.w3.org/2000/svg">
<path d="M30.3999 61.75C23.4537 60.2062 17.8999 53.6525 17.8999 46.75V39.25L30.3999 34.25L42.8999 39.25V46.75C42.8999 53.655 37.3462 60.2062 30.3999 61.75ZM20.3999 40.5V46.75C20.4713 49.6402 21.4879 52.4273 23.2939 54.6848C25.0999 56.9423 27.5959 58.5459 30.3999 59.25C33.2039 58.5459 35.6999 56.9423 37.5059 54.6848C39.312 52.4273 40.3285 49.6402 40.3999 46.75V40.5L30.3999 36.75L20.3999 40.5Z" fill="#353535"/>
<path d="M30.3999 46.75C32.1258 46.75 33.5249 45.3509 33.5249 43.625C33.5249 41.8991 32.1258 40.5 30.3999 40.5C28.674 40.5 27.2749 41.8991 27.2749 43.625C27.2749 45.3509 28.674 46.75 30.3999 46.75Z" fill="#353535"/>
<path d="M24.1499 51.75C24.766 52.8728 25.6694 53.8116 26.7676 54.4705C27.8658 55.1295 29.1193 55.4847 30.3999 55.5C31.6805 55.4847 32.934 55.1295 34.0322 54.4705C35.1304 53.8116 36.0338 52.8728 36.6499 51.75C36.6187 49.38 32.4724 48 30.3999 48C28.3162 48 24.1812 49.38 24.1499 51.75Z" fill="#353535"/>
<path d="M54.5448 28V18.5455H57.7394C58.4811 18.5455 59.0874 18.6793 59.5583 18.9471C60.0322 19.2118 60.3831 19.5703 60.6108 20.0227C60.8386 20.4751 60.9525 20.9799 60.9525 21.5369C60.9525 22.094 60.8386 22.6003 60.6108 23.0558C60.3862 23.5112 60.0384 23.8744 59.5675 24.1452C59.0966 24.413 58.4934 24.5469 57.7579 24.5469H55.4681V23.5312H57.7209C58.2287 23.5312 58.6365 23.4435 58.9443 23.2681C59.2521 23.0927 59.4752 22.8557 59.6137 22.5572C59.7553 22.2556 59.826 21.9155 59.826 21.5369C59.826 21.1584 59.7553 20.8198 59.6137 20.5213C59.4752 20.2228 59.2505 19.9889 58.9397 19.8196C58.6288 19.6473 58.2164 19.5611 57.7025 19.5611H55.6897V28H54.5448ZM67.1459 28.1477C66.4626 28.1477 65.8732 27.9969 65.3777 27.6953C64.8853 27.3906 64.5052 26.9659 64.2375 26.4212C63.9728 25.8733 63.8405 25.2363 63.8405 24.5099C63.8405 23.7836 63.9728 23.1435 64.2375 22.5895C64.5052 22.0324 64.8776 21.5985 65.3547 21.2876C65.8348 20.9737 66.3949 20.8168 67.0351 20.8168C67.4044 20.8168 67.7691 20.8783 68.1292 21.0014C68.4892 21.1245 68.817 21.3246 69.1125 21.6016C69.4079 21.8755 69.6434 22.2386 69.8188 22.6911C69.9942 23.1435 70.0819 23.7005 70.0819 24.3622V24.8239H64.616V23.8821H68.974C68.974 23.482 68.894 23.125 68.7339 22.8111C68.577 22.4972 68.3523 22.2494 68.0599 22.0678C67.7706 21.8862 67.429 21.7955 67.0351 21.7955C66.6011 21.7955 66.2256 21.9032 65.9086 22.1186C65.5947 22.331 65.3531 22.608 65.1839 22.9496C65.0146 23.2912 64.9299 23.6574 64.9299 24.0483V24.6761C64.9299 25.2116 65.0223 25.6656 65.2069 26.038C65.3947 26.4073 65.6547 26.6889 65.9871 26.8828C66.3195 27.0736 66.7058 27.169 67.1459 27.169C67.4321 27.169 67.6906 27.129 67.9214 27.049C68.1553 26.9659 68.3569 26.8428 68.5262 26.6797C68.6955 26.5135 68.8263 26.3073 68.9186 26.0611L69.9711 26.3565C69.8603 26.7135 69.6741 27.0275 69.4125 27.2983C69.1509 27.5661 68.8278 27.7753 68.4431 27.9261C68.0584 28.0739 67.626 28.1477 67.1459 28.1477ZM73.3392 28V20.9091H74.3918V21.9801H74.4657C74.5949 21.6293 74.8288 21.3446 75.1674 21.1261C75.5059 20.9076 75.8875 20.7983 76.3123 20.7983C76.3923 20.7983 76.4923 20.7998 76.6123 20.8029C76.7324 20.806 76.8232 20.8106 76.8847 20.8168V21.9247C76.8478 21.9155 76.7631 21.9016 76.6308 21.8832C76.5015 21.8616 76.3646 21.8509 76.2199 21.8509C75.8752 21.8509 75.5675 21.9232 75.2966 22.0678C75.0289 22.2094 74.8165 22.4064 74.6596 22.6587C74.5057 22.908 74.4287 23.1927 74.4287 23.5128V28H73.3392ZM84.7989 22.4972L83.8202 22.7741C83.7586 22.611 83.6679 22.4525 83.5478 22.2987C83.4309 22.1417 83.2708 22.0124 83.0677 21.9109C82.8646 21.8093 82.6045 21.7585 82.2875 21.7585C81.8536 21.7585 81.492 21.8585 81.2027 22.0586C80.9164 22.2556 80.7733 22.5064 80.7733 22.8111C80.7733 23.0819 80.8718 23.2958 81.0688 23.4528C81.2657 23.6097 81.5735 23.7405 81.9921 23.8452L83.0446 24.1037C83.6786 24.2576 84.151 24.493 84.4619 24.81C84.7727 25.1239 84.9282 25.5286 84.9282 26.0241C84.9282 26.4304 84.8112 26.7936 84.5773 27.1136C84.3465 27.4337 84.0233 27.6861 83.6078 27.8707C83.1924 28.0554 82.7092 28.1477 82.1583 28.1477C81.435 28.1477 80.8364 27.9908 80.3625 27.6768C79.8885 27.3629 79.5884 26.9044 79.4622 26.3011L80.4963 26.0426C80.5948 26.4242 80.781 26.7105 81.0549 26.9013C81.3319 27.0921 81.6935 27.1875 82.1398 27.1875C82.6476 27.1875 83.0508 27.0798 83.3493 26.8643C83.6509 26.6458 83.8017 26.3842 83.8017 26.0795C83.8017 25.8333 83.7156 25.6271 83.5432 25.4609C83.3709 25.2917 83.1062 25.1655 82.7492 25.0824L81.5674 24.8054C80.918 24.6515 80.4409 24.413 80.1362 24.0898C79.8346 23.7636 79.6838 23.3558 79.6838 22.8665C79.6838 22.4664 79.7962 22.1125 80.0208 21.8047C80.2486 21.4969 80.5579 21.2553 80.9487 21.0799C81.3427 20.9045 81.7889 20.8168 82.2875 20.8168C82.9892 20.8168 83.5401 20.9706 83.9402 21.2784C84.3434 21.5862 84.6296 21.9924 84.7989 22.4972ZM91.0488 28.1477C90.4087 28.1477 89.847 27.9954 89.3638 27.6907C88.8837 27.386 88.5082 26.9598 88.2374 26.4119C87.9696 25.8641 87.8358 25.224 87.8358 24.4915C87.8358 23.7528 87.9696 23.1081 88.2374 22.5572C88.5082 22.0063 88.8837 21.5785 89.3638 21.2738C89.847 20.9691 90.4087 20.8168 91.0488 20.8168C91.689 20.8168 92.2491 20.9691 92.7292 21.2738C93.2124 21.5785 93.5879 22.0063 93.8557 22.5572C94.1265 23.1081 94.2619 23.7528 94.2619 24.4915C94.2619 25.224 94.1265 25.8641 93.8557 26.4119C93.5879 26.9598 93.2124 27.386 92.7292 27.6907C92.2491 27.9954 91.689 28.1477 91.0488 28.1477ZM91.0488 27.169C91.5351 27.169 91.9352 27.0444 92.2491 26.7951C92.563 26.5458 92.7954 26.218 92.9462 25.8118C93.097 25.4055 93.1724 24.9654 93.1724 24.4915C93.1724 24.0175 93.097 23.5759 92.9462 23.1665C92.7954 22.7572 92.563 22.4264 92.2491 22.174C91.9352 21.9216 91.5351 21.7955 91.0488 21.7955C90.5626 21.7955 90.1625 21.9216 89.8486 22.174C89.5346 22.4264 89.3023 22.7572 89.1515 23.1665C89.0007 23.5759 88.9253 24.0175 88.9253 24.4915C88.9253 24.9654 89.0007 25.4055 89.1515 25.8118C89.3023 26.218 89.5346 26.5458 89.8486 26.7951C90.1625 27.0444 90.5626 27.169 91.0488 27.169ZM98.6145 23.7344V28H97.525V20.9091H98.5775V22.017H98.6699C98.8361 21.657 99.0884 21.3677 99.427 21.1491C99.7655 20.9276 100.203 20.8168 100.738 20.8168C101.218 20.8168 101.638 20.9152 101.998 21.1122C102.358 21.3061 102.639 21.6016 102.839 21.9986C103.039 22.3925 103.139 22.8911 103.139 23.4943V28H102.049V23.5682C102.049 23.0111 101.904 22.5772 101.615 22.2663C101.326 21.9524 100.929 21.7955 100.424 21.7955C100.076 21.7955 99.7655 21.8709 99.4916 22.0217C99.2208 22.1725 99.0069 22.3925 98.8499 22.6818C98.693 22.9711 98.6145 23.322 98.6145 23.7344ZM108.816 28.1662C108.367 28.1662 107.959 28.0816 107.593 27.9123C107.227 27.7399 106.936 27.4922 106.72 27.169C106.505 26.8428 106.397 26.4489 106.397 25.9872C106.397 25.581 106.477 25.2517 106.637 24.9993C106.797 24.7438 107.011 24.5438 107.279 24.3991C107.547 24.2545 107.842 24.1468 108.165 24.076C108.491 24.0021 108.819 23.9437 109.149 23.9006C109.579 23.8452 109.929 23.8036 110.196 23.7759C110.467 23.7451 110.664 23.6944 110.787 23.6236C110.914 23.5528 110.977 23.4297 110.977 23.2543V23.2173C110.977 22.7618 110.852 22.4079 110.603 22.1555C110.356 21.9032 109.983 21.777 109.481 21.777C108.961 21.777 108.553 21.8909 108.258 22.1186C107.962 22.3464 107.754 22.5895 107.634 22.848L106.6 22.4787C106.785 22.0478 107.031 21.7124 107.339 21.4723C107.65 21.2292 107.988 21.0599 108.354 20.9645C108.724 20.866 109.087 20.8168 109.444 20.8168C109.672 20.8168 109.933 20.8445 110.229 20.8999C110.527 20.9522 110.815 21.0614 111.092 21.2276C111.372 21.3938 111.604 21.6446 111.789 21.9801C111.974 22.3156 112.066 22.7649 112.066 23.3281V28H110.977V27.0398H110.921C110.847 27.1937 110.724 27.3583 110.552 27.5337C110.38 27.7092 110.15 27.8584 109.864 27.9815C109.578 28.1046 109.229 28.1662 108.816 28.1662ZM108.982 27.1875C109.413 27.1875 109.776 27.1029 110.072 26.9336C110.37 26.7643 110.595 26.5458 110.746 26.2781C110.9 26.0103 110.977 25.7287 110.977 25.4332V24.4361C110.93 24.4915 110.829 24.5423 110.672 24.5884C110.518 24.6315 110.34 24.67 110.136 24.7038C109.936 24.7346 109.741 24.7623 109.55 24.7869C109.362 24.8085 109.21 24.8269 109.093 24.8423C108.81 24.8793 108.545 24.9393 108.299 25.0224C108.056 25.1024 107.859 25.224 107.708 25.3871C107.56 25.5471 107.487 25.7656 107.487 26.0426C107.487 26.4212 107.627 26.7074 107.907 26.9013C108.19 27.0921 108.548 27.1875 108.982 27.1875ZM116.744 18.5455V28H115.655V18.5455H116.744ZM57.4624 44H54.5448V34.5455H57.5917C58.5088 34.5455 59.2936 34.7347 59.9461 35.1133C60.5985 35.4888 61.0986 36.0289 61.4464 36.7337C61.7942 37.4354 61.9681 38.2756 61.9681 39.2543C61.9681 40.2391 61.7927 41.087 61.4418 41.7979C61.091 42.5058 60.5801 43.0505 59.9091 43.4322C59.2382 43.8107 58.4226 44 57.4624 44ZM55.6897 42.9844H57.3885C58.1703 42.9844 58.8181 42.8336 59.3321 42.532C59.846 42.2304 60.2292 41.801 60.4816 41.244C60.7339 40.6869 60.8601 40.0237 60.8601 39.2543C60.8601 38.491 60.7355 37.8339 60.4862 37.283C60.2369 36.729 59.8645 36.3043 59.369 36.0089C58.8735 35.7103 58.2564 35.5611 57.5178 35.5611H55.6897V42.9844ZM68.2215 44.1477C67.5813 44.1477 67.0197 43.9954 66.5365 43.6907C66.0564 43.386 65.6809 42.9598 65.4101 42.4119C65.1423 41.8641 65.0084 41.224 65.0084 40.4915C65.0084 39.7528 65.1423 39.1081 65.4101 38.5572C65.6809 38.0063 66.0564 37.5785 66.5365 37.2738C67.0197 36.9691 67.5813 36.8168 68.2215 36.8168C68.8616 36.8168 69.4218 36.9691 69.9019 37.2738C70.3851 37.5785 70.7606 38.0063 71.0283 38.5572C71.2991 39.1081 71.4346 39.7528 71.4346 40.4915C71.4346 41.224 71.2991 41.8641 71.0283 42.4119C70.7606 42.9598 70.3851 43.386 69.9019 43.6907C69.4218 43.9954 68.8616 44.1477 68.2215 44.1477ZM68.2215 43.169C68.7078 43.169 69.1079 43.0444 69.4218 42.7951C69.7357 42.5458 69.9681 42.218 70.1189 41.8118C70.2697 41.4055 70.3451 40.9654 70.3451 40.4915C70.3451 40.0175 70.2697 39.5759 70.1189 39.1665C69.9681 38.7572 69.7357 38.4264 69.4218 38.174C69.1079 37.9216 68.7078 37.7955 68.2215 37.7955C67.7352 37.7955 67.3351 37.9216 67.0212 38.174C66.7073 38.4264 66.4749 38.7572 66.3241 39.1665C66.1733 39.5759 66.0979 40.0175 66.0979 40.4915C66.0979 40.9654 66.1733 41.4055 66.3241 41.8118C66.4749 42.218 66.7073 42.5458 67.0212 42.7951C67.3351 43.0444 67.7352 43.169 68.2215 43.169ZM77.5783 44.1477C76.9136 44.1477 76.3411 43.9908 75.861 43.6768C75.3809 43.3629 75.0116 42.9305 74.753 42.3796C74.4945 41.8287 74.3653 41.1993 74.3653 40.4915C74.3653 39.7713 74.4976 39.1358 74.7623 38.5849C75.03 38.0309 75.4024 37.5985 75.8795 37.2876C76.3596 36.9737 76.9197 36.8168 77.5599 36.8168C78.0584 36.8168 78.5078 36.9091 78.9079 37.0938C79.308 37.2784 79.6357 37.5369 79.8912 37.8693C80.1466 38.2017 80.3051 38.5895 80.3667 39.0327H79.2772C79.1941 38.7095 79.0094 38.4233 78.7232 38.174C78.4401 37.9216 78.0584 37.7955 77.5783 37.7955C77.1536 37.7955 76.7812 37.9062 76.4611 38.1278C76.1441 38.3464 75.8964 38.6557 75.7179 39.0558C75.5425 39.4528 75.4548 39.919 75.4548 40.4545C75.4548 41.0024 75.5409 41.4794 75.7133 41.8857C75.8887 42.2919 76.1349 42.6074 76.4519 42.832C76.772 43.0567 77.1475 43.169 77.5783 43.169C77.8615 43.169 78.1185 43.1198 78.3493 43.0213C78.5801 42.9228 78.7755 42.7812 78.9356 42.5966C79.0956 42.4119 79.2095 42.1903 79.2772 41.9318H80.3667C80.3051 42.3504 80.1528 42.7274 79.9097 43.0629C79.6696 43.3952 79.3511 43.6599 78.954 43.8569C78.5601 44.0508 78.1015 44.1477 77.5783 44.1477ZM86.5324 44.1477C85.8491 44.1477 85.2598 43.9969 84.7643 43.6953C84.2718 43.3906 83.8918 42.9659 83.624 42.4212C83.3593 41.8733 83.227 41.2363 83.227 40.5099C83.227 39.7836 83.3593 39.1435 83.624 38.5895C83.8918 38.0324 84.2641 37.5985 84.7412 37.2876C85.2213 36.9737 85.7814 36.8168 86.4216 36.8168C86.7909 36.8168 87.1556 36.8783 87.5157 37.0014C87.8758 37.1245 88.2035 37.3246 88.499 37.6016C88.7945 37.8755 89.0299 38.2386 89.2053 38.6911C89.3807 39.1435 89.4685 39.7005 89.4685 40.3622V40.8239H84.0025V39.8821H88.3605C88.3605 39.482 88.2805 39.125 88.1204 38.8111C87.9635 38.4972 87.7388 38.2494 87.4464 38.0678C87.1571 37.8862 86.8155 37.7955 86.4216 37.7955C85.9876 37.7955 85.6122 37.9032 85.2952 38.1186C84.9812 38.331 84.7396 38.608 84.5704 38.9496C84.4011 39.2912 84.3165 39.6574 84.3165 40.0483V40.6761C84.3165 41.2116 84.4088 41.6656 84.5935 42.038C84.7812 42.4073 85.0413 42.6889 85.3736 42.8828C85.706 43.0736 86.0923 43.169 86.5324 43.169C86.8186 43.169 87.0771 43.129 87.3079 43.049C87.5418 42.9659 87.7434 42.8428 87.9127 42.6797C88.082 42.5135 88.2128 42.3073 88.3051 42.0611L89.3577 42.3565C89.2469 42.7135 89.0607 43.0275 88.7991 43.2983C88.5375 43.5661 88.2143 43.7753 87.8296 43.9261C87.4449 44.0739 87.0125 44.1477 86.5324 44.1477ZM93.8153 39.7344V44H92.7258V36.9091H93.7783V38.017H93.8707C94.0369 37.657 94.2892 37.3677 94.6278 37.1491C94.9663 36.9276 95.4033 36.8168 95.9388 36.8168C96.419 36.8168 96.8391 36.9152 97.1991 37.1122C97.5592 37.3061 97.8393 37.6016 98.0393 37.9986C98.2394 38.3925 98.3394 38.8911 98.3394 39.4943V44H97.2499V39.5682C97.2499 39.0111 97.1053 38.5772 96.816 38.2663C96.5267 37.9524 96.1297 37.7955 95.6249 37.7955C95.2771 37.7955 94.9663 37.8709 94.6924 38.0217C94.4216 38.1725 94.2077 38.3925 94.0507 38.6818C93.8937 38.9711 93.8153 39.322 93.8153 39.7344ZM105.014 36.9091V37.8324H101.339V36.9091H105.014ZM102.41 35.2102H103.5V41.9688C103.5 42.2765 103.544 42.5073 103.634 42.6612C103.726 42.812 103.843 42.9136 103.985 42.9659C104.129 43.0152 104.282 43.0398 104.442 43.0398C104.562 43.0398 104.66 43.0336 104.737 43.0213C104.814 43.0059 104.876 42.9936 104.922 42.9844L105.143 43.9631C105.069 43.9908 104.966 44.0185 104.834 44.0462C104.702 44.0769 104.534 44.0923 104.331 44.0923C104.023 44.0923 103.721 44.0262 103.426 43.8938C103.134 43.7615 102.89 43.5599 102.697 43.2891C102.506 43.0182 102.41 42.6766 102.41 42.2642V35.2102ZM111.15 44.1477C110.467 44.1477 109.877 43.9969 109.382 43.6953C108.889 43.3906 108.509 42.9659 108.241 42.4212C107.977 41.8733 107.844 41.2363 107.844 40.5099C107.844 39.7836 107.977 39.1435 108.241 38.5895C108.509 38.0324 108.882 37.5985 109.359 37.2876C109.839 36.9737 110.399 36.8168 111.039 36.8168C111.408 36.8168 111.773 36.8783 112.133 37.0014C112.493 37.1245 112.821 37.3246 113.116 37.6016C113.412 37.8755 113.647 38.2386 113.823 38.6911C113.998 39.1435 114.086 39.7005 114.086 40.3622V40.8239H108.62V39.8821H112.978C112.978 39.482 112.898 39.125 112.738 38.8111C112.581 38.4972 112.356 38.2494 112.064 38.0678C111.775 37.8862 111.433 37.7955 111.039 37.7955C110.605 37.7955 110.23 37.9032 109.913 38.1186C109.599 38.331 109.357 38.608 109.188 38.9496C109.018 39.2912 108.934 39.6574 108.934 40.0483V40.6761C108.934 41.2116 109.026 41.6656 109.211 42.038C109.399 42.4073 109.659 42.6889 109.991 42.8828C110.323 43.0736 110.71 43.169 111.15 43.169C111.436 43.169 111.695 43.129 111.925 43.049C112.159 42.9659 112.361 42.8428 112.53 42.6797C112.699 42.5135 112.83 42.3073 112.922 42.0611L113.975 42.3565C113.864 42.7135 113.678 43.0275 113.416 43.2983C113.155 43.5661 112.832 43.7753 112.447 43.9261C112.062 44.0739 111.63 44.1477 111.15 44.1477ZM123.301 46.6591C123.116 46.6591 122.952 46.6437 122.807 46.6129C122.663 46.5852 122.562 46.5575 122.507 46.5298L122.784 45.5696C123.049 45.6373 123.283 45.6619 123.486 45.6435C123.689 45.625 123.869 45.5342 124.026 45.3711C124.186 45.2111 124.332 44.951 124.464 44.5909L124.668 44.0369L122.045 36.9091H123.227L125.185 42.5597H125.258L127.216 36.9091H128.398L125.388 45.0341C125.252 45.4003 125.085 45.7035 124.885 45.9435C124.685 46.1867 124.452 46.3667 124.187 46.4837C123.926 46.6006 123.63 46.6591 123.301 46.6591ZM54.9326 60H53.7323L57.2039 50.5455H58.3857L61.8573 60H60.657L57.8317 52.0412H57.7579L54.9326 60ZM55.3758 56.3068H60.2138V57.3224H55.3758V56.3068ZM67.4598 60.1477C66.8689 60.1477 66.3472 59.9985 65.8948 59.6999C65.4424 59.3983 65.0884 58.9736 64.833 58.4258C64.5776 57.8749 64.4498 57.224 64.4498 56.473C64.4498 55.7282 64.5776 55.0819 64.833 54.5341C65.0884 53.9863 65.4439 53.5631 65.8994 53.2646C66.3549 52.966 66.8812 52.8168 67.4782 52.8168C67.9399 52.8168 68.3046 52.8937 68.5723 53.0476C68.8432 53.1984 69.0494 53.3707 69.191 53.5646C69.3356 53.7554 69.4479 53.9124 69.528 54.0355H69.6203V50.5455H70.7098V60H69.6572V58.9105H69.528C69.4479 59.0398 69.3341 59.2029 69.1863 59.3999C69.0386 59.5937 68.8278 59.7676 68.5539 59.9215C68.28 60.0723 67.9153 60.1477 67.4598 60.1477ZM67.6075 59.169C68.0445 59.169 68.4138 59.0552 68.7155 58.8274C69.0171 58.5966 69.2464 58.2781 69.4033 57.8718C69.5603 57.4625 69.6388 56.9901 69.6388 56.4545C69.6388 55.9252 69.5618 55.462 69.4079 55.065C69.254 54.6649 69.0263 54.354 68.7247 54.1325C68.4231 53.9078 68.0507 53.7955 67.6075 53.7955C67.1459 53.7955 66.7611 53.9139 66.4534 54.1509C66.1487 54.3848 65.9194 54.7034 65.7655 55.1065C65.6147 55.5066 65.5393 55.956 65.5393 56.4545C65.5393 56.9593 65.6163 57.4179 65.7701 57.8303C65.9271 58.2396 66.1579 58.5658 66.4626 58.8089C66.7704 59.049 67.152 59.169 67.6075 59.169ZM74.4564 60V52.9091H75.509V54.017H75.6013C75.7491 53.6385 75.9876 53.3446 76.3169 53.1353C76.6462 52.9229 77.0417 52.8168 77.5033 52.8168C77.9711 52.8168 78.3604 52.9229 78.6713 53.1353C78.9852 53.3446 79.2299 53.6385 79.4053 54.017H79.4792C79.6607 53.6508 79.9331 53.36 80.2963 53.1445C80.6594 52.926 81.0949 52.8168 81.6027 52.8168C82.2367 52.8168 82.7553 53.0153 83.1585 53.4123C83.5617 53.8062 83.7633 54.4202 83.7633 55.2543V60H82.6738V55.2543C82.6738 54.7311 82.5307 54.3571 82.2444 54.1325C81.9582 53.9078 81.6212 53.7955 81.2334 53.7955C80.7348 53.7955 80.3486 53.9463 80.0747 54.2479C79.8008 54.5464 79.6638 54.925 79.6638 55.3835V60H78.5559V55.1435C78.5559 54.7403 78.4251 54.4156 78.1635 54.1694C77.9019 53.9201 77.5649 53.7955 77.1525 53.7955C76.8693 53.7955 76.6046 53.8709 76.3584 54.0217C76.1153 54.1725 75.9183 54.3817 75.7675 54.6495C75.6198 54.9142 75.5459 55.2204 75.5459 55.5682V60H74.4564ZM87.3553 60V52.9091H88.4448V60H87.3553ZM87.9092 51.7273C87.6969 51.7273 87.5138 51.6549 87.3599 51.5103C87.2091 51.3656 87.1337 51.1918 87.1337 50.9886C87.1337 50.7855 87.2091 50.6116 87.3599 50.467C87.5138 50.3223 87.6969 50.25 87.9092 50.25C88.1216 50.25 88.3032 50.3223 88.454 50.467C88.6079 50.6116 88.6848 50.7855 88.6848 50.9886C88.6848 51.1918 88.6079 51.3656 88.454 51.5103C88.3032 51.6549 88.1216 51.7273 87.9092 51.7273ZM93.1297 55.7344V60H92.0402V52.9091H93.0928V54.017H93.1851C93.3513 53.657 93.6037 53.3677 93.9422 53.1491C94.2808 52.9276 94.7178 52.8168 95.2533 52.8168C95.7334 52.8168 96.1535 52.9152 96.5136 53.1122C96.8737 53.3061 97.1537 53.6016 97.3538 53.9986C97.5538 54.3925 97.6539 54.8911 97.6539 55.4943V60H96.5644V55.5682C96.5644 55.0111 96.4197 54.5772 96.1304 54.2663C95.8411 53.9524 95.4441 53.7955 94.9394 53.7955C94.5916 53.7955 94.2808 53.8709 94.0068 54.0217C93.736 54.1725 93.5221 54.3925 93.3652 54.6818C93.2082 54.9711 93.1297 55.322 93.1297 55.7344ZM101.245 60V52.9091H102.334V60H101.245ZM101.799 51.7273C101.586 51.7273 101.403 51.6549 101.249 51.5103C101.099 51.3656 101.023 51.1918 101.023 50.9886C101.023 50.7855 101.099 50.6116 101.249 50.467C101.403 50.3223 101.586 50.25 101.799 50.25C102.011 50.25 102.193 50.3223 102.343 50.467C102.497 50.6116 102.574 50.7855 102.574 50.9886C102.574 51.1918 102.497 51.3656 102.343 51.5103C102.193 51.6549 102.011 51.7273 101.799 51.7273ZM110.952 54.4972L109.974 54.7741C109.912 54.611 109.821 54.4525 109.701 54.2987C109.584 54.1417 109.424 54.0124 109.221 53.9109C109.018 53.8093 108.758 53.7585 108.441 53.7585C108.007 53.7585 107.645 53.8585 107.356 54.0586C107.07 54.2556 106.927 54.5064 106.927 54.8111C106.927 55.0819 107.025 55.2958 107.222 55.4528C107.419 55.6097 107.727 55.7405 108.146 55.8452L109.198 56.1037C109.832 56.2576 110.305 56.493 110.615 56.81C110.926 57.1239 111.082 57.5286 111.082 58.0241C111.082 58.4304 110.965 58.7936 110.731 59.1136C110.5 59.4337 110.177 59.6861 109.761 59.8707C109.346 60.0554 108.863 60.1477 108.312 60.1477C107.589 60.1477 106.99 59.9908 106.516 59.6768C106.042 59.3629 105.742 58.9044 105.616 58.3011L106.65 58.0426C106.748 58.4242 106.935 58.7105 107.208 58.9013C107.485 59.0921 107.847 59.1875 108.293 59.1875C108.801 59.1875 109.204 59.0798 109.503 58.8643C109.804 58.6458 109.955 58.3842 109.955 58.0795C109.955 57.8333 109.869 57.6271 109.697 57.4609C109.524 57.2917 109.26 57.1655 108.903 57.0824L107.721 56.8054C107.071 56.6515 106.594 56.413 106.29 56.0898C105.988 55.7636 105.837 55.3558 105.837 54.8665C105.837 54.4664 105.95 54.1125 106.174 53.8047C106.402 53.4969 106.711 53.2553 107.102 53.0799C107.496 52.9045 107.942 52.8168 108.441 52.8168C109.143 52.8168 109.694 52.9706 110.094 53.2784C110.497 53.5862 110.783 53.9924 110.952 54.4972ZM117.405 52.9091V53.8324H113.731V52.9091H117.405ZM114.802 51.2102H115.891V57.9688C115.891 58.2765 115.936 58.5073 116.025 58.6612C116.117 58.812 116.234 58.9136 116.376 58.9659C116.521 59.0152 116.673 59.0398 116.833 59.0398C116.953 59.0398 117.052 59.0336 117.128 59.0213C117.205 59.0059 117.267 58.9936 117.313 58.9844L117.535 59.9631C117.461 59.9908 117.358 60.0185 117.225 60.0462C117.093 60.0769 116.925 60.0923 116.722 60.0923C116.414 60.0923 116.113 60.0262 115.817 59.8938C115.525 59.7615 115.282 59.5599 115.088 59.2891C114.897 59.0182 114.802 58.6766 114.802 58.2642V51.2102ZM120.644 60V52.9091H121.697V53.9801H121.771C121.9 53.6293 122.134 53.3446 122.472 53.1261C122.811 52.9076 123.193 52.7983 123.617 52.7983C123.697 52.7983 123.797 52.7998 123.917 52.8029C124.037 52.806 124.128 52.8106 124.19 52.8168V53.9247C124.153 53.9155 124.068 53.9016 123.936 53.8832C123.807 53.8616 123.67 53.8509 123.525 53.8509C123.18 53.8509 122.873 53.9232 122.602 54.0678C122.334 54.2094 122.122 54.4064 121.965 54.6587C121.811 54.908 121.734 55.1927 121.734 55.5128V60H120.644ZM129.168 60.1662C128.719 60.1662 128.311 60.0816 127.945 59.9123C127.578 59.7399 127.287 59.4922 127.072 59.169C126.857 58.8428 126.749 58.4489 126.749 57.9872C126.749 57.581 126.829 57.2517 126.989 56.9993C127.149 56.7438 127.363 56.5438 127.631 56.3991C127.898 56.2545 128.194 56.1468 128.517 56.076C128.843 56.0021 129.171 55.9437 129.5 55.9006C129.931 55.8452 130.28 55.8036 130.548 55.7759C130.819 55.7451 131.016 55.6944 131.139 55.6236C131.265 55.5528 131.328 55.4297 131.328 55.2543V55.2173C131.328 54.7618 131.204 54.4079 130.954 54.1555C130.708 53.9032 130.334 53.777 129.833 53.777C129.313 53.777 128.905 53.8909 128.609 54.1186C128.314 54.3464 128.106 54.5895 127.986 54.848L126.952 54.4787C127.137 54.0478 127.383 53.7124 127.691 53.4723C128.001 53.2292 128.34 53.0599 128.706 52.9645C129.076 52.866 129.439 52.8168 129.796 52.8168C130.023 52.8168 130.285 52.8445 130.581 52.8999C130.879 52.9522 131.167 53.0614 131.444 53.2276C131.724 53.3938 131.956 53.6446 132.141 53.9801C132.326 54.3156 132.418 54.7649 132.418 55.3281V60H131.328V59.0398H131.273C131.199 59.1937 131.076 59.3583 130.904 59.5337C130.731 59.7092 130.502 59.8584 130.216 59.9815C129.93 60.1046 129.58 60.1662 129.168 60.1662ZM129.334 59.1875C129.765 59.1875 130.128 59.1029 130.424 58.9336C130.722 58.7643 130.947 58.5458 131.098 58.2781C131.251 58.0103 131.328 57.7287 131.328 57.4332V56.4361C131.282 56.4915 131.181 56.5423 131.024 56.5884C130.87 56.6315 130.691 56.67 130.488 56.7038C130.288 56.7346 130.093 56.7623 129.902 56.7869C129.714 56.8085 129.562 56.8269 129.445 56.8423C129.162 56.8793 128.897 56.9393 128.651 57.0224C128.408 57.1024 128.211 57.224 128.06 57.3871C127.912 57.5471 127.838 57.7656 127.838 58.0426C127.838 58.4212 127.978 58.7074 128.258 58.9013C128.542 59.0921 128.9 59.1875 129.334 59.1875ZM139.09 52.9091V53.8324H135.416V52.9091H139.09ZM136.487 51.2102H137.576V57.9688C137.576 58.2765 137.621 58.5073 137.71 58.6612C137.802 58.812 137.919 58.9136 138.061 58.9659C138.205 59.0152 138.358 59.0398 138.518 59.0398C138.638 59.0398 138.736 59.0336 138.813 59.0213C138.89 59.0059 138.952 58.9936 138.998 58.9844L139.22 59.9631C139.146 59.9908 139.043 60.0185 138.91 60.0462C138.778 60.0769 138.61 60.0923 138.407 60.0923C138.099 60.0923 137.798 60.0262 137.502 59.8938C137.21 59.7615 136.967 59.5599 136.773 59.2891C136.582 59.0182 136.487 58.6766 136.487 58.2642V51.2102ZM142.329 60V52.9091H143.419V60H142.329ZM142.883 51.7273C142.671 51.7273 142.488 51.6549 142.334 51.5103C142.183 51.3656 142.108 51.1918 142.108 50.9886C142.108 50.7855 142.183 50.6116 142.334 50.467C142.488 50.3223 142.671 50.25 142.883 50.25C143.095 50.25 143.277 50.3223 143.428 50.467C143.582 50.6116 143.659 50.7855 143.659 50.9886C143.659 51.1918 143.582 51.3656 143.428 51.5103C143.277 51.6549 143.095 51.7273 142.883 51.7273ZM152.812 52.9091L150.19 60H149.082L146.46 52.9091H147.642L149.599 58.5597H149.673L151.631 52.9091H152.812ZM158.477 60.1477C157.837 60.1477 157.275 59.9954 156.792 59.6907C156.312 59.386 155.937 58.9598 155.666 58.4119C155.398 57.8641 155.264 57.224 155.264 56.4915C155.264 55.7528 155.398 55.1081 155.666 54.5572C155.937 54.0063 156.312 53.5785 156.792 53.2738C157.275 52.9691 157.837 52.8168 158.477 52.8168C159.117 52.8168 159.677 52.9691 160.158 53.2738C160.641 53.5785 161.016 54.0063 161.284 54.5572C161.555 55.1081 161.69 55.7528 161.69 56.4915C161.69 57.224 161.555 57.8641 161.284 58.4119C161.016 58.9598 160.641 59.386 160.158 59.6907C159.677 59.9954 159.117 60.1477 158.477 60.1477ZM158.477 59.169C158.963 59.169 159.364 59.0444 159.677 58.7951C159.991 58.5458 160.224 58.218 160.375 57.8118C160.525 57.4055 160.601 56.9654 160.601 56.4915C160.601 56.0175 160.525 55.5759 160.375 55.1665C160.224 54.7572 159.991 54.4264 159.677 54.174C159.364 53.9216 158.963 53.7955 158.477 53.7955C157.991 53.7955 157.591 53.9216 157.277 54.174C156.963 54.4264 156.731 54.7572 156.58 55.1665C156.429 55.5759 156.354 56.0175 156.354 56.4915C156.354 56.9654 156.429 57.4055 156.58 57.8118C156.731 58.218 156.963 58.5458 157.277 58.7951C157.591 59.0444 157.991 59.169 158.477 59.169Z" fill="black"/>
</svg>
