<svg width="60" height="60" viewBox="0 0 60 60" fill="none" xmlns="http://www.w3.org/2000/svg">
<g clip-path="url(#clip0_89_2052)">
<path d="M43.0917 29.4083L30.5917 16.9083C30.4356 16.7531 30.2243 16.666 30.0042 16.666C29.784 16.666 29.5728 16.7531 29.4167 16.9083L16.9167 29.4083C16.7802 29.5678 16.7088 29.7728 16.7169 29.9826C16.725 30.1923 16.812 30.3912 16.9604 30.5396C17.1088 30.6881 17.3077 30.775 17.5175 30.7831C17.7272 30.7912 17.9323 30.7199 18.0917 30.5833L30 18.675L41.9084 30.5917C42.0678 30.7282 42.2728 30.7995 42.4826 30.7914C42.6923 30.7833 42.8912 30.6964 43.0397 30.548C43.1881 30.3996 43.275 30.2006 43.2831 29.9909C43.2912 29.7812 43.2199 29.5761 43.0834 29.4167L43.0917 29.4083Z" fill="#353535"/>
<path d="M38.3333 41.6667H34.1667V33.3333H25.8333V41.6667H21.6667V30L20 31.6667V41.6667C20 42.1087 20.1756 42.5326 20.4882 42.8452C20.8007 43.1577 21.2246 43.3333 21.6667 43.3333H27.5V35H32.5V43.3333H38.3333C38.7754 43.3333 39.1993 43.1577 39.5118 42.8452C39.8244 42.5326 40 42.1087 40 41.6667V31.4667L38.3333 29.8V41.6667Z" fill="#353535"/>
</g>
<defs>
<clipPath id="clip0_89_2052">
<rect width="30" height="30" fill="white" transform="translate(15 15)"/>
</clipPath>
</defs>
</svg>
