<svg width="240" height="157" viewBox="0 0 240 157" fill="none" xmlns="http://www.w3.org/2000/svg">
<mask id="path-1-inside-1_89_1390" fill="white">
<path d="M30 30.5H210V126.5H30V30.5Z"/>
</mask>
<path d="M30 30.5H210V126.5H30V30.5Z" fill="white" fill-opacity="0.1475"/>
<path d="M100.312 39.8749C100.448 38.5208 100.75 37.6083 101.429 36.9291C102.65 35.7083 104.612 35.7083 108.542 35.7083C112.471 35.7083 114.433 35.7083 115.654 36.9291C116.875 38.1499 116.875 40.1124 116.875 44.0416C116.875 47.9708 116.875 49.9333 115.654 51.1541C114.433 52.3749 112.471 52.3749 108.542 52.3749C104.612 52.3749 102.65 52.3749 101.429 51.1541C100.783 50.5083 100.479 49.6583 100.338 48.4187M139.688 62.7916C139.552 61.4374 139.25 60.5249 138.571 59.8458C137.35 58.6249 135.387 58.6249 131.458 58.6249C127.529 58.6249 125.567 58.6249 124.346 59.8458C123.125 61.0666 123.125 63.0291 123.125 66.9583C123.125 70.8874 123.125 72.8499 124.346 74.0707C125.567 75.2916 127.529 75.2916 131.458 75.2916C135.387 75.2916 137.35 75.2916 138.571 74.0707C139.252 73.3916 139.552 72.4791 139.685 71.1249" stroke="#264094" stroke-width="3" stroke-linecap="round"/>
<path d="M100.208 66.9583C100.208 63.0291 100.208 61.0666 101.429 59.8458C102.65 58.6249 104.613 58.6249 108.542 58.6249C112.471 58.6249 114.433 58.6249 115.654 59.8458C116.875 61.0666 116.875 63.0291 116.875 66.9583C116.875 70.8874 116.875 72.8499 115.654 74.0708C114.433 75.2916 112.471 75.2916 108.542 75.2916C104.613 75.2916 102.65 75.2916 101.429 74.0708C100.208 72.8499 100.208 70.8874 100.208 66.9583ZM123.125 44.0416C123.125 40.1124 123.125 38.1499 124.346 36.9291C125.567 35.7083 127.529 35.7083 131.458 35.7083C135.388 35.7083 137.35 35.7083 138.571 36.9291C139.792 38.1499 139.792 40.1124 139.792 44.0416C139.792 47.9708 139.792 49.9333 138.571 51.1541C137.35 52.3749 135.388 52.3749 131.458 52.3749C127.529 52.3749 125.567 52.3749 124.346 51.1541C123.125 49.9333 123.125 47.9708 123.125 44.0416Z" stroke="#264094" stroke-width="3"/>
<path d="M65.4597 103.773C65.4597 104.804 65.2643 105.681 64.8735 106.404C64.4857 107.127 63.9563 107.68 63.2854 108.061C62.6175 108.44 61.8666 108.629 61.0325 108.629C60.1923 108.629 59.4383 108.438 58.7705 108.057C58.1026 107.675 57.5748 107.123 57.187 106.4C56.7992 105.676 56.6053 104.801 56.6053 103.773C56.6053 102.742 56.7992 101.865 57.187 101.141C57.5748 100.418 58.1026 99.8672 58.7705 99.4886C59.4383 99.107 60.1923 98.9162 61.0325 98.9162C61.8666 98.9162 62.6175 99.107 63.2854 99.4886C63.9563 99.8672 64.4857 100.418 64.8735 101.141C65.2643 101.865 65.4597 102.742 65.4597 103.773ZM63.4331 103.773C63.4331 103.105 63.3331 102.542 63.133 102.083C62.9361 101.625 62.6575 101.277 62.2975 101.04C61.9374 100.803 61.5157 100.684 61.0325 100.684C60.5494 100.684 60.1277 100.803 59.7676 101.04C59.4075 101.277 59.1275 101.625 58.9274 102.083C58.7305 102.542 58.632 103.105 58.632 103.773C58.632 104.441 58.7305 105.004 58.9274 105.462C59.1275 105.921 59.4075 106.269 59.7676 106.506C60.1277 106.743 60.5494 106.861 61.0325 106.861C61.5157 106.861 61.9374 106.743 62.2975 106.506C62.6575 106.269 62.9361 105.921 63.133 105.462C63.3331 105.004 63.4331 104.441 63.4331 103.773ZM68.5405 108.5V99.0455H72.326C73.0215 99.0455 73.6017 99.1486 74.0664 99.3548C74.5311 99.561 74.8804 99.8472 75.1143 100.213C75.3483 100.577 75.4652 100.995 75.4652 101.469C75.4652 101.838 75.3913 102.163 75.2436 102.443C75.0959 102.72 74.8928 102.948 74.6342 103.126C74.3788 103.302 74.0864 103.426 73.7571 103.5V103.593C74.1172 103.608 74.4542 103.71 74.7681 103.897C75.0851 104.085 75.3421 104.348 75.5391 104.687C75.736 105.022 75.8345 105.422 75.8345 105.887C75.8345 106.389 75.7099 106.837 75.4606 107.23C75.2144 107.621 74.8497 107.931 74.3665 108.158C73.8833 108.386 73.2878 108.5 72.5799 108.5H68.5405ZM70.5394 106.866H72.169C72.7261 106.866 73.1323 106.76 73.3878 106.547C73.6432 106.332 73.771 106.046 73.771 105.689C73.771 105.427 73.7079 105.196 73.5817 104.996C73.4555 104.796 73.2755 104.639 73.0416 104.525C72.8107 104.411 72.5353 104.354 72.2152 104.354H70.5394V106.866ZM70.5394 103.002H72.0213C72.2952 103.002 72.5384 102.954 72.7507 102.859C72.9661 102.76 73.1354 102.622 73.2585 102.443C73.3847 102.265 73.4478 102.051 73.4478 101.801C73.4478 101.46 73.3262 101.184 73.0831 100.975C72.843 100.766 72.5014 100.661 72.0582 100.661H70.5394V103.002ZM78.3751 100.694V99.0455H86.14V100.694H83.2455V108.5H81.2697V100.694H78.3751ZM89.0188 108.5V99.0455H95.3895V100.694H91.0177V102.946H95.0618V104.594H91.0177V106.852H95.408V108.5H89.0188ZM106.487 99.0455V108.5H104.76L100.647 102.549H100.578V108.5H98.5788V99.0455H100.333L104.414 104.991H104.497V99.0455H106.487ZM109.738 108.5V99.0455H116.109V100.694H111.737V102.946H115.781V104.594H111.737V106.852H116.128V108.5H109.738ZM119.298 108.5V99.0455H123.028C123.742 99.0455 124.352 99.1732 124.857 99.4286C125.364 99.681 125.751 100.04 126.015 100.504C126.283 100.966 126.417 101.509 126.417 102.134C126.417 102.762 126.281 103.302 126.011 103.754C125.74 104.204 125.347 104.548 124.833 104.788C124.323 105.028 123.704 105.148 122.978 105.148H120.48V103.542H122.654C123.036 103.542 123.353 103.49 123.605 103.385C123.858 103.28 124.046 103.123 124.169 102.914C124.295 102.705 124.358 102.445 124.358 102.134C124.358 101.82 124.295 101.555 124.169 101.34C124.046 101.124 123.856 100.961 123.601 100.85C123.348 100.737 123.03 100.68 122.645 100.68H121.297V108.5H119.298ZM124.404 104.197L126.754 108.5H124.547L122.248 104.197H124.404ZM137.39 108.5H134.038V99.0455H137.418C138.369 99.0455 139.187 99.2347 139.874 99.6133C140.56 99.9888 141.088 100.529 141.457 101.234C141.829 101.938 142.016 102.782 142.016 103.763C142.016 104.748 141.829 105.595 141.457 106.303C141.088 107.01 140.557 107.554 139.864 107.932C139.175 108.311 138.35 108.5 137.39 108.5ZM136.037 106.787H137.307C137.898 106.787 138.395 106.683 138.798 106.473C139.204 106.261 139.509 105.933 139.712 105.49C139.918 105.044 140.021 104.468 140.021 103.763C140.021 103.065 139.918 102.494 139.712 102.051C139.509 101.608 139.206 101.281 138.803 101.072C138.399 100.863 137.902 100.758 137.311 100.758H136.037V106.787ZM146.193 108.5H144.051L147.315 99.0455H149.891L153.15 108.5H151.008L148.639 101.206H148.566L146.193 108.5ZM146.059 104.784H151.119V106.344H146.059V104.784ZM154.372 100.694V99.0455H162.137V100.694H159.243V108.5H157.267V100.694H154.372ZM173.273 103.773C173.273 104.804 173.077 105.681 172.686 106.404C172.299 107.127 171.769 107.68 171.098 108.061C170.43 108.44 169.679 108.629 168.845 108.629C168.005 108.629 167.251 108.438 166.583 108.057C165.916 107.675 165.388 107.123 165 106.4C164.612 105.676 164.418 104.801 164.418 103.773C164.418 102.742 164.612 101.865 165 101.141C165.388 100.418 165.916 99.8672 166.583 99.4886C167.251 99.107 168.005 98.9162 168.845 98.9162C169.679 98.9162 170.43 99.107 171.098 99.4886C171.769 99.8672 172.299 100.418 172.686 101.141C173.077 101.865 173.273 102.742 173.273 103.773ZM171.246 103.773C171.246 103.105 171.146 102.542 170.946 102.083C170.749 101.625 170.47 101.277 170.11 101.04C169.75 100.803 169.329 100.684 168.845 100.684C168.362 100.684 167.941 100.803 167.581 101.04C167.22 101.277 166.94 101.625 166.74 102.083C166.543 102.542 166.445 103.105 166.445 103.773C166.445 104.441 166.543 105.004 166.74 105.462C166.94 105.921 167.22 106.269 167.581 106.506C167.941 106.743 168.362 106.861 168.845 106.861C169.329 106.861 169.75 106.743 170.11 106.506C170.47 106.269 170.749 105.921 170.946 105.462C171.146 105.004 171.246 104.441 171.246 103.773ZM181.482 101.765C181.445 101.392 181.287 101.103 181.007 100.897C180.727 100.69 180.347 100.587 179.867 100.587C179.54 100.587 179.265 100.634 179.04 100.726C178.815 100.815 178.643 100.94 178.523 101.1C178.406 101.26 178.348 101.441 178.348 101.645C178.342 101.814 178.377 101.962 178.454 102.088C178.534 102.214 178.643 102.323 178.782 102.415C178.92 102.505 179.08 102.583 179.262 102.651C179.443 102.716 179.637 102.771 179.843 102.817L180.693 103.02C181.105 103.113 181.484 103.236 181.829 103.39C182.173 103.543 182.472 103.733 182.724 103.957C182.976 104.182 183.172 104.447 183.31 104.751C183.452 105.056 183.524 105.405 183.527 105.799C183.524 106.378 183.377 106.88 183.084 107.304C182.795 107.726 182.376 108.054 181.829 108.288C181.284 108.518 180.627 108.634 179.857 108.634C179.094 108.634 178.429 108.517 177.863 108.283C177.3 108.049 176.86 107.703 176.543 107.244C176.229 106.783 176.064 106.212 176.049 105.532H177.983C178.005 105.849 178.095 106.113 178.255 106.326C178.418 106.535 178.635 106.693 178.906 106.801C179.18 106.906 179.489 106.958 179.834 106.958C180.173 106.958 180.467 106.909 180.716 106.81C180.968 106.712 181.164 106.575 181.302 106.4C181.441 106.224 181.51 106.022 181.51 105.795C181.51 105.582 181.447 105.404 181.321 105.259C181.198 105.115 181.016 104.991 180.776 104.89C180.539 104.788 180.248 104.696 179.903 104.613L178.874 104.354C178.077 104.161 177.447 103.857 176.986 103.445C176.524 103.033 176.295 102.477 176.298 101.778C176.295 101.206 176.447 100.706 176.755 100.278C177.066 99.8503 177.492 99.5163 178.034 99.2763C178.575 99.0362 179.191 98.9162 179.88 98.9162C180.582 98.9162 181.195 99.0362 181.718 99.2763C182.244 99.5163 182.653 99.8503 182.946 100.278C183.238 100.706 183.389 101.201 183.398 101.765H181.482Z" fill="black"/>
<path d="M210 123.5H30V129.5H210V123.5Z" fill="#FBBB3D" mask="url(#path-1-inside-1_89_1390)"/>
</svg>
